<svg width="206" height="206" viewBox="0 0 206 206" fill="none" xmlns="http://www.w3.org/2000/svg">
<path d="M103.2 33.4004C89.3948 33.4004 75.8997 37.4941 64.4211 45.1638C52.9426 52.8335 43.9961 63.7348 38.7131 76.4891C33.4301 89.2433 32.0479 103.278 34.7411 116.818C37.4344 130.358 44.0822 142.795 53.8439 152.556C63.6056 162.318 76.0427 168.966 89.5826 171.659C103.122 174.352 117.157 172.97 129.911 167.687C142.665 162.404 153.567 153.458 161.236 141.979C168.906 130.501 173 117.005 173 103.2C173 84.6883 165.646 66.9344 152.556 53.8443C139.466 40.7543 121.712 33.4004 103.2 33.4004ZM103.2 166.484C90.6836 166.484 78.4484 162.772 68.0415 155.819C57.6346 148.865 49.5235 138.981 44.7337 127.418C39.9439 115.854 38.6907 103.13 41.1325 90.8544C43.5743 78.5786 49.6015 67.3026 58.4518 58.4523C67.3021 49.6019 78.5782 43.5748 90.8539 41.133C103.13 38.6912 115.854 39.9444 127.417 44.7341C138.981 49.5239 148.864 57.6351 155.818 68.042C162.772 78.4489 166.483 90.6841 166.483 103.2C166.479 119.983 159.811 136.077 147.944 147.944C136.077 159.811 119.983 166.48 103.2 166.484Z" fill="black"/>
<path d="M132.018 59.6104H127.239V83.5045H79.3057V59.6104H74.3821C67.1705 64.3679 61.252 70.8404 57.157 78.4478C53.062 86.0551 50.9185 94.5596 50.9185 103.199C50.9185 111.839 53.062 120.343 57.157 127.951C61.252 135.558 67.1705 142.03 74.3821 146.788H79.3057V122.923H127.239V146.817H132.018C139.232 142.062 145.154 135.59 149.251 127.982C153.348 120.375 155.493 111.869 155.493 103.228C155.493 94.5873 153.348 86.0816 149.251 78.4739C145.154 70.8663 139.232 64.3946 132.018 59.6393V59.6104ZM72.6443 137.404C68.1531 133.413 64.492 128.577 61.8699 123.172C59.2479 117.766 57.7163 111.897 57.3626 105.9C57.009 99.902 57.8401 93.8935 59.8087 88.2173C61.7773 82.541 64.8447 77.3081 68.8357 72.8173C70.0319 71.4811 71.3035 70.2143 72.6443 69.0232V137.404ZM127.239 116.261H79.3057V90.0211H127.239V116.261ZM133.755 137.259V122.778V83.5045V69.0232C138.236 73.0462 141.879 77.9125 144.478 83.3442C147.077 88.7758 148.58 94.6663 148.901 100.679C149.223 106.692 148.356 112.709 146.351 118.387C144.346 124.064 141.242 129.292 137.217 133.769C136.122 134.98 134.966 136.135 133.755 137.23V137.259Z" fill="black"/>
</svg>
