<svg width="1646" height="1084" viewBox="0 0 1646 1084" fill="none" xmlns="http://www.w3.org/2000/svg">
<g clip-path="url(#clip0_59_2939)">
<g clip-path="url(#clip1_59_2939)">
<rect width="4938" height="3252" transform="translate(-1646 -1084)" fill="#009DA8"/>
<g filter="url(#filter0_f_59_2939)">
<path fill-rule="evenodd" clip-rule="evenodd" d="M1550.21 -1147C2205.96 -1146.23 2580.08 -479.433 2769.67 147.829C2944.06 724.798 2898.12 1373 2424.79 1746.57C1891.05 2167.83 1124.46 2285.25 583.529 1873.25C70.8295 1482.76 125.57 758.511 321.945 144.968C522.146 -480.528 892.999 -1147.77 1550.21 -1147Z" fill="#00C7D4"/>
</g>
<g filter="url(#filter1_f_59_2939)">
<path fill-rule="evenodd" clip-rule="evenodd" d="M86.4321 -1539.51C249.48 -1618.89 355.945 -1296.67 523.317 -1226.87C703.196 -1151.85 1044.25 -1309.89 1090.81 -1120.62C1152.09 -871.54 695.558 -718.262 711.427 -462.244C723.725 -263.814 1097.24 -265.582 1155.59 -75.5272C1204.86 84.9785 1048.37 237.202 972.055 386.752C882.469 562.309 862.99 888.538 665.965 883.952C403.703 877.848 310.71 502.233 86.4321 366.139C-5.49878 310.355 -124.002 350.24 -231.01 339.661C-382.248 324.711 -539.613 352.158 -678.53 290.518C-846.303 216.075 -1040.38 124.31 -1104.22 -47.7934C-1166.44 -215.548 -1110.39 -428.779 -996.518 -566.779C-879.327 -708.797 -668.004 -717.728 -496.382 -784.403C-393.533 -824.36 -251.928 -794.896 -184.508 -882.246C-37.8821 -1072.22 -129.32 -1434.46 86.4321 -1539.51Z" fill="#FF9ABA"/>
</g>
<g filter="url(#filter2_f_59_2939)">
<path fill-rule="evenodd" clip-rule="evenodd" d="M140.057 550.977C306.146 587.816 483.398 586.085 618.177 689.839C750.809 791.939 797.126 959.505 867.782 1111.18C950.213 1288.14 1055.69 1452.59 1064.33 1647.59C1076.31 1918.35 1134.93 2255.74 926.096 2428.65C719.234 2599.93 394.379 2499.36 140.057 2412.88C-63.441 2343.69 -140.877 2093.59 -334.392 2000.07C-603.107 1870.21 -1084.8 2058.83 -1178.57 1775.64C-1272.1 1493.19 -764.705 1363.39 -633.665 1096.25C-533.028 891.089 -708.757 568.643 -521.91 436.964C-334.335 304.773 -84.0162 501.277 140.057 550.977Z" fill="#FFB54C"/>
</g>
<g filter="url(#filter3_f_59_2939)">
<path fill-rule="evenodd" clip-rule="evenodd" d="M3670.62 -1206.22C3935.71 -1238.32 4171.64 -1009.36 4339.15 -801.28C4482.61 -623.086 4493.06 -383.169 4516.47 -155.551C4535.17 26.1954 4493.72 196.575 4460.27 376.189C4420.6 589.191 4438.84 821.7 4303.04 990.463C4146.37 1185.17 3917.98 1322.54 3670.62 1357.51C3401.64 1395.54 3053.47 1409.42 2893.51 1189.73C2725.67 959.208 3000.91 635.429 2941.74 356.433C2893.26 127.857 2553.69 -0.70243 2592.16 -231.176C2629.73 -456.285 2940.9 -499.465 3110.13 -652.472C3309.83 -833.02 3403.43 -1173.87 3670.62 -1206.22Z" fill="#FFB54C"/>
</g>
<g filter="url(#filter4_f_59_2939)">
<path fill-rule="evenodd" clip-rule="evenodd" d="M2066.59 -855.236C2331.44 -858.164 2392.06 -456.782 2511.34 -220.248C2580.11 -83.8723 2554.43 72.9946 2606.99 216.404C2662.96 369.116 2869.46 482.103 2826.22 638.899C2783.42 794.122 2531.34 763.674 2423.19 882.952C2264.23 1058.28 2288.64 1394.93 2066.59 1476.75C1854.83 1554.77 1650.18 1344.7 1449.33 1241.79C1205.33 1116.78 770.746 1087.24 771.129 813.035C771.568 498.39 1248.71 433.036 1450.79 191.902C1547.37 76.6634 1552.7 -80.8799 1628.92 -210.492C1763.9 -440.018 1800.37 -852.293 2066.59 -855.236Z" fill="#FF9ABA"/>
</g>
<g filter="url(#filter5_f_59_2939)">
<path fill-rule="evenodd" clip-rule="evenodd" d="M3210.96 1682.97C3431.88 1701.47 3672.94 1653.6 3840.05 1799.34C4014.67 1951.63 4023.33 2201 4066.1 2428.77C4125.14 2743.12 4368.46 3135.16 4131.18 3349.49C3891.44 3566.04 3528.83 3258.48 3210.96 3201.2C2988.29 3161.07 2759.85 3194.09 2571.64 3068.44C2334.51 2910.14 2075.45 2713.18 2053.93 2428.77C2031.66 2134.57 2219 1844.1 2466.9 1684.31C2683.65 1544.59 2954.03 1661.44 3210.96 1682.97Z" fill="#FFB54C"/>
</g>
<g filter="url(#filter6_f_59_2939)">
<path fill-rule="evenodd" clip-rule="evenodd" d="M-155.225 1865.96C114.788 1786.01 332.779 1404.27 592.949 1512.01C832.29 1611.13 674.441 2012.53 775.049 2251.2C871.097 2479.06 1148.3 2618.72 1163.49 2865.52C1179.19 3120.82 1072.42 3416.3 855.038 3551.17C635.263 3687.53 352.763 3551.33 95.1253 3528.39C-68.5668 3513.82 -221.401 3484.37 -379.975 3441.22C-542.095 3397.12 -718.579 3384.38 -844.203 3272.83C-977.501 3154.48 -1080.04 2988.33 -1090.43 2810.39C-1100.58 2636.76 -971.661 2494.38 -898.935 2336.38C-826.46 2178.93 -810.644 1976.91 -664.137 1884.24C-517.723 1791.62 -321.348 1915.15 -155.225 1865.96Z" fill="#00C7D4"/>
</g>
</g>
<rect x="418.75" y="353.5" width="808.5" height="378.5" rx="17.25" fill="#F4F4F5"/>
<rect x="418.75" y="353.5" width="808.5" height="378.5" rx="17.25" stroke="#D4D4D8" stroke-width="1.5"/>
<path d="M823 497.875C823 498.911 822.16 499.755 821.126 499.703C811.863 499.24 803.073 495.356 796.483 488.767C789.451 481.734 785.5 472.196 785.5 462.25C785.5 452.304 789.451 442.766 796.483 435.733C803.073 429.144 811.863 425.26 821.126 424.797C822.16 424.745 823 425.589 823 426.625V426.625C823 427.661 822.16 428.495 821.126 428.552C812.858 429.012 805.021 432.499 799.135 438.385C792.806 444.714 789.25 453.299 789.25 462.25C789.25 471.201 792.806 479.786 799.135 486.115C805.021 492.001 812.858 495.488 821.126 495.948C822.16 496.005 823 496.839 823 497.875V497.875Z" fill="black"/>
<path d="M699.074 600.75V579.612H703.498V600.75H699.074ZM706.647 600.75V585.047H710.925V587.625H711.013C711.423 586.727 712.028 586.019 712.829 585.501C713.63 584.983 714.621 584.725 715.803 584.725C717.531 584.725 718.864 585.247 719.802 586.292C720.749 587.327 721.223 588.768 721.223 590.613V600.75H716.945V591.492C716.945 590.467 716.701 589.676 716.213 589.119C715.734 588.553 715.017 588.27 714.06 588.27C713.425 588.27 712.873 588.416 712.404 588.709C711.936 588.992 711.569 589.393 711.306 589.91C711.052 590.428 710.925 591.033 710.925 591.727V600.75H706.647ZM724.021 600.75V585.047H728.298V600.75H724.021ZM726.159 583.025C725.515 583.025 724.973 582.806 724.533 582.366C724.094 581.927 723.874 581.404 723.874 580.799C723.874 580.184 724.094 579.661 724.533 579.231C724.973 578.792 725.515 578.572 726.159 578.572C726.804 578.572 727.346 578.792 727.785 579.231C728.225 579.661 728.444 580.184 728.444 580.799C728.444 581.404 728.225 581.927 727.785 582.366C727.346 582.806 726.804 583.025 726.159 583.025ZM737.409 601.072C735.671 601.072 734.382 600.706 733.542 599.974C732.702 599.241 732.282 598.035 732.282 596.355V588.27H730.1V585.047H732.282V581.209H736.604V585.047H739.475V588.27H736.604V595.887C736.604 596.619 736.765 597.132 737.087 597.425C737.419 597.708 737.907 597.85 738.552 597.85C738.747 597.85 738.918 597.845 739.064 597.835C739.211 597.815 739.348 597.796 739.475 597.776V600.911C739.24 600.95 738.947 600.984 738.596 601.014C738.254 601.053 737.858 601.072 737.409 601.072ZM741.921 600.75V585.047H746.198V600.75H741.921ZM744.06 583.025C743.415 583.025 742.873 582.806 742.434 582.366C741.994 581.927 741.774 581.404 741.774 580.799C741.774 580.184 741.994 579.661 742.434 579.231C742.873 578.792 743.415 578.572 744.06 578.572C744.704 578.572 745.246 578.792 745.686 579.231C746.125 579.661 746.345 580.184 746.345 580.799C746.345 581.404 746.125 581.927 745.686 582.366C745.246 582.806 744.704 583.025 744.06 583.025ZM753.742 600.999C752.697 600.999 751.779 600.799 750.988 600.398C750.197 599.988 749.577 599.427 749.128 598.714C748.688 597.991 748.469 597.171 748.469 596.253V596.224C748.469 595.267 748.708 594.451 749.187 593.777C749.665 593.094 750.358 592.557 751.267 592.166C752.175 591.775 753.278 591.536 754.577 591.448L760.7 591.067V593.733L755.222 594.085C754.401 594.134 753.776 594.329 753.347 594.671C752.917 595.003 752.702 595.447 752.702 596.004V596.033C752.702 596.609 752.922 597.063 753.361 597.396C753.801 597.718 754.392 597.879 755.134 597.879C755.769 597.879 756.335 597.757 756.833 597.513C757.341 597.259 757.736 596.917 758.02 596.487C758.312 596.048 758.459 595.555 758.459 595.008V590.247C758.459 589.554 758.239 589.007 757.8 588.606C757.36 588.196 756.721 587.991 755.881 587.991C755.08 587.991 754.445 588.157 753.977 588.489C753.508 588.821 753.22 589.241 753.112 589.749L753.083 589.881H749.172L749.187 589.705C749.265 588.738 749.582 587.879 750.139 587.127C750.705 586.375 751.486 585.789 752.482 585.369C753.488 584.939 754.68 584.725 756.057 584.725C757.414 584.725 758.591 584.944 759.587 585.384C760.583 585.813 761.354 586.424 761.901 587.215C762.458 588.006 762.736 588.929 762.736 589.983V600.75H758.459V598.406H758.371C758.078 598.943 757.697 599.407 757.229 599.798C756.77 600.179 756.247 600.477 755.661 600.691C755.075 600.896 754.436 600.999 753.742 600.999ZM765.607 600.75V579.612H769.885V600.75H765.607ZM772.858 600.75V585.047H777.136V600.75H772.858ZM774.997 583.025C774.353 583.025 773.811 582.806 773.371 582.366C772.932 581.927 772.712 581.404 772.712 580.799C772.712 580.184 772.932 579.661 773.371 579.231C773.811 578.792 774.353 578.572 774.997 578.572C775.642 578.572 776.184 578.792 776.623 579.231C777.062 579.661 777.282 580.184 777.282 580.799C777.282 581.404 777.062 581.927 776.623 582.366C776.184 582.806 775.642 583.025 774.997 583.025ZM779.714 600.75V598.318L787.609 588.343V588.27H779.831V585.047H792.502V587.757L785.075 597.439V597.527H792.678V600.75H779.714ZM795.271 600.75V585.047H799.548V600.75H795.271ZM797.409 583.025C796.765 583.025 796.223 582.806 795.783 582.366C795.344 581.927 795.124 581.404 795.124 580.799C795.124 580.184 795.344 579.661 795.783 579.231C796.223 578.792 796.765 578.572 797.409 578.572C798.054 578.572 798.596 578.792 799.035 579.231C799.475 579.661 799.694 580.184 799.694 580.799C799.694 581.404 799.475 581.927 799.035 582.366C798.596 582.806 798.054 583.025 797.409 583.025ZM802.419 600.75V585.047H806.696V587.625H806.784C807.194 586.727 807.8 586.019 808.601 585.501C809.401 584.983 810.393 584.725 811.574 584.725C813.303 584.725 814.636 585.247 815.573 586.292C816.521 587.327 816.994 588.768 816.994 590.613V600.75H812.717V591.492C812.717 590.467 812.473 589.676 811.984 589.119C811.506 588.553 810.788 588.27 809.831 588.27C809.196 588.27 808.645 588.416 808.176 588.709C807.707 588.992 807.341 589.393 807.077 589.91C806.823 590.428 806.696 591.033 806.696 591.727V600.75H802.419ZM827.043 606.199C825.607 606.199 824.353 605.999 823.278 605.599C822.214 605.208 821.364 604.676 820.729 604.002C820.104 603.328 819.724 602.571 819.587 601.731L819.572 601.6H823.732L823.776 601.702C823.952 602.083 824.318 602.42 824.875 602.713C825.432 603.006 826.154 603.152 827.043 603.152C828.146 603.152 828.986 602.889 829.562 602.361C830.139 601.834 830.427 601.131 830.427 600.252V597.85H830.339C830.065 598.396 829.694 598.87 829.226 599.271C828.757 599.671 828.205 599.983 827.57 600.208C826.945 600.423 826.252 600.53 825.49 600.53C824.182 600.53 823.049 600.218 822.092 599.593C821.145 598.968 820.412 598.074 819.895 596.912C819.387 595.74 819.133 594.344 819.133 592.723V592.708C819.133 591.038 819.392 589.607 819.909 588.416C820.437 587.225 821.179 586.312 822.136 585.677C823.093 585.042 824.235 584.725 825.563 584.725C826.306 584.725 826.984 584.847 827.6 585.091C828.215 585.335 828.752 585.682 829.211 586.131C829.68 586.58 830.056 587.112 830.339 587.728H830.427V585.047H834.704V600.311C834.704 601.473 834.392 602.493 833.767 603.372C833.151 604.261 832.268 604.954 831.115 605.452C829.973 605.95 828.615 606.199 827.043 606.199ZM826.97 597.396C827.673 597.396 828.283 597.21 828.801 596.839C829.318 596.468 829.719 595.94 830.002 595.257C830.295 594.573 830.441 593.763 830.441 592.825V592.811C830.441 591.873 830.295 591.067 830.002 590.394C829.719 589.71 829.313 589.188 828.786 588.826C828.269 588.455 827.663 588.27 826.97 588.27C826.267 588.27 825.651 588.455 825.124 588.826C824.597 589.188 824.191 589.705 823.908 590.379C823.625 591.053 823.483 591.863 823.483 592.811V592.825C823.483 593.763 823.625 594.573 823.908 595.257C824.191 595.94 824.597 596.468 825.124 596.839C825.651 597.21 826.267 597.396 826.97 597.396ZM843.464 600.75V585.047H847.741V587.684H847.829C848.151 586.785 848.698 586.067 849.47 585.53C850.251 584.993 851.169 584.725 852.224 584.725C852.956 584.725 853.615 584.852 854.201 585.105C854.787 585.359 855.28 585.726 855.681 586.204C856.091 586.683 856.379 587.269 856.545 587.962H856.633C856.867 587.298 857.219 586.727 857.688 586.248C858.166 585.76 858.728 585.384 859.372 585.12C860.026 584.856 860.739 584.725 861.511 584.725C862.536 584.725 863.435 584.944 864.206 585.384C864.978 585.823 865.578 586.438 866.008 587.229C866.438 588.021 866.652 588.948 866.652 590.013V600.75H862.375V591.082C862.375 590.477 862.272 589.964 862.067 589.544C861.872 589.124 861.584 588.807 861.203 588.592C860.832 588.377 860.368 588.27 859.812 588.27C859.274 588.27 858.801 588.392 858.391 588.636C857.99 588.88 857.678 589.222 857.453 589.661C857.229 590.101 857.116 590.613 857.116 591.199V600.75H853V590.95C853 590.384 852.897 589.9 852.692 589.5C852.487 589.1 852.194 588.797 851.813 588.592C851.442 588.377 850.993 588.27 850.466 588.27C849.929 588.27 849.455 588.396 849.045 588.65C848.635 588.904 848.312 589.256 848.078 589.705C847.854 590.154 847.741 590.677 847.741 591.272V600.75H843.464ZM876.569 601.072C874.978 601.072 873.601 600.745 872.438 600.091C871.276 599.437 870.378 598.499 869.743 597.278C869.108 596.058 868.791 594.598 868.791 592.898V592.869C868.791 591.18 869.113 589.729 869.758 588.519C870.402 587.298 871.306 586.36 872.468 585.706C873.63 585.052 874.992 584.725 876.555 584.725C878.127 584.725 879.494 585.052 880.656 585.706C881.828 586.351 882.736 587.283 883.381 588.504C884.025 589.715 884.348 591.17 884.348 592.869V592.898C884.348 594.607 884.025 596.072 883.381 597.293C882.746 598.514 881.848 599.451 880.686 600.105C879.523 600.75 878.151 601.072 876.569 601.072ZM876.584 597.718C877.277 597.718 877.878 597.532 878.386 597.161C878.903 596.78 879.299 596.233 879.572 595.521C879.855 594.798 879.997 593.924 879.997 592.898V592.869C879.997 591.854 879.855 590.989 879.572 590.276C879.289 589.563 878.889 589.021 878.371 588.65C877.854 588.27 877.248 588.079 876.555 588.079C875.871 588.079 875.271 588.27 874.753 588.65C874.245 589.021 873.85 589.563 873.566 590.276C873.283 590.989 873.142 591.854 873.142 592.869V592.898C873.142 593.924 873.278 594.798 873.552 595.521C873.835 596.233 874.235 596.78 874.753 597.161C875.271 597.532 875.881 597.718 876.584 597.718ZM892.375 601.072C891.057 601.072 889.919 600.745 888.962 600.091C888.005 599.437 887.268 598.499 886.75 597.278C886.242 596.058 885.988 594.598 885.988 592.898V592.884C885.988 591.175 886.247 589.715 886.765 588.504C887.282 587.283 888.015 586.351 888.962 585.706C889.919 585.052 891.057 584.725 892.375 584.725C893.117 584.725 893.801 584.847 894.426 585.091C895.051 585.335 895.598 585.687 896.066 586.146C896.545 586.595 896.926 587.137 897.209 587.771H897.297V579.612H901.574V600.75H897.297V598.069H897.209C896.936 598.694 896.564 599.231 896.096 599.681C895.627 600.12 895.08 600.462 894.455 600.706C893.83 600.95 893.137 601.072 892.375 601.072ZM893.811 597.527C894.504 597.527 895.114 597.342 895.642 596.971C896.169 596.59 896.579 596.053 896.872 595.359C897.165 594.666 897.312 593.846 897.312 592.898V592.884C897.312 591.937 897.16 591.121 896.857 590.438C896.564 589.744 896.154 589.212 895.627 588.841C895.109 588.46 894.504 588.27 893.811 588.27C893.098 588.27 892.482 588.455 891.965 588.826C891.447 589.197 891.047 589.729 890.764 590.423C890.48 591.106 890.339 591.927 890.339 592.884V592.898C890.339 593.846 890.476 594.666 890.749 595.359C891.032 596.053 891.433 596.59 891.95 596.971C892.478 597.342 893.098 597.527 893.811 597.527ZM911.579 601.072C909.978 601.072 908.601 600.745 907.448 600.091C906.296 599.427 905.407 598.484 904.782 597.264C904.167 596.043 903.859 594.598 903.859 592.928V592.913C903.859 591.243 904.167 589.798 904.782 588.577C905.407 587.347 906.281 586.399 907.404 585.735C908.537 585.062 909.87 584.725 911.403 584.725C912.937 584.725 914.26 585.052 915.373 585.706C916.496 586.351 917.36 587.264 917.966 588.445C918.581 589.627 918.889 591.009 918.889 592.591V593.909H905.954V591.214H916.867L914.831 593.733V592.093C914.831 591.175 914.689 590.408 914.406 589.793C914.123 589.168 913.728 588.699 913.22 588.387C912.722 588.074 912.141 587.918 911.477 587.918C910.812 587.918 910.222 588.079 909.704 588.401C909.196 588.724 908.796 589.197 908.503 589.822C908.22 590.438 908.078 591.194 908.078 592.093V593.748C908.078 594.617 908.22 595.359 908.503 595.975C908.796 596.59 909.211 597.063 909.748 597.396C910.285 597.718 910.925 597.879 911.667 597.879C912.253 597.879 912.761 597.786 913.19 597.601C913.62 597.415 913.972 597.181 914.245 596.897C914.519 596.614 914.704 596.326 914.802 596.033L914.831 595.945H918.757L918.713 596.106C918.596 596.683 918.366 597.264 918.024 597.85C917.683 598.436 917.219 598.973 916.633 599.461C916.057 599.949 915.349 600.34 914.509 600.633C913.679 600.926 912.702 601.072 911.579 601.072ZM921.203 600.75V579.612H925.48V600.75H921.203ZM930.593 600.999C929.929 600.999 929.367 600.77 928.908 600.311C928.449 599.852 928.22 599.29 928.22 598.626C928.22 597.962 928.449 597.4 928.908 596.941C929.367 596.482 929.929 596.253 930.593 596.253C931.257 596.253 931.818 596.482 932.277 596.941C932.736 597.4 932.966 597.962 932.966 598.626C932.966 599.29 932.736 599.852 932.277 600.311C931.818 600.77 931.257 600.999 930.593 600.999ZM937.829 600.999C937.165 600.999 936.604 600.77 936.145 600.311C935.686 599.852 935.456 599.29 935.456 598.626C935.456 597.962 935.686 597.4 936.145 596.941C936.604 596.482 937.165 596.253 937.829 596.253C938.493 596.253 939.055 596.482 939.514 596.941C939.973 597.4 940.202 597.962 940.202 598.626C940.202 599.29 939.973 599.852 939.514 600.311C939.055 600.77 938.493 600.999 937.829 600.999ZM945.065 600.999C944.401 600.999 943.84 600.77 943.381 600.311C942.922 599.852 942.692 599.29 942.692 598.626C942.692 597.962 942.922 597.4 943.381 596.941C943.84 596.482 944.401 596.253 945.065 596.253C945.729 596.253 946.291 596.482 946.75 596.941C947.209 597.4 947.438 597.962 947.438 598.626C947.438 599.29 947.209 599.852 946.75 600.311C946.291 600.77 945.729 600.999 945.065 600.999Z" fill="black"/>
<path d="M590.688 655.055C589.953 655.055 589.301 654.949 588.73 654.738C588.16 654.527 587.676 654.23 587.277 653.848C586.879 653.465 586.566 653.016 586.34 652.5C586.113 651.984 585.977 651.422 585.93 650.812L585.918 650.648H588.027L588.039 650.766C588.086 651.188 588.211 651.578 588.414 651.938C588.617 652.289 588.906 652.574 589.281 652.793C589.656 653.004 590.121 653.109 590.676 653.109C591.613 653.109 592.328 652.84 592.82 652.301C593.312 651.754 593.559 650.965 593.559 649.934V637.84H595.668V649.957C595.668 651.02 595.469 651.934 595.07 652.699C594.68 653.457 594.113 654.039 593.371 654.445C592.629 654.852 591.734 655.055 590.688 655.055ZM603.004 654.984C602.105 654.984 601.34 654.801 600.707 654.434C600.074 654.066 599.59 653.543 599.254 652.863C598.926 652.184 598.762 651.375 598.762 650.438V642.48H600.801V650.051C600.801 651.074 601.031 651.852 601.492 652.383C601.953 652.914 602.66 653.18 603.613 653.18C604.105 653.18 604.547 653.098 604.938 652.934C605.336 652.77 605.676 652.535 605.957 652.23C606.238 651.926 606.453 651.562 606.602 651.141C606.75 650.711 606.824 650.234 606.824 649.711V642.48H608.863V654.75H606.824V652.992H606.754C606.535 653.375 606.25 653.719 605.898 654.023C605.555 654.32 605.141 654.555 604.656 654.727C604.172 654.898 603.621 654.984 603.004 654.984ZM616.047 654.984C615.094 654.984 614.266 654.836 613.562 654.539C612.867 654.234 612.316 653.812 611.91 653.273C611.504 652.727 611.258 652.094 611.172 651.375L611.16 651.293H613.211L613.234 651.387C613.367 651.98 613.668 652.445 614.137 652.781C614.605 653.117 615.25 653.285 616.07 653.285C616.625 653.285 617.102 653.211 617.5 653.062C617.898 652.914 618.207 652.703 618.426 652.43C618.645 652.156 618.754 651.832 618.754 651.457V651.445C618.754 651.008 618.613 650.656 618.332 650.391C618.059 650.117 617.566 649.891 616.855 649.711L614.91 649.242C614.145 649.055 613.508 648.812 613 648.516C612.492 648.211 612.113 647.84 611.863 647.402C611.621 646.965 611.5 646.453 611.5 645.867V645.855C611.5 645.152 611.691 644.531 612.074 643.992C612.457 643.445 612.988 643.02 613.668 642.715C614.355 642.402 615.137 642.246 616.012 642.246C616.902 642.246 617.68 642.402 618.344 642.715C619.008 643.02 619.531 643.441 619.914 643.98C620.305 644.52 620.527 645.129 620.582 645.809L620.594 645.938H618.637L618.625 645.867C618.539 645.289 618.27 644.824 617.816 644.473C617.371 644.121 616.77 643.945 616.012 643.945C615.52 643.945 615.09 644.023 614.723 644.18C614.355 644.328 614.074 644.539 613.879 644.812C613.684 645.078 613.586 645.395 613.586 645.762V645.773C613.586 646.047 613.652 646.297 613.785 646.523C613.918 646.742 614.125 646.934 614.406 647.098C614.695 647.262 615.066 647.398 615.52 647.508L617.453 647.977C618.68 648.273 619.551 648.684 620.066 649.207C620.582 649.73 620.84 650.43 620.84 651.305V651.316C620.84 652.035 620.633 652.672 620.219 653.227C619.805 653.773 619.234 654.203 618.508 654.516C617.781 654.828 616.961 654.984 616.047 654.984ZM627.191 654.961C626.043 654.961 625.188 654.695 624.625 654.164C624.07 653.633 623.793 652.781 623.793 651.609V644.168H621.965V642.48H623.793V639.188H625.902V642.48H628.305V644.168H625.902V651.504C625.902 652.176 626.043 652.637 626.324 652.887C626.605 653.129 627.027 653.25 627.59 653.25C627.723 653.25 627.848 653.246 627.965 653.238C628.082 653.223 628.195 653.211 628.305 653.203V654.867C628.164 654.891 627.992 654.91 627.789 654.926C627.594 654.949 627.395 654.961 627.191 654.961ZM639.426 654.984C638.629 654.984 637.922 654.832 637.305 654.527C636.688 654.223 636.207 653.793 635.863 653.238C635.52 652.676 635.348 652.027 635.348 651.293V651.27C635.348 650.559 635.52 649.949 635.863 649.441C636.215 648.926 636.723 648.52 637.387 648.223C638.059 647.926 638.863 647.75 639.801 647.695L644.336 647.426V649.02L640.035 649.289C639.199 649.336 638.555 649.531 638.102 649.875C637.656 650.219 637.434 650.68 637.434 651.258V651.281C637.434 651.875 637.656 652.348 638.102 652.699C638.555 653.043 639.148 653.215 639.883 653.215C640.531 653.215 641.113 653.078 641.629 652.805C642.145 652.531 642.555 652.16 642.859 651.691C643.164 651.223 643.316 650.695 643.316 650.109V646.441C643.316 645.699 643.082 645.117 642.613 644.695C642.145 644.266 641.477 644.051 640.609 644.051C639.836 644.051 639.207 644.215 638.723 644.543C638.246 644.871 637.945 645.305 637.82 645.844L637.797 645.938H635.816L635.828 645.82C635.898 645.148 636.133 644.543 636.531 644.004C636.938 643.465 637.488 643.039 638.184 642.727C638.879 642.406 639.699 642.246 640.645 642.246C641.621 642.246 642.457 642.414 643.152 642.75C643.855 643.078 644.398 643.543 644.781 644.145C645.164 644.746 645.355 645.461 645.355 646.289V654.75H643.316V652.793H643.246C643.004 653.238 642.688 653.625 642.297 653.953C641.906 654.281 641.469 654.535 640.984 654.715C640.5 654.895 639.98 654.984 639.426 654.984ZM653.418 654.75V642.48H655.457V644.285H655.527C655.801 643.668 656.23 643.176 656.816 642.809C657.402 642.434 658.09 642.246 658.879 642.246C659.441 642.246 659.945 642.34 660.391 642.527C660.844 642.707 661.234 642.973 661.562 643.324C661.891 643.668 662.141 644.082 662.312 644.566H662.383C662.609 644.082 662.914 643.668 663.297 643.324C663.68 642.98 664.117 642.715 664.609 642.527C665.109 642.34 665.645 642.246 666.215 642.246C667.027 642.246 667.73 642.414 668.324 642.75C668.926 643.078 669.387 643.543 669.707 644.145C670.035 644.738 670.199 645.449 670.199 646.277V654.75H668.16V646.746C668.16 646.176 668.059 645.691 667.855 645.293C667.66 644.887 667.375 644.578 667 644.367C666.625 644.156 666.16 644.051 665.605 644.051C665.059 644.051 664.574 644.176 664.152 644.426C663.738 644.676 663.414 645.02 663.18 645.457C662.945 645.895 662.828 646.387 662.828 646.934V654.75H660.789V646.512C660.789 646.012 660.684 645.578 660.473 645.211C660.262 644.844 659.969 644.559 659.594 644.355C659.219 644.152 658.777 644.051 658.27 644.051C657.73 644.051 657.246 644.188 656.816 644.461C656.395 644.727 656.062 645.086 655.82 645.539C655.578 645.992 655.457 646.504 655.457 647.074V654.75H653.418ZM678.062 654.984C676.922 654.984 675.926 654.727 675.074 654.211C674.223 653.688 673.559 652.949 673.082 651.996C672.613 651.043 672.379 649.918 672.379 648.621V648.598C672.379 647.285 672.613 646.156 673.082 645.211C673.559 644.266 674.223 643.535 675.074 643.02C675.926 642.504 676.918 642.246 678.051 642.246C679.191 642.246 680.188 642.504 681.039 643.02C681.891 643.535 682.551 644.266 683.02 645.211C683.496 646.156 683.734 647.285 683.734 648.598V648.621C683.734 649.926 683.496 651.055 683.02 652.008C682.551 652.953 681.891 653.688 681.039 654.211C680.195 654.727 679.203 654.984 678.062 654.984ZM678.074 653.18C678.809 653.18 679.441 653 679.973 652.641C680.504 652.281 680.914 651.762 681.203 651.082C681.5 650.402 681.648 649.582 681.648 648.621V648.598C681.648 647.637 681.5 646.816 681.203 646.137C680.914 645.457 680.5 644.941 679.961 644.59C679.422 644.23 678.785 644.051 678.051 644.051C677.332 644.051 676.703 644.23 676.164 644.59C675.625 644.949 675.207 645.469 674.91 646.148C674.613 646.82 674.465 647.637 674.465 648.598V648.621C674.465 649.582 674.613 650.402 674.91 651.082C675.207 651.762 675.625 652.281 676.164 652.641C676.703 653 677.34 653.18 678.074 653.18ZM685.996 654.75V642.48H688.035V644.285H688.105C688.379 643.668 688.809 643.176 689.395 642.809C689.98 642.434 690.668 642.246 691.457 642.246C692.02 642.246 692.523 642.34 692.969 642.527C693.422 642.707 693.812 642.973 694.141 643.324C694.469 643.668 694.719 644.082 694.891 644.566H694.961C695.188 644.082 695.492 643.668 695.875 643.324C696.258 642.98 696.695 642.715 697.188 642.527C697.688 642.34 698.223 642.246 698.793 642.246C699.605 642.246 700.309 642.414 700.902 642.75C701.504 643.078 701.965 643.543 702.285 644.145C702.613 644.738 702.777 645.449 702.777 646.277V654.75H700.738V646.746C700.738 646.176 700.637 645.691 700.434 645.293C700.238 644.887 699.953 644.578 699.578 644.367C699.203 644.156 698.738 644.051 698.184 644.051C697.637 644.051 697.152 644.176 696.73 644.426C696.316 644.676 695.992 645.02 695.758 645.457C695.523 645.895 695.406 646.387 695.406 646.934V654.75H693.367V646.512C693.367 646.012 693.262 645.578 693.051 645.211C692.84 644.844 692.547 644.559 692.172 644.355C691.797 644.152 691.355 644.051 690.848 644.051C690.309 644.051 689.824 644.188 689.395 644.461C688.973 644.727 688.641 645.086 688.398 645.539C688.156 645.992 688.035 646.504 688.035 647.074V654.75H685.996ZM710.605 654.984C709.434 654.984 708.426 654.727 707.582 654.211C706.738 653.688 706.09 652.953 705.637 652.008C705.184 651.062 704.957 649.949 704.957 648.668V648.656C704.957 647.383 705.184 646.266 705.637 645.305C706.098 644.344 706.738 643.594 707.559 643.055C708.387 642.516 709.359 642.246 710.477 642.246C711.594 642.246 712.555 642.504 713.359 643.02C714.164 643.535 714.781 644.258 715.211 645.188C715.648 646.109 715.867 647.184 715.867 648.41V649.172H705.988V647.578H714.848L713.816 649.055V648.258C713.816 647.305 713.672 646.52 713.383 645.902C713.102 645.277 712.707 644.812 712.199 644.508C711.699 644.203 711.121 644.051 710.465 644.051C709.809 644.051 709.219 644.211 708.695 644.531C708.18 644.852 707.773 645.324 707.477 645.949C707.18 646.574 707.031 647.344 707.031 648.258V649.055C707.031 649.922 707.176 650.664 707.465 651.281C707.762 651.891 708.18 652.359 708.719 652.688C709.266 653.016 709.91 653.18 710.652 653.18C711.176 653.18 711.641 653.102 712.047 652.945C712.461 652.789 712.805 652.578 713.078 652.312C713.352 652.039 713.547 651.734 713.664 651.398L713.699 651.293H715.715L715.691 651.41C715.582 651.895 715.387 652.355 715.105 652.793C714.824 653.223 714.461 653.602 714.016 653.93C713.57 654.258 713.059 654.516 712.48 654.703C711.91 654.891 711.285 654.984 710.605 654.984ZM718.129 654.75V642.48H720.168V644.25H720.238C720.566 643.656 721.039 643.176 721.656 642.809C722.281 642.434 723.055 642.246 723.977 642.246C725.328 642.246 726.375 642.652 727.117 643.465C727.859 644.27 728.23 645.379 728.23 646.793V654.75H726.191V647.18C726.191 646.156 725.957 645.379 725.488 644.848C725.02 644.316 724.312 644.051 723.367 644.051C722.719 644.051 722.152 644.195 721.668 644.484C721.191 644.766 720.82 645.168 720.555 645.691C720.297 646.207 720.168 646.816 720.168 647.52V654.75H718.129ZM735.074 654.961C733.926 654.961 733.07 654.695 732.508 654.164C731.953 653.633 731.676 652.781 731.676 651.609V644.168H729.848V642.48H731.676V639.188H733.785V642.48H736.188V644.168H733.785V651.504C733.785 652.176 733.926 652.637 734.207 652.887C734.488 653.129 734.91 653.25 735.473 653.25C735.605 653.25 735.73 653.246 735.848 653.238C735.965 653.223 736.078 653.211 736.188 653.203V654.867C736.047 654.891 735.875 654.91 735.672 654.926C735.477 654.949 735.277 654.961 735.074 654.961ZM746.184 654.75L742.75 642.48H744.777L747.227 652.43H747.297L750.062 642.48H752.031L754.809 652.43H754.879L757.328 642.48H759.344L755.922 654.75H753.848L751.082 645.258H751.012L748.258 654.75H746.184ZM761.312 654.75V637.711H763.352V644.414H763.422C763.75 643.734 764.234 643.203 764.875 642.82C765.516 642.438 766.289 642.246 767.195 642.246C768.078 642.246 768.844 642.453 769.492 642.867C770.148 643.273 770.656 643.844 771.016 644.578C771.383 645.312 771.566 646.172 771.566 647.156V654.75H769.527V647.531C769.527 646.422 769.266 645.566 768.742 644.965C768.227 644.355 767.484 644.051 766.516 644.051C765.883 644.051 765.328 644.199 764.852 644.496C764.375 644.793 764.004 645.203 763.738 645.727C763.48 646.25 763.352 646.863 763.352 647.566V654.75H761.312ZM774.473 654.75V642.48H776.512V654.75H774.473ZM775.492 640.348C775.133 640.348 774.824 640.223 774.566 639.973C774.316 639.715 774.191 639.406 774.191 639.047C774.191 638.688 774.316 638.383 774.566 638.133C774.824 637.875 775.133 637.746 775.492 637.746C775.859 637.746 776.168 637.875 776.418 638.133C776.668 638.383 776.793 638.688 776.793 639.047C776.793 639.406 776.668 639.715 776.418 639.973C776.168 640.223 775.859 640.348 775.492 640.348ZM779.594 654.75V637.711H781.633V654.75H779.594ZM789.637 654.984C788.465 654.984 787.457 654.727 786.613 654.211C785.77 653.688 785.121 652.953 784.668 652.008C784.215 651.062 783.988 649.949 783.988 648.668V648.656C783.988 647.383 784.215 646.266 784.668 645.305C785.129 644.344 785.77 643.594 786.59 643.055C787.418 642.516 788.391 642.246 789.508 642.246C790.625 642.246 791.586 642.504 792.391 643.02C793.195 643.535 793.812 644.258 794.242 645.188C794.68 646.109 794.898 647.184 794.898 648.41V649.172H785.02V647.578H793.879L792.848 649.055V648.258C792.848 647.305 792.703 646.52 792.414 645.902C792.133 645.277 791.738 644.812 791.23 644.508C790.73 644.203 790.152 644.051 789.496 644.051C788.84 644.051 788.25 644.211 787.727 644.531C787.211 644.852 786.805 645.324 786.508 645.949C786.211 646.574 786.062 647.344 786.062 648.258V649.055C786.062 649.922 786.207 650.664 786.496 651.281C786.793 651.891 787.211 652.359 787.75 652.688C788.297 653.016 788.941 653.18 789.684 653.18C790.207 653.18 790.672 653.102 791.078 652.945C791.492 652.789 791.836 652.578 792.109 652.312C792.383 652.039 792.578 651.734 792.695 651.398L792.73 651.293H794.746L794.723 651.41C794.613 651.895 794.418 652.355 794.137 652.793C793.855 653.223 793.492 653.602 793.047 653.93C792.602 654.258 792.09 654.516 791.512 654.703C790.941 654.891 790.316 654.984 789.637 654.984ZM804.824 654.75L801.391 642.48H803.418L805.867 652.43H805.938L808.703 642.48H810.672L813.449 652.43H813.52L815.969 642.48H817.984L814.562 654.75H812.488L809.723 645.258H809.652L806.898 654.75H804.824ZM824.793 654.984C823.621 654.984 822.613 654.727 821.77 654.211C820.926 653.688 820.277 652.953 819.824 652.008C819.371 651.062 819.145 649.949 819.145 648.668V648.656C819.145 647.383 819.371 646.266 819.824 645.305C820.285 644.344 820.926 643.594 821.746 643.055C822.574 642.516 823.547 642.246 824.664 642.246C825.781 642.246 826.742 642.504 827.547 643.02C828.352 643.535 828.969 644.258 829.398 645.188C829.836 646.109 830.055 647.184 830.055 648.41V649.172H820.176V647.578H829.035L828.004 649.055V648.258C828.004 647.305 827.859 646.52 827.57 645.902C827.289 645.277 826.895 644.812 826.387 644.508C825.887 644.203 825.309 644.051 824.652 644.051C823.996 644.051 823.406 644.211 822.883 644.531C822.367 644.852 821.961 645.324 821.664 645.949C821.367 646.574 821.219 647.344 821.219 648.258V649.055C821.219 649.922 821.363 650.664 821.652 651.281C821.949 651.891 822.367 652.359 822.906 652.688C823.453 653.016 824.098 653.18 824.84 653.18C825.363 653.18 825.828 653.102 826.234 652.945C826.648 652.789 826.992 652.578 827.266 652.312C827.539 652.039 827.734 651.734 827.852 651.398L827.887 651.293H829.902L829.879 651.41C829.77 651.895 829.574 652.355 829.293 652.793C829.012 653.223 828.648 653.602 828.203 653.93C827.758 654.258 827.246 654.516 826.668 654.703C826.098 654.891 825.473 654.984 824.793 654.984ZM842.734 659.109C841.727 659.109 840.848 658.965 840.098 658.676C839.355 658.395 838.754 658.004 838.293 657.504C837.84 657.012 837.551 656.457 837.426 655.84L837.402 655.758H839.465L839.512 655.84C839.691 656.285 840.059 656.641 840.613 656.906C841.168 657.172 841.867 657.305 842.711 657.305C843.789 657.305 844.625 657.031 845.219 656.484C845.82 655.945 846.121 655.203 846.121 654.258V652.523H846.051C845.801 652.977 845.48 653.367 845.09 653.695C844.707 654.023 844.266 654.277 843.766 654.457C843.273 654.637 842.734 654.727 842.148 654.727C841.117 654.727 840.211 654.469 839.43 653.953C838.648 653.43 838.039 652.699 837.602 651.762C837.172 650.824 836.957 649.73 836.957 648.48V648.469C836.957 647.219 837.176 646.129 837.613 645.199C838.059 644.27 838.672 643.547 839.453 643.031C840.242 642.508 841.156 642.246 842.195 642.246C842.781 642.246 843.316 642.344 843.801 642.539C844.285 642.734 844.719 643.004 845.102 643.348C845.484 643.691 845.801 644.09 846.051 644.543H846.109V642.48H848.148V654.445C848.148 655.383 847.93 656.199 847.492 656.895C847.055 657.598 846.43 658.141 845.617 658.523C844.805 658.914 843.844 659.109 842.734 659.109ZM842.594 652.922C843.305 652.922 843.922 652.738 844.445 652.371C844.977 651.996 845.391 651.477 845.688 650.812C845.984 650.148 846.133 649.371 846.133 648.48V648.469C846.133 647.586 845.984 646.812 845.688 646.148C845.391 645.484 844.977 644.969 844.445 644.602C843.922 644.234 843.305 644.051 842.594 644.051C841.867 644.051 841.234 644.234 840.695 644.602C840.164 644.961 839.754 645.473 839.465 646.137C839.184 646.801 839.043 647.578 839.043 648.469V648.48C839.043 649.387 839.184 650.172 839.465 650.836C839.754 651.5 840.164 652.016 840.695 652.383C841.234 652.742 841.867 652.922 842.594 652.922ZM856.059 654.984C854.887 654.984 853.879 654.727 853.035 654.211C852.191 653.688 851.543 652.953 851.09 652.008C850.637 651.062 850.41 649.949 850.41 648.668V648.656C850.41 647.383 850.637 646.266 851.09 645.305C851.551 644.344 852.191 643.594 853.012 643.055C853.84 642.516 854.812 642.246 855.93 642.246C857.047 642.246 858.008 642.504 858.812 643.02C859.617 643.535 860.234 644.258 860.664 645.188C861.102 646.109 861.32 647.184 861.32 648.41V649.172H851.441V647.578H860.301L859.27 649.055V648.258C859.27 647.305 859.125 646.52 858.836 645.902C858.555 645.277 858.16 644.812 857.652 644.508C857.152 644.203 856.574 644.051 855.918 644.051C855.262 644.051 854.672 644.211 854.148 644.531C853.633 644.852 853.227 645.324 852.93 645.949C852.633 646.574 852.484 647.344 852.484 648.258V649.055C852.484 649.922 852.629 650.664 852.918 651.281C853.215 651.891 853.633 652.359 854.172 652.688C854.719 653.016 855.363 653.18 856.105 653.18C856.629 653.18 857.094 653.102 857.5 652.945C857.914 652.789 858.258 652.578 858.531 652.312C858.805 652.039 859 651.734 859.117 651.398L859.152 651.293H861.168L861.145 651.41C861.035 651.895 860.84 652.355 860.559 652.793C860.277 653.223 859.914 653.602 859.469 653.93C859.023 654.258 858.512 654.516 857.934 654.703C857.363 654.891 856.738 654.984 856.059 654.984ZM867.637 654.961C866.488 654.961 865.633 654.695 865.07 654.164C864.516 653.633 864.238 652.781 864.238 651.609V644.168H862.41V642.48H864.238V639.188H866.348V642.48H868.75V644.168H866.348V651.504C866.348 652.176 866.488 652.637 866.77 652.887C867.051 653.129 867.473 653.25 868.035 653.25C868.168 653.25 868.293 653.246 868.41 653.238C868.527 653.223 868.641 653.211 868.75 653.203V654.867C868.609 654.891 868.438 654.91 868.234 654.926C868.039 654.949 867.84 654.961 867.637 654.961ZM881.371 654.984C880.199 654.984 879.191 654.727 878.348 654.211C877.504 653.688 876.855 652.953 876.402 652.008C875.949 651.062 875.723 649.949 875.723 648.668V648.656C875.723 647.383 875.949 646.266 876.402 645.305C876.863 644.344 877.504 643.594 878.324 643.055C879.152 642.516 880.125 642.246 881.242 642.246C882.359 642.246 883.32 642.504 884.125 643.02C884.93 643.535 885.547 644.258 885.977 645.188C886.414 646.109 886.633 647.184 886.633 648.41V649.172H876.754V647.578H885.613L884.582 649.055V648.258C884.582 647.305 884.438 646.52 884.148 645.902C883.867 645.277 883.473 644.812 882.965 644.508C882.465 644.203 881.887 644.051 881.23 644.051C880.574 644.051 879.984 644.211 879.461 644.531C878.945 644.852 878.539 645.324 878.242 645.949C877.945 646.574 877.797 647.344 877.797 648.258V649.055C877.797 649.922 877.941 650.664 878.23 651.281C878.527 651.891 878.945 652.359 879.484 652.688C880.031 653.016 880.676 653.18 881.418 653.18C881.941 653.18 882.406 653.102 882.812 652.945C883.227 652.789 883.57 652.578 883.844 652.312C884.117 652.039 884.312 651.734 884.43 651.398L884.465 651.293H886.48L886.457 651.41C886.348 651.895 886.152 652.355 885.871 652.793C885.59 653.223 885.227 653.602 884.781 653.93C884.336 654.258 883.824 654.516 883.246 654.703C882.676 654.891 882.051 654.984 881.371 654.984ZM891.93 654.75L887.406 642.48H889.551L892.938 652.57H893.008L896.395 642.48H898.527L894.016 654.75H891.93ZM904.902 654.984C903.73 654.984 902.723 654.727 901.879 654.211C901.035 653.688 900.387 652.953 899.934 652.008C899.48 651.062 899.254 649.949 899.254 648.668V648.656C899.254 647.383 899.48 646.266 899.934 645.305C900.395 644.344 901.035 643.594 901.855 643.055C902.684 642.516 903.656 642.246 904.773 642.246C905.891 642.246 906.852 642.504 907.656 643.02C908.461 643.535 909.078 644.258 909.508 645.188C909.945 646.109 910.164 647.184 910.164 648.41V649.172H900.285V647.578H909.145L908.113 649.055V648.258C908.113 647.305 907.969 646.52 907.68 645.902C907.398 645.277 907.004 644.812 906.496 644.508C905.996 644.203 905.418 644.051 904.762 644.051C904.105 644.051 903.516 644.211 902.992 644.531C902.477 644.852 902.07 645.324 901.773 645.949C901.477 646.574 901.328 647.344 901.328 648.258V649.055C901.328 649.922 901.473 650.664 901.762 651.281C902.059 651.891 902.477 652.359 903.016 652.688C903.562 653.016 904.207 653.18 904.949 653.18C905.473 653.18 905.938 653.102 906.344 652.945C906.758 652.789 907.102 652.578 907.375 652.312C907.648 652.039 907.844 651.734 907.961 651.398L907.996 651.293H910.012L909.988 651.41C909.879 651.895 909.684 652.355 909.402 652.793C909.121 653.223 908.758 653.602 908.312 653.93C907.867 654.258 907.355 654.516 906.777 654.703C906.207 654.891 905.582 654.984 904.902 654.984ZM912.426 654.75V642.48H914.465V644.508H914.535C914.746 643.812 915.109 643.262 915.625 642.855C916.141 642.449 916.754 642.246 917.465 642.246C917.652 642.246 917.82 642.258 917.969 642.281C918.125 642.297 918.246 642.312 918.332 642.328V644.309C918.223 644.277 918.066 644.25 917.863 644.227C917.668 644.203 917.449 644.191 917.207 644.191C916.66 644.191 916.18 644.312 915.766 644.555C915.352 644.789 915.031 645.129 914.805 645.574C914.578 646.02 914.465 646.551 914.465 647.168V654.75H912.426ZM921.59 658.91C921.41 658.91 921.223 658.898 921.027 658.875C920.84 658.859 920.676 658.84 920.535 658.816V657.152C920.629 657.168 920.734 657.184 920.852 657.199C920.977 657.215 921.102 657.223 921.227 657.223C921.867 657.223 922.379 657.102 922.762 656.859C923.145 656.625 923.457 656.16 923.699 655.465L923.934 654.762L919.387 642.48H921.566L925.152 653.285L924.648 652.676H925.316L924.824 653.285L928.41 642.48H930.555L925.762 655.512C925.465 656.316 925.133 656.969 924.766 657.469C924.406 657.969 923.973 658.332 923.465 658.559C922.957 658.793 922.332 658.91 921.59 658.91ZM936.426 654.961C935.277 654.961 934.422 654.695 933.859 654.164C933.305 653.633 933.027 652.781 933.027 651.609V644.168H931.199V642.48H933.027V639.188H935.137V642.48H937.539V644.168H935.137V651.504C935.137 652.176 935.277 652.637 935.559 652.887C935.84 653.129 936.262 653.25 936.824 653.25C936.957 653.25 937.082 653.246 937.199 653.238C937.316 653.223 937.43 653.211 937.539 653.203V654.867C937.398 654.891 937.227 654.91 937.023 654.926C936.828 654.949 936.629 654.961 936.426 654.961ZM939.977 654.75V637.711H942.016V644.414H942.086C942.414 643.734 942.898 643.203 943.539 642.82C944.18 642.438 944.953 642.246 945.859 642.246C946.742 642.246 947.508 642.453 948.156 642.867C948.812 643.273 949.32 643.844 949.68 644.578C950.047 645.312 950.23 646.172 950.23 647.156V654.75H948.191V647.531C948.191 646.422 947.93 645.566 947.406 644.965C946.891 644.355 946.148 644.051 945.18 644.051C944.547 644.051 943.992 644.199 943.516 644.496C943.039 644.793 942.668 645.203 942.402 645.727C942.145 646.25 942.016 646.863 942.016 647.566V654.75H939.977ZM953.137 654.75V642.48H955.176V654.75H953.137ZM954.156 640.348C953.797 640.348 953.488 640.223 953.23 639.973C952.98 639.715 952.855 639.406 952.855 639.047C952.855 638.688 952.98 638.383 953.23 638.133C953.488 637.875 953.797 637.746 954.156 637.746C954.523 637.746 954.832 637.875 955.082 638.133C955.332 638.383 955.457 638.688 955.457 639.047C955.457 639.406 955.332 639.715 955.082 639.973C954.832 640.223 954.523 640.348 954.156 640.348ZM958.152 654.75V642.48H960.191V644.25H960.262C960.59 643.656 961.062 643.176 961.68 642.809C962.305 642.434 963.078 642.246 964 642.246C965.352 642.246 966.398 642.652 967.141 643.465C967.883 644.27 968.254 645.379 968.254 646.793V654.75H966.215V647.18C966.215 646.156 965.98 645.379 965.512 644.848C965.043 644.316 964.336 644.051 963.391 644.051C962.742 644.051 962.176 644.195 961.691 644.484C961.215 644.766 960.844 645.168 960.578 645.691C960.32 646.207 960.191 646.816 960.191 647.52V654.75H958.152ZM976.211 659.109C975.203 659.109 974.324 658.965 973.574 658.676C972.832 658.395 972.23 658.004 971.77 657.504C971.316 657.012 971.027 656.457 970.902 655.84L970.879 655.758H972.941L972.988 655.84C973.168 656.285 973.535 656.641 974.09 656.906C974.645 657.172 975.344 657.305 976.188 657.305C977.266 657.305 978.102 657.031 978.695 656.484C979.297 655.945 979.598 655.203 979.598 654.258V652.523H979.527C979.277 652.977 978.957 653.367 978.566 653.695C978.184 654.023 977.742 654.277 977.242 654.457C976.75 654.637 976.211 654.727 975.625 654.727C974.594 654.727 973.688 654.469 972.906 653.953C972.125 653.43 971.516 652.699 971.078 651.762C970.648 650.824 970.434 649.73 970.434 648.48V648.469C970.434 647.219 970.652 646.129 971.09 645.199C971.535 644.27 972.148 643.547 972.93 643.031C973.719 642.508 974.633 642.246 975.672 642.246C976.258 642.246 976.793 642.344 977.277 642.539C977.762 642.734 978.195 643.004 978.578 643.348C978.961 643.691 979.277 644.09 979.527 644.543H979.586V642.48H981.625V654.445C981.625 655.383 981.406 656.199 980.969 656.895C980.531 657.598 979.906 658.141 979.094 658.523C978.281 658.914 977.32 659.109 976.211 659.109ZM976.07 652.922C976.781 652.922 977.398 652.738 977.922 652.371C978.453 651.996 978.867 651.477 979.164 650.812C979.461 650.148 979.609 649.371 979.609 648.48V648.469C979.609 647.586 979.461 646.812 979.164 646.148C978.867 645.484 978.453 644.969 977.922 644.602C977.398 644.234 976.781 644.051 976.07 644.051C975.344 644.051 974.711 644.234 974.172 644.602C973.641 644.961 973.23 645.473 972.941 646.137C972.66 646.801 972.52 647.578 972.52 648.469V648.48C972.52 649.387 972.66 650.172 972.941 650.836C973.23 651.5 973.641 652.016 974.172 652.383C974.711 652.742 975.344 652.922 976.07 652.922ZM989.746 654.75V642.48H991.785V644.508H991.855C992.066 643.812 992.43 643.262 992.945 642.855C993.461 642.449 994.074 642.246 994.785 642.246C994.973 642.246 995.141 642.258 995.289 642.281C995.445 642.297 995.566 642.312 995.652 642.328V644.309C995.543 644.277 995.387 644.25 995.184 644.227C994.988 644.203 994.77 644.191 994.527 644.191C993.98 644.191 993.5 644.312 993.086 644.555C992.672 644.789 992.352 645.129 992.125 645.574C991.898 646.02 991.785 646.551 991.785 647.168V654.75H989.746ZM1001.96 654.984C1000.79 654.984 999.777 654.727 998.934 654.211C998.09 653.688 997.441 652.953 996.988 652.008C996.535 651.062 996.309 649.949 996.309 648.668V648.656C996.309 647.383 996.535 646.266 996.988 645.305C997.449 644.344 998.09 643.594 998.91 643.055C999.738 642.516 1000.71 642.246 1001.83 642.246C1002.95 642.246 1003.91 642.504 1004.71 643.02C1005.52 643.535 1006.13 644.258 1006.56 645.188C1007 646.109 1007.22 647.184 1007.22 648.41V649.172H997.34V647.578H1006.2L1005.17 649.055V648.258C1005.17 647.305 1005.02 646.52 1004.73 645.902C1004.45 645.277 1004.06 644.812 1003.55 644.508C1003.05 644.203 1002.47 644.051 1001.82 644.051C1001.16 644.051 1000.57 644.211 1000.05 644.531C999.531 644.852 999.125 645.324 998.828 645.949C998.531 646.574 998.383 647.344 998.383 648.258V649.055C998.383 649.922 998.527 650.664 998.816 651.281C999.113 651.891 999.531 652.359 1000.07 652.688C1000.62 653.016 1001.26 653.18 1002 653.18C1002.53 653.18 1002.99 653.102 1003.4 652.945C1003.81 652.789 1004.16 652.578 1004.43 652.312C1004.7 652.039 1004.9 651.734 1005.02 651.398L1005.05 651.293H1007.07L1007.04 651.41C1006.93 651.895 1006.74 652.355 1006.46 652.793C1006.18 653.223 1005.81 653.602 1005.37 653.93C1004.92 654.258 1004.41 654.516 1003.83 654.703C1003.26 654.891 1002.64 654.984 1001.96 654.984ZM1013.02 654.984C1012.22 654.984 1011.52 654.832 1010.9 654.527C1010.28 654.223 1009.8 653.793 1009.46 653.238C1009.11 652.676 1008.94 652.027 1008.94 651.293V651.27C1008.94 650.559 1009.11 649.949 1009.46 649.441C1009.81 648.926 1010.32 648.52 1010.98 648.223C1011.65 647.926 1012.46 647.75 1013.39 647.695L1017.93 647.426V649.02L1013.63 649.289C1012.79 649.336 1012.15 649.531 1011.7 649.875C1011.25 650.219 1011.03 650.68 1011.03 651.258V651.281C1011.03 651.875 1011.25 652.348 1011.7 652.699C1012.15 653.043 1012.74 653.215 1013.48 653.215C1014.12 653.215 1014.71 653.078 1015.22 652.805C1015.74 652.531 1016.15 652.16 1016.45 651.691C1016.76 651.223 1016.91 650.695 1016.91 650.109V646.441C1016.91 645.699 1016.68 645.117 1016.21 644.695C1015.74 644.266 1015.07 644.051 1014.2 644.051C1013.43 644.051 1012.8 644.215 1012.32 644.543C1011.84 644.871 1011.54 645.305 1011.41 645.844L1011.39 645.938H1009.41L1009.42 645.82C1009.49 645.148 1009.73 644.543 1010.12 644.004C1010.53 643.465 1011.08 643.039 1011.78 642.727C1012.47 642.406 1013.29 642.246 1014.24 642.246C1015.21 642.246 1016.05 642.414 1016.75 642.75C1017.45 643.078 1017.99 643.543 1018.38 644.145C1018.76 644.746 1018.95 645.461 1018.95 646.289V654.75H1016.91V652.793H1016.84C1016.6 653.238 1016.28 653.625 1015.89 653.953C1015.5 654.281 1015.06 654.535 1014.58 654.715C1014.09 654.895 1013.57 654.984 1013.02 654.984ZM1026.36 654.984C1025.32 654.984 1024.41 654.723 1023.62 654.199C1022.84 653.676 1022.23 652.938 1021.8 651.984C1021.37 651.023 1021.15 649.902 1021.15 648.621V648.609C1021.15 647.32 1021.37 646.199 1021.81 645.246C1022.25 644.293 1022.85 643.555 1023.62 643.031C1024.4 642.508 1025.3 642.246 1026.33 642.246C1026.91 642.246 1027.45 642.34 1027.94 642.527C1028.44 642.707 1028.88 642.969 1029.27 643.312C1029.67 643.648 1029.99 644.047 1030.23 644.508H1030.3V637.711H1032.34V654.75H1030.3V652.699H1030.23C1029.98 653.176 1029.67 653.582 1029.29 653.918C1028.9 654.254 1028.46 654.516 1027.97 654.703C1027.48 654.891 1026.94 654.984 1026.36 654.984ZM1026.77 653.18C1027.47 653.18 1028.09 652.992 1028.62 652.617C1029.16 652.234 1029.57 651.703 1029.87 651.023C1030.18 650.336 1030.33 649.535 1030.33 648.621V648.609C1030.33 647.688 1030.18 646.887 1029.87 646.207C1029.57 645.527 1029.15 645 1028.62 644.625C1028.09 644.242 1027.47 644.051 1026.77 644.051C1026.04 644.051 1025.41 644.238 1024.88 644.613C1024.36 644.98 1023.95 645.504 1023.66 646.184C1023.38 646.855 1023.24 647.664 1023.24 648.609V648.621C1023.24 649.559 1023.38 650.371 1023.66 651.059C1023.95 651.738 1024.36 652.262 1024.88 652.629C1025.41 652.996 1026.04 653.18 1026.77 653.18ZM1036.48 658.91C1036.3 658.91 1036.11 658.898 1035.92 658.875C1035.73 658.859 1035.57 658.84 1035.43 658.816V657.152C1035.52 657.168 1035.62 657.184 1035.74 657.199C1035.87 657.215 1035.99 657.223 1036.12 657.223C1036.76 657.223 1037.27 657.102 1037.65 656.859C1038.04 656.625 1038.35 656.16 1038.59 655.465L1038.82 654.762L1034.28 642.48H1036.46L1040.04 653.285L1039.54 652.676H1040.21L1039.71 653.285L1043.3 642.48H1045.45L1040.65 655.512C1040.36 656.316 1040.02 656.969 1039.66 657.469C1039.3 657.969 1038.86 658.332 1038.36 658.559C1037.85 658.793 1037.22 658.91 1036.48 658.91ZM1046.83 654.902C1046.45 654.902 1046.12 654.77 1045.86 654.504C1045.59 654.238 1045.46 653.914 1045.46 653.531C1045.46 653.148 1045.59 652.824 1045.86 652.559C1046.12 652.293 1046.45 652.16 1046.83 652.16C1047.21 652.16 1047.54 652.293 1047.8 652.559C1048.07 652.824 1048.2 653.148 1048.2 653.531C1048.2 653.914 1048.07 654.238 1047.8 654.504C1047.54 654.77 1047.21 654.902 1046.83 654.902ZM1052.36 654.902C1051.98 654.902 1051.65 654.77 1051.39 654.504C1051.12 654.238 1050.99 653.914 1050.99 653.531C1050.99 653.148 1051.12 652.824 1051.39 652.559C1051.65 652.293 1051.98 652.16 1052.36 652.16C1052.74 652.16 1053.07 652.293 1053.33 652.559C1053.6 652.824 1053.73 653.148 1053.73 653.531C1053.73 653.914 1053.6 654.238 1053.33 654.504C1053.07 654.77 1052.74 654.902 1052.36 654.902ZM1057.89 654.902C1057.51 654.902 1057.18 654.77 1056.92 654.504C1056.65 654.238 1056.52 653.914 1056.52 653.531C1056.52 653.148 1056.65 652.824 1056.92 652.559C1057.18 652.293 1057.51 652.16 1057.89 652.16C1058.27 652.16 1058.6 652.293 1058.86 652.559C1059.13 652.824 1059.26 653.148 1059.26 653.531C1059.26 653.914 1059.13 654.238 1058.86 654.504C1058.6 654.77 1058.27 654.902 1057.89 654.902Z" fill="#9E9E9E"/>
</g>
<defs>
<filter id="filter0_f_59_2939" x="-869" y="-2197" width="4782" height="5376" filterUnits="userSpaceOnUse" color-interpolation-filters="sRGB">
<feFlood flood-opacity="0" result="BackgroundImageFix"/>
<feBlend mode="normal" in="SourceGraphic" in2="BackgroundImageFix" result="shape"/>
<feGaussianBlur stdDeviation="525" result="effect1_foregroundBlur_59_2939"/>
</filter>
<filter id="filter1_f_59_2939" x="-2180" y="-2602" width="4395" height="4536" filterUnits="userSpaceOnUse" color-interpolation-filters="sRGB">
<feFlood flood-opacity="0" result="BackgroundImageFix"/>
<feBlend mode="normal" in="SourceGraphic" in2="BackgroundImageFix" result="shape"/>
<feGaussianBlur stdDeviation="525" result="effect1_foregroundBlur_59_2939"/>
</filter>
<filter id="filter2_f_59_2939" x="-2240" y="-658" width="4371" height="4230" filterUnits="userSpaceOnUse" color-interpolation-filters="sRGB">
<feFlood flood-opacity="0" result="BackgroundImageFix"/>
<feBlend mode="normal" in="SourceGraphic" in2="BackgroundImageFix" result="shape"/>
<feGaussianBlur stdDeviation="525" result="effect1_foregroundBlur_59_2939"/>
</filter>
<filter id="filter3_f_59_2939" x="1539.13" y="-2259.25" width="4032" height="4689" filterUnits="userSpaceOnUse" color-interpolation-filters="sRGB">
<feFlood flood-opacity="0" result="BackgroundImageFix"/>
<feBlend mode="normal" in="SourceGraphic" in2="BackgroundImageFix" result="shape"/>
<feGaussianBlur stdDeviation="525" result="effect1_foregroundBlur_59_2939"/>
</filter>
<filter id="filter4_f_59_2939" x="-278.871" y="-1905.25" width="4161" height="4449" filterUnits="userSpaceOnUse" color-interpolation-filters="sRGB">
<feFlood flood-opacity="0" result="BackgroundImageFix"/>
<feBlend mode="normal" in="SourceGraphic" in2="BackgroundImageFix" result="shape"/>
<feGaussianBlur stdDeviation="525" result="effect1_foregroundBlur_59_2939"/>
</filter>
<filter id="filter5_f_59_2939" x="1002.13" y="566.748" width="4281" height="3909" filterUnits="userSpaceOnUse" color-interpolation-filters="sRGB">
<feFlood flood-opacity="0" result="BackgroundImageFix"/>
<feBlend mode="normal" in="SourceGraphic" in2="BackgroundImageFix" result="shape"/>
<feGaussianBlur stdDeviation="525" result="effect1_foregroundBlur_59_2939"/>
</filter>
<filter id="filter6_f_59_2939" x="-2141" y="443" width="4356" height="4218" filterUnits="userSpaceOnUse" color-interpolation-filters="sRGB">
<feFlood flood-opacity="0" result="BackgroundImageFix"/>
<feBlend mode="normal" in="SourceGraphic" in2="BackgroundImageFix" result="shape"/>
<feGaussianBlur stdDeviation="525" result="effect1_foregroundBlur_59_2939"/>
</filter>
<clipPath id="clip0_59_2939">
<rect width="1646" height="1084" fill="white"/>
</clipPath>
<clipPath id="clip1_59_2939">
<rect width="4938" height="3252" fill="white" transform="translate(-1646 -1084)"/>
</clipPath>
</defs>
</svg>
