<svg width="1646" height="1084" viewBox="0 0 1646 1084" fill="none" xmlns="http://www.w3.org/2000/svg">
<rect width="1646" height="1033" fill="white"/>
<path d="M72 94L64.4531 71.4531H69.6719L74.8281 89.1719H74.9219L80.0625 71.4531H85.2969L77.75 94H72ZM87.0938 94V77.25H91.6562V94H87.0938ZM89.375 75.0938C88.6875 75.0938 88.1094 74.8594 87.6406 74.3906C87.1719 73.9219 86.9375 73.3646 86.9375 72.7188C86.9375 72.0625 87.1719 71.5052 87.6406 71.0469C88.1094 70.5781 88.6875 70.3438 89.375 70.3438C90.0625 70.3438 90.6406 70.5781 91.1094 71.0469C91.5781 71.5052 91.8125 72.0625 91.8125 72.7188C91.8125 73.3646 91.5781 73.9219 91.1094 74.3906C90.6406 74.8594 90.0625 75.0938 89.375 75.0938ZM104.641 94.3438C103.839 94.3438 103.104 94.2135 102.438 93.9531C101.771 93.6927 101.188 93.3281 100.688 92.8594C100.188 92.3802 99.7865 91.8073 99.4844 91.1406H99.3906V94H94.8281V71.4531H99.3906V80.1562H99.4844C99.7969 79.4792 100.203 78.901 100.703 78.4219C101.203 77.9323 101.786 77.5573 102.453 77.2969C103.13 77.0365 103.865 76.9062 104.656 76.9062C106.062 76.9062 107.271 77.2552 108.281 77.9531C109.302 78.6406 110.089 79.6354 110.641 80.9375C111.193 82.2292 111.469 83.7865 111.469 85.6094V85.625C111.469 87.4375 111.193 88.9948 110.641 90.2969C110.089 91.599 109.302 92.599 108.281 93.2969C107.26 93.9948 106.047 94.3438 104.641 94.3438ZM103.125 90.5625C103.885 90.5625 104.542 90.3646 105.094 89.9688C105.646 89.5625 106.073 88.9896 106.375 88.25C106.677 87.5104 106.828 86.6354 106.828 85.625V85.6094C106.828 84.5885 106.677 83.7135 106.375 82.9844C106.073 82.2448 105.641 81.6771 105.078 81.2812C104.526 80.8854 103.875 80.6875 103.125 80.6875C102.385 80.6875 101.734 80.8906 101.172 81.2969C100.62 81.6927 100.182 82.2604 99.8594 83C99.5469 83.7292 99.3906 84.599 99.3906 85.6094V85.625C99.3906 86.6354 99.5469 87.5104 99.8594 88.25C100.172 88.9896 100.609 89.5625 101.172 89.9688C101.734 90.3646 102.385 90.5625 103.125 90.5625ZM113.812 94V77.25H118.375V80.1719H118.469C118.719 79.1406 119.172 78.3385 119.828 77.7656C120.484 77.1927 121.302 76.9062 122.281 76.9062C122.531 76.9062 122.771 76.9219 123 76.9531C123.229 76.9844 123.427 77.026 123.594 77.0781V81.0938C123.406 81.0208 123.167 80.9635 122.875 80.9219C122.583 80.8698 122.271 80.8438 121.938 80.8438C121.188 80.8438 120.547 80.9896 120.016 81.2812C119.484 81.5729 119.078 82 118.797 82.5625C118.516 83.125 118.375 83.8125 118.375 84.625V94H113.812ZM130.047 94.2656C128.932 94.2656 127.953 94.0521 127.109 93.625C126.266 93.1875 125.604 92.5885 125.125 91.8281C124.656 91.0573 124.422 90.1823 124.422 89.2031V89.1719C124.422 88.151 124.677 87.2812 125.188 86.5625C125.698 85.8333 126.438 85.2604 127.406 84.8438C128.375 84.4271 129.552 84.1719 130.938 84.0781L137.469 83.6719V86.5156L131.625 86.8906C130.75 86.9427 130.083 87.151 129.625 87.5156C129.167 87.8698 128.938 88.3438 128.938 88.9375V88.9688C128.938 89.5833 129.172 90.0677 129.641 90.4219C130.109 90.7656 130.74 90.9375 131.531 90.9375C132.208 90.9375 132.812 90.8073 133.344 90.5469C133.885 90.276 134.307 89.9115 134.609 89.4531C134.922 88.9844 135.078 88.4583 135.078 87.875V82.7969C135.078 82.0573 134.844 81.474 134.375 81.0469C133.906 80.6094 133.224 80.3906 132.328 80.3906C131.474 80.3906 130.797 80.5677 130.297 80.9219C129.797 81.276 129.49 81.724 129.375 82.2656L129.344 82.4062H125.172L125.188 82.2188C125.271 81.1875 125.609 80.2708 126.203 79.4688C126.807 78.6667 127.641 78.0417 128.703 77.5938C129.776 77.1354 131.047 76.9062 132.516 76.9062C133.964 76.9062 135.219 77.1406 136.281 77.6094C137.344 78.0677 138.167 78.7188 138.75 79.5625C139.344 80.4062 139.641 81.3906 139.641 82.5156V94H135.078V91.5H134.984C134.672 92.0729 134.266 92.5677 133.766 92.9844C133.276 93.3906 132.719 93.7083 132.094 93.9375C131.469 94.1562 130.786 94.2656 130.047 94.2656ZM142.594 94V77.25H147.156V80H147.25C147.688 79.0417 148.333 78.2865 149.188 77.7344C150.042 77.1823 151.099 76.9062 152.359 76.9062C154.203 76.9062 155.625 77.4635 156.625 78.5781C157.635 79.6823 158.141 81.2188 158.141 83.1875V94H153.578V84.125C153.578 83.0312 153.318 82.1875 152.797 81.5938C152.286 80.9896 151.521 80.6875 150.5 80.6875C149.823 80.6875 149.234 80.8438 148.734 81.1562C148.234 81.4583 147.844 81.8854 147.562 82.4375C147.292 82.9896 147.156 83.6354 147.156 84.375V94H142.594ZM167.688 94.3438C165.833 94.3438 164.458 93.9531 163.562 93.1719C162.667 92.3906 162.219 91.1042 162.219 89.3125V80.6875H159.891V77.25H162.219V73.1562H166.828V77.25H169.891V80.6875H166.828V88.8125C166.828 89.5938 167 90.1406 167.344 90.4531C167.698 90.7552 168.219 90.9062 168.906 90.9062C169.115 90.9062 169.297 90.901 169.453 90.8906C169.609 90.8698 169.755 90.849 169.891 90.8281V94.1719C169.641 94.2135 169.328 94.25 168.953 94.2812C168.589 94.3229 168.167 94.3438 167.688 94.3438ZM187.375 94.3906C185.594 94.3906 184.036 94.1302 182.703 93.6094C181.38 93.0781 180.339 92.3229 179.578 91.3438C178.818 90.3542 178.391 89.1667 178.297 87.7812L178.281 87.5312H182.734L182.766 87.7031C182.87 88.2865 183.13 88.7917 183.547 89.2188C183.974 89.6354 184.526 89.9635 185.203 90.2031C185.88 90.4323 186.646 90.5469 187.5 90.5469C188.375 90.5469 189.125 90.4323 189.75 90.2031C190.385 89.9635 190.875 89.6302 191.219 89.2031C191.573 88.7656 191.75 88.2604 191.75 87.6875V87.6719C191.75 86.9115 191.448 86.3177 190.844 85.8906C190.25 85.4531 189.25 85.0885 187.844 84.7969L185.469 84.3281C183.25 83.8802 181.578 83.125 180.453 82.0625C179.328 81 178.766 79.6198 178.766 77.9219V77.9062C178.766 76.5312 179.135 75.3333 179.875 74.3125C180.615 73.2812 181.63 72.4844 182.922 71.9219C184.214 71.349 185.693 71.0625 187.359 71.0625C189.099 71.0625 190.599 71.3333 191.859 71.875C193.13 72.4167 194.12 73.1823 194.828 74.1719C195.536 75.1615 195.927 76.3125 196 77.625L196.016 77.9219H191.562L191.547 77.7344C191.464 77.1406 191.24 76.6354 190.875 76.2188C190.51 75.7917 190.026 75.4635 189.422 75.2344C188.828 75.0052 188.141 74.8906 187.359 74.8906C186.557 74.8906 185.865 75.0104 185.281 75.25C184.698 75.4792 184.25 75.7969 183.938 76.2031C183.635 76.6094 183.484 77.0833 183.484 77.625V77.6406C183.484 78.349 183.786 78.9219 184.391 79.3594C184.995 79.7969 185.943 80.1458 187.234 80.4062L189.625 80.8906C191.198 81.2031 192.49 81.6354 193.5 82.1875C194.51 82.7396 195.255 83.4375 195.734 84.2812C196.224 85.1146 196.469 86.1198 196.469 87.2969V87.3125C196.469 88.7604 196.104 90.0156 195.375 91.0781C194.656 92.1302 193.615 92.9479 192.25 93.5312C190.896 94.1042 189.271 94.3906 187.375 94.3906ZM204.672 94.3438C203.443 94.3438 202.396 94.0938 201.531 93.5938C200.677 93.0833 200.021 92.3594 199.562 91.4219C199.115 90.4844 198.891 89.3646 198.891 88.0625V77.25H203.453V87.1094C203.453 88.2031 203.708 89.0521 204.219 89.6562C204.74 90.2604 205.51 90.5625 206.531 90.5625C207.042 90.5625 207.5 90.474 207.906 90.2969C208.323 90.1198 208.677 89.8698 208.969 89.5469C209.26 89.2135 209.484 88.8229 209.641 88.375C209.797 87.9167 209.875 87.4167 209.875 86.875V77.25H214.438V94H209.875V91.2344H209.781C209.49 91.8698 209.104 92.4219 208.625 92.8906C208.156 93.3594 207.589 93.7188 206.922 93.9688C206.266 94.2188 205.516 94.3438 204.672 94.3438ZM217.406 94V77.25H221.969V80H222.062C222.5 79.0417 223.146 78.2865 224 77.7344C224.854 77.1823 225.911 76.9062 227.172 76.9062C229.016 76.9062 230.438 77.4635 231.438 78.5781C232.448 79.6823 232.953 81.2188 232.953 83.1875V94H228.391V84.125C228.391 83.0312 228.13 82.1875 227.609 81.5938C227.099 80.9896 226.333 80.6875 225.312 80.6875C224.635 80.6875 224.047 80.8438 223.547 81.1562C223.047 81.4583 222.656 81.8854 222.375 82.4375C222.104 82.9896 221.969 83.6354 221.969 84.375V94H217.406ZM242.734 94.3438C241.193 94.3438 239.88 94.1198 238.797 93.6719C237.714 93.224 236.865 92.6042 236.25 91.8125C235.646 91.0104 235.281 90.0833 235.156 89.0312L235.141 88.8906H239.594L239.625 89.0312C239.771 89.6875 240.099 90.1979 240.609 90.5625C241.12 90.9271 241.828 91.1094 242.734 91.1094C243.318 91.1094 243.812 91.0417 244.219 90.9062C244.625 90.7604 244.938 90.5573 245.156 90.2969C245.385 90.0365 245.5 89.724 245.5 89.3594V89.3438C245.5 88.8958 245.339 88.5365 245.016 88.2656C244.693 87.9948 244.12 87.7656 243.297 87.5781L240.453 86.9844C239.37 86.7552 238.464 86.4271 237.734 86C237.016 85.5625 236.474 85.026 236.109 84.3906C235.745 83.7448 235.562 83.0052 235.562 82.1719V82.1562C235.562 81.0833 235.849 80.1562 236.422 79.375C236.995 78.5938 237.807 77.9896 238.859 77.5625C239.922 77.125 241.161 76.9062 242.578 76.9062C244.057 76.9062 245.312 77.1458 246.344 77.625C247.385 78.0938 248.182 78.7292 248.734 79.5312C249.297 80.3333 249.594 81.224 249.625 82.2031V82.3594H245.422L245.406 82.2344C245.333 81.6302 245.052 81.1302 244.562 80.7344C244.083 80.3281 243.422 80.125 242.578 80.125C242.057 80.125 241.604 80.1979 241.219 80.3438C240.833 80.4896 240.536 80.6979 240.328 80.9688C240.12 81.2292 240.016 81.5417 240.016 81.9062V81.9219C240.016 82.2031 240.083 82.4583 240.219 82.6875C240.365 82.9062 240.604 83.099 240.938 83.2656C241.271 83.4323 241.719 83.5781 242.281 83.7031L245.125 84.3125C246.885 84.6771 248.146 85.224 248.906 85.9531C249.677 86.6823 250.062 87.6615 250.062 88.8906V88.9062C250.062 90 249.75 90.9531 249.125 91.7656C248.5 92.5781 247.635 93.2135 246.531 93.6719C245.438 94.1198 244.172 94.3438 242.734 94.3438ZM259.938 94.3438C258.229 94.3438 256.76 93.9948 255.531 93.2969C254.302 92.5885 253.354 91.5833 252.688 90.2812C252.031 88.9792 251.703 87.4375 251.703 85.6562V85.6406C251.703 83.8594 252.031 82.3177 252.688 81.0156C253.354 79.7031 254.286 78.6927 255.484 77.9844C256.693 77.2656 258.115 76.9062 259.75 76.9062C261.385 76.9062 262.797 77.2552 263.984 77.9531C265.182 78.6406 266.104 79.6146 266.75 80.875C267.406 82.1354 267.734 83.6094 267.734 85.2969V86.7031H253.938V83.8281H265.578L263.406 86.5156V84.7656C263.406 83.7865 263.255 82.9688 262.953 82.3125C262.651 81.6458 262.229 81.1458 261.688 80.8125C261.156 80.4792 260.536 80.3125 259.828 80.3125C259.12 80.3125 258.49 80.4844 257.938 80.8281C257.396 81.1719 256.969 81.6771 256.656 82.3438C256.354 83 256.203 83.8073 256.203 84.7656V86.5312C256.203 87.4583 256.354 88.25 256.656 88.9062C256.969 89.5625 257.411 90.0677 257.984 90.4219C258.557 90.7656 259.24 90.9375 260.031 90.9375C260.656 90.9375 261.198 90.8385 261.656 90.6406C262.115 90.4427 262.49 90.1927 262.781 89.8906C263.073 89.5885 263.271 89.2812 263.375 88.9688L263.406 88.875H267.594L267.547 89.0469C267.422 89.6615 267.177 90.2812 266.812 90.9062C266.448 91.5312 265.953 92.1042 265.328 92.625C264.714 93.1458 263.958 93.5625 263.062 93.875C262.177 94.1875 261.135 94.3438 259.938 94.3438ZM276.75 94.3438C274.896 94.3438 273.521 93.9531 272.625 93.1719C271.729 92.3906 271.281 91.1042 271.281 89.3125V80.6875H268.953V77.25H271.281V73.1562H275.891V77.25H278.953V80.6875H275.891V88.8125C275.891 89.5938 276.062 90.1406 276.406 90.4531C276.76 90.7552 277.281 90.9062 277.969 90.9062C278.177 90.9062 278.359 90.901 278.516 90.8906C278.672 90.8698 278.818 90.849 278.953 90.8281V94.1719C278.703 94.2135 278.391 94.25 278.016 94.2812C277.651 94.3229 277.229 94.3438 276.75 94.3438Z" fill="black"/>
<path d="M66.3203 136.977V135.727H69.5078C70.3151 135.727 70.9401 135.518 71.3828 135.102C71.8255 134.68 72.0469 134.099 72.0469 133.359V133.344C72.0469 132.599 71.8255 132.018 71.3828 131.602C70.9401 131.185 70.3151 130.977 69.5078 130.977H66.3203V129.727H69.8672C70.5755 129.727 71.2005 129.878 71.7422 130.18C72.2839 130.482 72.7083 130.904 73.0156 131.445C73.3281 131.987 73.4844 132.615 73.4844 133.328V133.344C73.4844 134.057 73.3281 134.688 73.0156 135.234C72.7083 135.781 72.2839 136.208 71.7422 136.516C71.2005 136.823 70.5755 136.977 69.8672 136.977H66.3203ZM65.6172 141V129.727H67.0234V141H65.6172ZM75.6172 141V132.578H76.9766V133.828H77.1016C77.263 133.385 77.5365 133.042 77.9219 132.797C78.3073 132.552 78.7839 132.43 79.3516 132.43C79.4818 132.43 79.6094 132.438 79.7344 132.453C79.8646 132.464 79.9635 132.474 80.0312 132.484V133.805C79.8906 133.779 79.7526 133.76 79.6172 133.75C79.487 133.734 79.3464 133.727 79.1953 133.727C78.763 133.727 78.3802 133.812 78.0469 133.984C77.7135 134.156 77.4505 134.396 77.2578 134.703C77.0703 135.01 76.9766 135.37 76.9766 135.781V141H75.6172ZM84.9141 141.148C84.112 141.148 83.4219 140.971 82.8438 140.617C82.2708 140.263 81.8281 139.763 81.5156 139.117C81.2083 138.466 81.0547 137.701 81.0547 136.82V136.812C81.0547 135.943 81.2083 135.18 81.5156 134.523C81.8281 133.867 82.2682 133.354 82.8359 132.984C83.4036 132.615 84.0677 132.43 84.8281 132.43C85.5938 132.43 86.25 132.607 86.7969 132.961C87.349 133.315 87.7708 133.81 88.0625 134.445C88.3594 135.076 88.5078 135.81 88.5078 136.648V137.18H81.7578V136.094H87.8125L87.1406 137.086V136.547C87.1406 135.885 87.0417 135.341 86.8438 134.914C86.6458 134.487 86.3724 134.169 86.0234 133.961C85.6745 133.747 85.2734 133.641 84.8203 133.641C84.3672 133.641 83.9609 133.753 83.6016 133.977C83.2474 134.195 82.9661 134.521 82.7578 134.953C82.5495 135.385 82.4453 135.917 82.4453 136.547V137.086C82.4453 137.685 82.5469 138.198 82.75 138.625C82.9531 139.047 83.2422 139.372 83.6172 139.602C83.9922 139.826 84.4349 139.938 84.9453 139.938C85.3255 139.938 85.6562 139.885 85.9375 139.781C86.2188 139.677 86.4505 139.544 86.6328 139.383C86.8151 139.221 86.9427 139.057 87.0156 138.891L87.0469 138.82H88.4062L88.3906 138.883C88.3177 139.169 88.1875 139.448 88 139.719C87.8177 139.984 87.5807 140.227 87.2891 140.445C86.9974 140.659 86.651 140.831 86.25 140.961C85.8542 141.086 85.4089 141.148 84.9141 141.148ZM93.5078 141.148C92.8828 141.148 92.3307 141.055 91.8516 140.867C91.3724 140.674 90.987 140.406 90.6953 140.062C90.4089 139.719 90.2396 139.315 90.1875 138.852H91.5781C91.6927 139.201 91.9167 139.482 92.25 139.695C92.5833 139.909 93.0182 140.016 93.5547 140.016C93.9349 140.016 94.2682 139.961 94.5547 139.852C94.8464 139.737 95.0755 139.583 95.2422 139.391C95.4089 139.193 95.4922 138.966 95.4922 138.711V138.695C95.4922 138.409 95.3776 138.167 95.1484 137.969C94.9193 137.766 94.5443 137.602 94.0234 137.477L92.7188 137.164C92.1927 137.039 91.7604 136.878 91.4219 136.68C91.0833 136.477 90.8333 136.229 90.6719 135.938C90.5104 135.641 90.4297 135.292 90.4297 134.891V134.883C90.4297 134.414 90.5651 133.995 90.8359 133.625C91.112 133.255 91.487 132.964 91.9609 132.75C92.4349 132.536 92.9688 132.43 93.5625 132.43C94.151 132.43 94.6719 132.523 95.125 132.711C95.5833 132.893 95.9505 133.154 96.2266 133.492C96.5078 133.831 96.6797 134.229 96.7422 134.688H95.4062C95.3177 134.354 95.1146 134.083 94.7969 133.875C94.4792 133.667 94.0651 133.562 93.5547 133.562C93.2214 133.562 92.9245 133.617 92.6641 133.727C92.4036 133.831 92.1979 133.977 92.0469 134.164C91.8958 134.352 91.8203 134.57 91.8203 134.82V134.836C91.8203 135.023 91.8698 135.19 91.9688 135.336C92.0677 135.482 92.2214 135.609 92.4297 135.719C92.638 135.828 92.9062 135.924 93.2344 136.008L94.5312 136.32C95.3229 136.513 95.9115 136.789 96.2969 137.148C96.6875 137.508 96.8828 137.99 96.8828 138.594V138.609C96.8828 139.109 96.7344 139.552 96.4375 139.938C96.1406 140.318 95.737 140.615 95.2266 140.828C94.7214 141.042 94.1484 141.148 93.5078 141.148ZM101.727 141.148C101.102 141.148 100.549 141.055 100.07 140.867C99.5911 140.674 99.2057 140.406 98.9141 140.062C98.6276 139.719 98.4583 139.315 98.4062 138.852H99.7969C99.9115 139.201 100.135 139.482 100.469 139.695C100.802 139.909 101.237 140.016 101.773 140.016C102.154 140.016 102.487 139.961 102.773 139.852C103.065 139.737 103.294 139.583 103.461 139.391C103.628 139.193 103.711 138.966 103.711 138.711V138.695C103.711 138.409 103.596 138.167 103.367 137.969C103.138 137.766 102.763 137.602 102.242 137.477L100.938 137.164C100.411 137.039 99.9792 136.878 99.6406 136.68C99.3021 136.477 99.0521 136.229 98.8906 135.938C98.7292 135.641 98.6484 135.292 98.6484 134.891V134.883C98.6484 134.414 98.7839 133.995 99.0547 133.625C99.3307 133.255 99.7057 132.964 100.18 132.75C100.654 132.536 101.188 132.43 101.781 132.43C102.37 132.43 102.891 132.523 103.344 132.711C103.802 132.893 104.169 133.154 104.445 133.492C104.727 133.831 104.898 134.229 104.961 134.688H103.625C103.536 134.354 103.333 134.083 103.016 133.875C102.698 133.667 102.284 133.562 101.773 133.562C101.44 133.562 101.143 133.617 100.883 133.727C100.622 133.831 100.417 133.977 100.266 134.164C100.115 134.352 100.039 134.57 100.039 134.82V134.836C100.039 135.023 100.089 135.19 100.188 135.336C100.286 135.482 100.44 135.609 100.648 135.719C100.857 135.828 101.125 135.924 101.453 136.008L102.75 136.32C103.542 136.513 104.13 136.789 104.516 137.148C104.906 137.508 105.102 137.99 105.102 138.594V138.609C105.102 139.109 104.953 139.552 104.656 139.938C104.359 140.318 103.956 140.615 103.445 140.828C102.94 141.042 102.367 141.148 101.727 141.148ZM114.703 141.062C113.839 141.062 113.211 140.888 112.82 140.539C112.435 140.19 112.242 139.615 112.242 138.812V133.703H110.914V132.578H112.242V130.398H113.648V132.578H115.492V133.703H113.648V138.469C113.648 138.964 113.742 139.32 113.93 139.539C114.117 139.753 114.43 139.859 114.867 139.859C114.987 139.859 115.089 139.857 115.172 139.852C115.26 139.846 115.367 139.839 115.492 139.828V140.984C115.362 141.005 115.232 141.023 115.102 141.039C114.971 141.055 114.839 141.062 114.703 141.062ZM117.602 141V129.234H118.961V133.844H119.086C119.299 133.396 119.607 133.049 120.008 132.805C120.409 132.555 120.919 132.43 121.539 132.43C122.169 132.43 122.703 132.552 123.141 132.797C123.578 133.036 123.911 133.388 124.141 133.852C124.37 134.315 124.484 134.88 124.484 135.547V141H123.125V135.875C123.125 135.115 122.964 134.552 122.641 134.188C122.323 133.818 121.828 133.633 121.156 133.633C120.708 133.633 120.32 133.729 119.992 133.922C119.664 134.115 119.409 134.388 119.227 134.742C119.049 135.096 118.961 135.521 118.961 136.016V141H117.602ZM130.383 141.148C129.581 141.148 128.891 140.971 128.312 140.617C127.74 140.263 127.297 139.763 126.984 139.117C126.677 138.466 126.523 137.701 126.523 136.82V136.812C126.523 135.943 126.677 135.18 126.984 134.523C127.297 133.867 127.737 133.354 128.305 132.984C128.872 132.615 129.536 132.43 130.297 132.43C131.062 132.43 131.719 132.607 132.266 132.961C132.818 133.315 133.24 133.81 133.531 134.445C133.828 135.076 133.977 135.81 133.977 136.648V137.18H127.227V136.094H133.281L132.609 137.086V136.547C132.609 135.885 132.51 135.341 132.312 134.914C132.115 134.487 131.841 134.169 131.492 133.961C131.143 133.747 130.742 133.641 130.289 133.641C129.836 133.641 129.43 133.753 129.07 133.977C128.716 134.195 128.435 134.521 128.227 134.953C128.018 135.385 127.914 135.917 127.914 136.547V137.086C127.914 137.685 128.016 138.198 128.219 138.625C128.422 139.047 128.711 139.372 129.086 139.602C129.461 139.826 129.904 139.938 130.414 139.938C130.794 139.938 131.125 139.885 131.406 139.781C131.688 139.677 131.919 139.544 132.102 139.383C132.284 139.221 132.411 139.057 132.484 138.891L132.516 138.82H133.875L133.859 138.883C133.786 139.169 133.656 139.448 133.469 139.719C133.286 139.984 133.049 140.227 132.758 140.445C132.466 140.659 132.12 140.831 131.719 140.961C131.323 141.086 130.878 141.148 130.383 141.148ZM143.477 141.148C142.852 141.148 142.299 141.055 141.82 140.867C141.341 140.674 140.956 140.406 140.664 140.062C140.378 139.719 140.208 139.315 140.156 138.852H141.547C141.661 139.201 141.885 139.482 142.219 139.695C142.552 139.909 142.987 140.016 143.523 140.016C143.904 140.016 144.237 139.961 144.523 139.852C144.815 139.737 145.044 139.583 145.211 139.391C145.378 139.193 145.461 138.966 145.461 138.711V138.695C145.461 138.409 145.346 138.167 145.117 137.969C144.888 137.766 144.513 137.602 143.992 137.477L142.688 137.164C142.161 137.039 141.729 136.878 141.391 136.68C141.052 136.477 140.802 136.229 140.641 135.938C140.479 135.641 140.398 135.292 140.398 134.891V134.883C140.398 134.414 140.534 133.995 140.805 133.625C141.081 133.255 141.456 132.964 141.93 132.75C142.404 132.536 142.938 132.43 143.531 132.43C144.12 132.43 144.641 132.523 145.094 132.711C145.552 132.893 145.919 133.154 146.195 133.492C146.477 133.831 146.648 134.229 146.711 134.688H145.375C145.286 134.354 145.083 134.083 144.766 133.875C144.448 133.667 144.034 133.562 143.523 133.562C143.19 133.562 142.893 133.617 142.633 133.727C142.372 133.831 142.167 133.977 142.016 134.164C141.865 134.352 141.789 134.57 141.789 134.82V134.836C141.789 135.023 141.839 135.19 141.938 135.336C142.036 135.482 142.19 135.609 142.398 135.719C142.607 135.828 142.875 135.924 143.203 136.008L144.5 136.32C145.292 136.513 145.88 136.789 146.266 137.148C146.656 137.508 146.852 137.99 146.852 138.594V138.609C146.852 139.109 146.703 139.552 146.406 139.938C146.109 140.318 145.706 140.615 145.195 140.828C144.69 141.042 144.117 141.148 143.477 141.148ZM148.961 143.812V132.578H150.32V133.922H150.445C150.617 133.609 150.833 133.344 151.094 133.125C151.354 132.901 151.651 132.729 151.984 132.609C152.318 132.49 152.68 132.43 153.07 132.43C153.784 132.43 154.404 132.612 154.93 132.977C155.461 133.336 155.872 133.841 156.164 134.492C156.456 135.143 156.602 135.906 156.602 136.781V136.797C156.602 137.677 156.456 138.443 156.164 139.094C155.872 139.745 155.461 140.25 154.93 140.609C154.404 140.969 153.784 141.148 153.07 141.148C152.685 141.148 152.32 141.089 151.977 140.969C151.638 140.844 151.336 140.672 151.07 140.453C150.81 140.234 150.602 139.974 150.445 139.672H150.32V143.812H148.961ZM152.758 139.945C153.273 139.945 153.714 139.82 154.078 139.57C154.443 139.315 154.721 138.953 154.914 138.484C155.112 138.01 155.211 137.448 155.211 136.797V136.781C155.211 136.125 155.112 135.562 154.914 135.094C154.721 134.625 154.443 134.266 154.078 134.016C153.714 133.76 153.273 133.633 152.758 133.633C152.247 133.633 151.807 133.76 151.438 134.016C151.068 134.271 150.784 134.633 150.586 135.102C150.388 135.57 150.289 136.13 150.289 136.781V136.797C150.289 137.443 150.388 138.003 150.586 138.477C150.784 138.945 151.068 139.307 151.438 139.562C151.807 139.818 152.247 139.945 152.758 139.945ZM161.039 141.148C160.508 141.148 160.029 141.047 159.602 140.844C159.18 140.641 158.844 140.352 158.594 139.977C158.349 139.602 158.227 139.159 158.227 138.648V138.633C158.227 138.133 158.346 137.706 158.586 137.352C158.826 136.992 159.174 136.711 159.633 136.508C160.091 136.305 160.646 136.185 161.297 136.148L164.391 135.961V137.047L161.461 137.234C160.82 137.271 160.352 137.404 160.055 137.633C159.763 137.862 159.617 138.185 159.617 138.602V138.617C159.617 139.044 159.779 139.378 160.102 139.617C160.424 139.852 160.831 139.969 161.32 139.969C161.784 139.969 162.195 139.878 162.555 139.695C162.914 139.508 163.195 139.255 163.398 138.938C163.607 138.62 163.711 138.26 163.711 137.859V135.234C163.711 134.714 163.552 134.318 163.234 134.047C162.922 133.771 162.451 133.633 161.82 133.633C161.315 133.633 160.901 133.724 160.578 133.906C160.255 134.083 160.039 134.336 159.93 134.664L159.922 134.688H158.562L158.57 134.641C158.643 134.198 158.826 133.812 159.117 133.484C159.414 133.151 159.797 132.893 160.266 132.711C160.734 132.523 161.268 132.43 161.867 132.43C162.555 132.43 163.135 132.542 163.609 132.766C164.089 132.99 164.451 133.312 164.695 133.734C164.945 134.151 165.07 134.651 165.07 135.234V141H163.711V139.758H163.586C163.409 140.055 163.193 140.307 162.938 140.516C162.688 140.724 162.404 140.883 162.086 140.992C161.768 141.096 161.419 141.148 161.039 141.148ZM171 141.148C170.214 141.148 169.531 140.969 168.953 140.609C168.375 140.25 167.927 139.742 167.609 139.086C167.292 138.43 167.133 137.656 167.133 136.766V136.75C167.133 135.875 167.289 135.115 167.602 134.469C167.919 133.823 168.367 133.323 168.945 132.969C169.523 132.609 170.206 132.43 170.992 132.43C171.674 132.43 172.263 132.549 172.758 132.789C173.253 133.029 173.648 133.352 173.945 133.758C174.242 134.159 174.432 134.609 174.516 135.109L174.523 135.156H173.172L173.164 135.133C173.06 134.716 172.823 134.362 172.453 134.07C172.083 133.779 171.596 133.633 170.992 133.633C170.487 133.633 170.049 133.76 169.68 134.016C169.31 134.271 169.023 134.633 168.82 135.102C168.622 135.565 168.523 136.115 168.523 136.75V136.766C168.523 137.411 168.625 137.974 168.828 138.453C169.031 138.927 169.318 139.294 169.688 139.555C170.057 139.815 170.492 139.945 170.992 139.945C171.56 139.945 172.023 139.823 172.383 139.578C172.742 139.333 173 138.977 173.156 138.508L173.172 138.461L174.516 138.453L174.5 138.539C174.385 139.044 174.182 139.495 173.891 139.891C173.599 140.281 173.214 140.589 172.734 140.812C172.255 141.036 171.677 141.148 171 141.148ZM179.945 141.148C179.143 141.148 178.453 140.971 177.875 140.617C177.302 140.263 176.859 139.763 176.547 139.117C176.24 138.466 176.086 137.701 176.086 136.82V136.812C176.086 135.943 176.24 135.18 176.547 134.523C176.859 133.867 177.299 133.354 177.867 132.984C178.435 132.615 179.099 132.43 179.859 132.43C180.625 132.43 181.281 132.607 181.828 132.961C182.38 133.315 182.802 133.81 183.094 134.445C183.391 135.076 183.539 135.81 183.539 136.648V137.18H176.789V136.094H182.844L182.172 137.086V136.547C182.172 135.885 182.073 135.341 181.875 134.914C181.677 134.487 181.404 134.169 181.055 133.961C180.706 133.747 180.305 133.641 179.852 133.641C179.398 133.641 178.992 133.753 178.633 133.977C178.279 134.195 177.997 134.521 177.789 134.953C177.581 135.385 177.477 135.917 177.477 136.547V137.086C177.477 137.685 177.578 138.198 177.781 138.625C177.984 139.047 178.273 139.372 178.648 139.602C179.023 139.826 179.466 139.938 179.977 139.938C180.357 139.938 180.688 139.885 180.969 139.781C181.25 139.677 181.482 139.544 181.664 139.383C181.846 139.221 181.974 139.057 182.047 138.891L182.078 138.82H183.438L183.422 138.883C183.349 139.169 183.219 139.448 183.031 139.719C182.849 139.984 182.612 140.227 182.32 140.445C182.029 140.659 181.682 140.831 181.281 140.961C180.885 141.086 180.44 141.148 179.945 141.148ZM189.836 141.148C189.445 141.148 189.083 141.089 188.75 140.969C188.417 140.849 188.12 140.68 187.859 140.461C187.599 140.237 187.383 139.969 187.211 139.656H187.086V141H185.727V129.234H187.086V133.906H187.211C187.367 133.604 187.576 133.344 187.836 133.125C188.102 132.906 188.404 132.737 188.742 132.617C189.086 132.492 189.451 132.43 189.836 132.43C190.549 132.43 191.169 132.609 191.695 132.969C192.227 133.328 192.638 133.833 192.93 134.484C193.221 135.135 193.367 135.901 193.367 136.781V136.797C193.367 137.672 193.221 138.438 192.93 139.094C192.638 139.745 192.227 140.25 191.695 140.609C191.169 140.969 190.549 141.148 189.836 141.148ZM189.523 139.945C190.039 139.945 190.479 139.82 190.844 139.57C191.208 139.315 191.487 138.953 191.68 138.484C191.878 138.01 191.977 137.448 191.977 136.797V136.781C191.977 136.125 191.878 135.562 191.68 135.094C191.487 134.625 191.208 134.266 190.844 134.016C190.479 133.76 190.039 133.633 189.523 133.633C189.013 133.633 188.573 133.76 188.203 134.016C187.833 134.271 187.549 134.633 187.352 135.102C187.154 135.57 187.055 136.13 187.055 136.781V136.797C187.055 137.443 187.154 138.003 187.352 138.477C187.549 138.945 187.833 139.307 188.203 139.562C188.573 139.818 189.013 139.945 189.523 139.945ZM197.789 141.148C197.258 141.148 196.779 141.047 196.352 140.844C195.93 140.641 195.594 140.352 195.344 139.977C195.099 139.602 194.977 139.159 194.977 138.648V138.633C194.977 138.133 195.096 137.706 195.336 137.352C195.576 136.992 195.924 136.711 196.383 136.508C196.841 136.305 197.396 136.185 198.047 136.148L201.141 135.961V137.047L198.211 137.234C197.57 137.271 197.102 137.404 196.805 137.633C196.513 137.862 196.367 138.185 196.367 138.602V138.617C196.367 139.044 196.529 139.378 196.852 139.617C197.174 139.852 197.581 139.969 198.07 139.969C198.534 139.969 198.945 139.878 199.305 139.695C199.664 139.508 199.945 139.255 200.148 138.938C200.357 138.62 200.461 138.26 200.461 137.859V135.234C200.461 134.714 200.302 134.318 199.984 134.047C199.672 133.771 199.201 133.633 198.57 133.633C198.065 133.633 197.651 133.724 197.328 133.906C197.005 134.083 196.789 134.336 196.68 134.664L196.672 134.688H195.312L195.32 134.641C195.393 134.198 195.576 133.812 195.867 133.484C196.164 133.151 196.547 132.893 197.016 132.711C197.484 132.523 198.018 132.43 198.617 132.43C199.305 132.43 199.885 132.542 200.359 132.766C200.839 132.99 201.201 133.312 201.445 133.734C201.695 134.151 201.82 134.651 201.82 135.234V141H200.461V139.758H200.336C200.159 140.055 199.943 140.307 199.688 140.516C199.438 140.724 199.154 140.883 198.836 140.992C198.518 141.096 198.169 141.148 197.789 141.148ZM204.305 141V132.578H205.664V133.828H205.789C205.951 133.385 206.224 133.042 206.609 132.797C206.995 132.552 207.471 132.43 208.039 132.43C208.169 132.43 208.297 132.438 208.422 132.453C208.552 132.464 208.651 132.474 208.719 132.484V133.805C208.578 133.779 208.44 133.76 208.305 133.75C208.174 133.734 208.034 133.727 207.883 133.727C207.451 133.727 207.068 133.812 206.734 133.984C206.401 134.156 206.138 134.396 205.945 134.703C205.758 135.01 205.664 135.37 205.664 135.781V141H204.305ZM217.891 141.062C217.026 141.062 216.398 140.888 216.008 140.539C215.622 140.19 215.43 139.615 215.43 138.812V133.703H214.102V132.578H215.43V130.398H216.836V132.578H218.68V133.703H216.836V138.469C216.836 138.964 216.93 139.32 217.117 139.539C217.305 139.753 217.617 139.859 218.055 139.859C218.174 139.859 218.276 139.857 218.359 139.852C218.448 139.846 218.555 139.839 218.68 139.828V140.984C218.549 141.005 218.419 141.023 218.289 141.039C218.159 141.055 218.026 141.062 217.891 141.062ZM224.062 141.148C223.266 141.148 222.576 140.974 221.992 140.625C221.414 140.271 220.966 139.768 220.648 139.117C220.336 138.466 220.18 137.693 220.18 136.797V136.781C220.18 135.88 220.336 135.104 220.648 134.453C220.966 133.802 221.414 133.302 221.992 132.953C222.576 132.604 223.266 132.43 224.062 132.43C224.865 132.43 225.555 132.604 226.133 132.953C226.711 133.302 227.156 133.802 227.469 134.453C227.786 135.104 227.945 135.88 227.945 136.781V136.797C227.945 137.693 227.786 138.466 227.469 139.117C227.156 139.768 226.711 140.271 226.133 140.625C225.555 140.974 224.865 141.148 224.062 141.148ZM224.062 139.945C224.594 139.945 225.044 139.82 225.414 139.57C225.784 139.32 226.065 138.961 226.258 138.492C226.456 138.023 226.555 137.458 226.555 136.797V136.781C226.555 136.115 226.456 135.547 226.258 135.078C226.065 134.609 225.784 134.253 225.414 134.008C225.044 133.758 224.594 133.633 224.062 133.633C223.531 133.633 223.081 133.758 222.711 134.008C222.341 134.253 222.057 134.609 221.859 135.078C221.667 135.547 221.57 136.115 221.57 136.781V136.797C221.57 137.458 221.667 138.023 221.859 138.492C222.057 138.961 222.341 139.32 222.711 139.57C223.081 139.82 223.531 139.945 224.062 139.945ZM237.445 141.148C236.82 141.148 236.268 141.055 235.789 140.867C235.31 140.674 234.924 140.406 234.633 140.062C234.346 139.719 234.177 139.315 234.125 138.852H235.516C235.63 139.201 235.854 139.482 236.188 139.695C236.521 139.909 236.956 140.016 237.492 140.016C237.872 140.016 238.206 139.961 238.492 139.852C238.784 139.737 239.013 139.583 239.18 139.391C239.346 139.193 239.43 138.966 239.43 138.711V138.695C239.43 138.409 239.315 138.167 239.086 137.969C238.857 137.766 238.482 137.602 237.961 137.477L236.656 137.164C236.13 137.039 235.698 136.878 235.359 136.68C235.021 136.477 234.771 136.229 234.609 135.938C234.448 135.641 234.367 135.292 234.367 134.891V134.883C234.367 134.414 234.503 133.995 234.773 133.625C235.049 133.255 235.424 132.964 235.898 132.75C236.372 132.536 236.906 132.43 237.5 132.43C238.089 132.43 238.609 132.523 239.062 132.711C239.521 132.893 239.888 133.154 240.164 133.492C240.445 133.831 240.617 134.229 240.68 134.688H239.344C239.255 134.354 239.052 134.083 238.734 133.875C238.417 133.667 238.003 133.562 237.492 133.562C237.159 133.562 236.862 133.617 236.602 133.727C236.341 133.831 236.135 133.977 235.984 134.164C235.833 134.352 235.758 134.57 235.758 134.82V134.836C235.758 135.023 235.807 135.19 235.906 135.336C236.005 135.482 236.159 135.609 236.367 135.719C236.576 135.828 236.844 135.924 237.172 136.008L238.469 136.32C239.26 136.513 239.849 136.789 240.234 137.148C240.625 137.508 240.82 137.99 240.82 138.594V138.609C240.82 139.109 240.672 139.552 240.375 139.938C240.078 140.318 239.674 140.615 239.164 140.828C238.659 141.042 238.086 141.148 237.445 141.148ZM243.008 141V129.234H244.367V133.844H244.492C244.706 133.396 245.013 133.049 245.414 132.805C245.815 132.555 246.326 132.43 246.945 132.43C247.576 132.43 248.109 132.552 248.547 132.797C248.984 133.036 249.318 133.388 249.547 133.852C249.776 134.315 249.891 134.88 249.891 135.547V141H248.531V135.875C248.531 135.115 248.37 134.552 248.047 134.188C247.729 133.818 247.234 133.633 246.562 133.633C246.115 133.633 245.727 133.729 245.398 133.922C245.07 134.115 244.815 134.388 244.633 134.742C244.456 135.096 244.367 135.521 244.367 136.016V141H243.008ZM255.172 141.148C254.536 141.148 254.003 141.029 253.57 140.789C253.138 140.544 252.812 140.19 252.594 139.727C252.38 139.258 252.273 138.693 252.273 138.031V132.578H253.633V137.703C253.633 138.458 253.779 139.021 254.07 139.391C254.367 139.76 254.852 139.945 255.523 139.945C255.893 139.945 256.219 139.891 256.5 139.781C256.786 139.672 257.026 139.516 257.219 139.312C257.411 139.104 257.555 138.854 257.648 138.562C257.747 138.266 257.797 137.932 257.797 137.562V132.578H259.156V141H257.797V139.742H257.672C257.536 140.039 257.352 140.294 257.117 140.508C256.883 140.716 256.602 140.875 256.273 140.984C255.951 141.094 255.583 141.148 255.172 141.148ZM262.492 141V133.703H261.094V132.578H262.492V131.641C262.492 131.078 262.583 130.615 262.766 130.25C262.953 129.88 263.229 129.607 263.594 129.43C263.958 129.247 264.406 129.156 264.938 129.156C265.104 129.156 265.26 129.164 265.406 129.18C265.557 129.19 265.703 129.208 265.844 129.234V130.32C265.76 130.305 265.664 130.294 265.555 130.289C265.445 130.284 265.331 130.281 265.211 130.281C264.727 130.281 264.378 130.398 264.164 130.633C263.956 130.867 263.852 131.216 263.852 131.68V132.578H265.766V133.703H263.852V141H262.492ZM268.289 141V133.703H266.891V132.578H268.289V131.641C268.289 131.078 268.38 130.615 268.562 130.25C268.75 129.88 269.026 129.607 269.391 129.43C269.755 129.247 270.203 129.156 270.734 129.156C270.901 129.156 271.057 129.164 271.203 129.18C271.354 129.19 271.5 129.208 271.641 129.234V130.32C271.557 130.305 271.461 130.294 271.352 130.289C271.242 130.284 271.128 130.281 271.008 130.281C270.523 130.281 270.174 130.398 269.961 130.633C269.753 130.867 269.648 131.216 269.648 131.68V132.578H271.562V133.703H269.648V141H268.289ZM273.602 141V129.234H274.961V141H273.602ZM281.008 141.148C280.206 141.148 279.516 140.971 278.938 140.617C278.365 140.263 277.922 139.763 277.609 139.117C277.302 138.466 277.148 137.701 277.148 136.82V136.812C277.148 135.943 277.302 135.18 277.609 134.523C277.922 133.867 278.362 133.354 278.93 132.984C279.497 132.615 280.161 132.43 280.922 132.43C281.688 132.43 282.344 132.607 282.891 132.961C283.443 133.315 283.865 133.81 284.156 134.445C284.453 135.076 284.602 135.81 284.602 136.648V137.18H277.852V136.094H283.906L283.234 137.086V136.547C283.234 135.885 283.135 135.341 282.938 134.914C282.74 134.487 282.466 134.169 282.117 133.961C281.768 133.747 281.367 133.641 280.914 133.641C280.461 133.641 280.055 133.753 279.695 133.977C279.341 134.195 279.06 134.521 278.852 134.953C278.643 135.385 278.539 135.917 278.539 136.547V137.086C278.539 137.685 278.641 138.198 278.844 138.625C279.047 139.047 279.336 139.372 279.711 139.602C280.086 139.826 280.529 139.938 281.039 139.938C281.419 139.938 281.75 139.885 282.031 139.781C282.312 139.677 282.544 139.544 282.727 139.383C282.909 139.221 283.036 139.057 283.109 138.891L283.141 138.82H284.5L284.484 138.883C284.411 139.169 284.281 139.448 284.094 139.719C283.911 139.984 283.674 140.227 283.383 140.445C283.091 140.659 282.745 140.831 282.344 140.961C281.948 141.086 281.503 141.148 281.008 141.148ZM294.031 141.148C293.396 141.148 292.862 141.029 292.43 140.789C291.997 140.544 291.672 140.19 291.453 139.727C291.24 139.258 291.133 138.693 291.133 138.031V132.578H292.492V137.703C292.492 138.458 292.638 139.021 292.93 139.391C293.227 139.76 293.711 139.945 294.383 139.945C294.753 139.945 295.078 139.891 295.359 139.781C295.646 139.672 295.885 139.516 296.078 139.312C296.271 139.104 296.414 138.854 296.508 138.562C296.607 138.266 296.656 137.932 296.656 137.562V132.578H298.016V141H296.656V139.742H296.531C296.396 140.039 296.211 140.294 295.977 140.508C295.742 140.716 295.461 140.875 295.133 140.984C294.81 141.094 294.443 141.148 294.031 141.148ZM300.555 141V132.578H301.914V133.844H302.039C302.253 133.396 302.56 133.049 302.961 132.805C303.362 132.555 303.872 132.43 304.492 132.43C305.44 132.43 306.167 132.701 306.672 133.242C307.182 133.779 307.438 134.547 307.438 135.547V141H306.078V135.875C306.078 135.115 305.917 134.552 305.594 134.188C305.276 133.818 304.781 133.633 304.109 133.633C303.661 133.633 303.273 133.729 302.945 133.922C302.617 134.115 302.362 134.388 302.18 134.742C302.003 135.096 301.914 135.521 301.914 136.016V141H300.555ZM309.977 141V129.234H311.336V141H309.977ZM317.406 141.148C316.609 141.148 315.919 140.974 315.336 140.625C314.758 140.271 314.31 139.768 313.992 139.117C313.68 138.466 313.523 137.693 313.523 136.797V136.781C313.523 135.88 313.68 135.104 313.992 134.453C314.31 133.802 314.758 133.302 315.336 132.953C315.919 132.604 316.609 132.43 317.406 132.43C318.208 132.43 318.898 132.604 319.477 132.953C320.055 133.302 320.5 133.802 320.812 134.453C321.13 135.104 321.289 135.88 321.289 136.781V136.797C321.289 137.693 321.13 138.466 320.812 139.117C320.5 139.768 320.055 140.271 319.477 140.625C318.898 140.974 318.208 141.148 317.406 141.148ZM317.406 139.945C317.938 139.945 318.388 139.82 318.758 139.57C319.128 139.32 319.409 138.961 319.602 138.492C319.799 138.023 319.898 137.458 319.898 136.797V136.781C319.898 136.115 319.799 135.547 319.602 135.078C319.409 134.609 319.128 134.253 318.758 134.008C318.388 133.758 317.938 133.633 317.406 133.633C316.875 133.633 316.424 133.758 316.055 134.008C315.685 134.253 315.401 134.609 315.203 135.078C315.01 135.547 314.914 136.115 314.914 136.781V136.797C314.914 137.458 315.01 138.023 315.203 138.492C315.401 138.961 315.685 139.32 316.055 139.57C316.424 139.82 316.875 139.945 317.406 139.945ZM326.844 141.148C326.057 141.148 325.375 140.969 324.797 140.609C324.219 140.25 323.771 139.742 323.453 139.086C323.135 138.43 322.977 137.656 322.977 136.766V136.75C322.977 135.875 323.133 135.115 323.445 134.469C323.763 133.823 324.211 133.323 324.789 132.969C325.367 132.609 326.049 132.43 326.836 132.43C327.518 132.43 328.107 132.549 328.602 132.789C329.096 133.029 329.492 133.352 329.789 133.758C330.086 134.159 330.276 134.609 330.359 135.109L330.367 135.156H329.016L329.008 135.133C328.904 134.716 328.667 134.362 328.297 134.07C327.927 133.779 327.44 133.633 326.836 133.633C326.331 133.633 325.893 133.76 325.523 134.016C325.154 134.271 324.867 134.633 324.664 135.102C324.466 135.565 324.367 136.115 324.367 136.75V136.766C324.367 137.411 324.469 137.974 324.672 138.453C324.875 138.927 325.161 139.294 325.531 139.555C325.901 139.815 326.336 139.945 326.836 139.945C327.404 139.945 327.867 139.823 328.227 139.578C328.586 139.333 328.844 138.977 329 138.508L329.016 138.461L330.359 138.453L330.344 138.539C330.229 139.044 330.026 139.495 329.734 139.891C329.443 140.281 329.057 140.589 328.578 140.812C328.099 141.036 327.521 141.148 326.844 141.148ZM332.43 141V129.234H333.789V141H332.43ZM337.734 141L334.445 136.875L335.445 136.008L339.445 141H337.734ZM333.617 137.969L333.555 136.258H333.914L337.555 132.578H339.203L335.203 136.438L334.875 136.758L333.617 137.969ZM344.086 141.148C343.284 141.148 342.594 140.971 342.016 140.617C341.443 140.263 341 139.763 340.688 139.117C340.38 138.466 340.227 137.701 340.227 136.82V136.812C340.227 135.943 340.38 135.18 340.688 134.523C341 133.867 341.44 133.354 342.008 132.984C342.576 132.615 343.24 132.43 344 132.43C344.766 132.43 345.422 132.607 345.969 132.961C346.521 133.315 346.943 133.81 347.234 134.445C347.531 135.076 347.68 135.81 347.68 136.648V137.18H340.93V136.094H346.984L346.312 137.086V136.547C346.312 135.885 346.214 135.341 346.016 134.914C345.818 134.487 345.544 134.169 345.195 133.961C344.846 133.747 344.445 133.641 343.992 133.641C343.539 133.641 343.133 133.753 342.773 133.977C342.419 134.195 342.138 134.521 341.93 134.953C341.721 135.385 341.617 135.917 341.617 136.547V137.086C341.617 137.685 341.719 138.198 341.922 138.625C342.125 139.047 342.414 139.372 342.789 139.602C343.164 139.826 343.607 139.938 344.117 139.938C344.497 139.938 344.828 139.885 345.109 139.781C345.391 139.677 345.622 139.544 345.805 139.383C345.987 139.221 346.115 139.057 346.188 138.891L346.219 138.82H347.578L347.562 138.883C347.49 139.169 347.359 139.448 347.172 139.719C346.99 139.984 346.753 140.227 346.461 140.445C346.169 140.659 345.823 140.831 345.422 140.961C345.026 141.086 344.581 141.148 344.086 141.148ZM352.898 141.148C352.19 141.148 351.57 140.969 351.039 140.609C350.508 140.25 350.096 139.745 349.805 139.094C349.513 138.438 349.367 137.672 349.367 136.797V136.781C349.367 135.901 349.513 135.135 349.805 134.484C350.096 133.833 350.505 133.328 351.031 132.969C351.562 132.609 352.185 132.43 352.898 132.43C353.284 132.43 353.646 132.492 353.984 132.617C354.328 132.737 354.633 132.906 354.898 133.125C355.164 133.344 355.372 133.604 355.523 133.906H355.648V129.234H357.008V141H355.648V139.656H355.523C355.352 139.969 355.135 140.237 354.875 140.461C354.615 140.68 354.318 140.849 353.984 140.969C353.651 141.089 353.289 141.148 352.898 141.148ZM353.211 139.945C353.721 139.945 354.161 139.818 354.531 139.562C354.901 139.307 355.185 138.945 355.383 138.477C355.581 138.003 355.68 137.443 355.68 136.797V136.781C355.68 136.13 355.581 135.57 355.383 135.102C355.185 134.633 354.901 134.271 354.531 134.016C354.161 133.76 353.721 133.633 353.211 133.633C352.701 133.633 352.26 133.76 351.891 134.016C351.526 134.266 351.245 134.625 351.047 135.094C350.854 135.562 350.758 136.125 350.758 136.781V136.797C350.758 137.448 350.854 138.01 351.047 138.484C351.245 138.953 351.526 139.315 351.891 139.57C352.26 139.82 352.701 139.945 353.211 139.945ZM367.562 141.148C366.776 141.148 366.094 140.969 365.516 140.609C364.938 140.25 364.49 139.742 364.172 139.086C363.854 138.43 363.695 137.656 363.695 136.766V136.75C363.695 135.875 363.852 135.115 364.164 134.469C364.482 133.823 364.93 133.323 365.508 132.969C366.086 132.609 366.768 132.43 367.555 132.43C368.237 132.43 368.826 132.549 369.32 132.789C369.815 133.029 370.211 133.352 370.508 133.758C370.805 134.159 370.995 134.609 371.078 135.109L371.086 135.156H369.734L369.727 135.133C369.622 134.716 369.385 134.362 369.016 134.07C368.646 133.779 368.159 133.633 367.555 133.633C367.049 133.633 366.612 133.76 366.242 134.016C365.872 134.271 365.586 134.633 365.383 135.102C365.185 135.565 365.086 136.115 365.086 136.75V136.766C365.086 137.411 365.188 137.974 365.391 138.453C365.594 138.927 365.88 139.294 366.25 139.555C366.62 139.815 367.055 139.945 367.555 139.945C368.122 139.945 368.586 139.823 368.945 139.578C369.305 139.333 369.562 138.977 369.719 138.508L369.734 138.461L371.078 138.453L371.062 138.539C370.948 139.044 370.745 139.495 370.453 139.891C370.161 140.281 369.776 140.589 369.297 140.812C368.818 141.036 368.24 141.148 367.562 141.148ZM376.531 141.148C375.734 141.148 375.044 140.974 374.461 140.625C373.883 140.271 373.435 139.768 373.117 139.117C372.805 138.466 372.648 137.693 372.648 136.797V136.781C372.648 135.88 372.805 135.104 373.117 134.453C373.435 133.802 373.883 133.302 374.461 132.953C375.044 132.604 375.734 132.43 376.531 132.43C377.333 132.43 378.023 132.604 378.602 132.953C379.18 133.302 379.625 133.802 379.938 134.453C380.255 135.104 380.414 135.88 380.414 136.781V136.797C380.414 137.693 380.255 138.466 379.938 139.117C379.625 139.768 379.18 140.271 378.602 140.625C378.023 140.974 377.333 141.148 376.531 141.148ZM376.531 139.945C377.062 139.945 377.513 139.82 377.883 139.57C378.253 139.32 378.534 138.961 378.727 138.492C378.924 138.023 379.023 137.458 379.023 136.797V136.781C379.023 136.115 378.924 135.547 378.727 135.078C378.534 134.609 378.253 134.253 377.883 134.008C377.513 133.758 377.062 133.633 376.531 133.633C376 133.633 375.549 133.758 375.18 134.008C374.81 134.253 374.526 134.609 374.328 135.078C374.135 135.547 374.039 136.115 374.039 136.781V136.797C374.039 137.458 374.135 138.023 374.328 138.492C374.526 138.961 374.81 139.32 375.18 139.57C375.549 139.82 376 139.945 376.531 139.945ZM382.602 141V129.234H383.961V141H382.602ZM390.031 141.148C389.234 141.148 388.544 140.974 387.961 140.625C387.383 140.271 386.935 139.768 386.617 139.117C386.305 138.466 386.148 137.693 386.148 136.797V136.781C386.148 135.88 386.305 135.104 386.617 134.453C386.935 133.802 387.383 133.302 387.961 132.953C388.544 132.604 389.234 132.43 390.031 132.43C390.833 132.43 391.523 132.604 392.102 132.953C392.68 133.302 393.125 133.802 393.438 134.453C393.755 135.104 393.914 135.88 393.914 136.781V136.797C393.914 137.693 393.755 138.466 393.438 139.117C393.125 139.768 392.68 140.271 392.102 140.625C391.523 140.974 390.833 141.148 390.031 141.148ZM390.031 139.945C390.562 139.945 391.013 139.82 391.383 139.57C391.753 139.32 392.034 138.961 392.227 138.492C392.424 138.023 392.523 137.458 392.523 136.797V136.781C392.523 136.115 392.424 135.547 392.227 135.078C392.034 134.609 391.753 134.253 391.383 134.008C391.013 133.758 390.562 133.633 390.031 133.633C389.5 133.633 389.049 133.758 388.68 134.008C388.31 134.253 388.026 134.609 387.828 135.078C387.635 135.547 387.539 136.115 387.539 136.781V136.797C387.539 137.458 387.635 138.023 387.828 138.492C388.026 138.961 388.31 139.32 388.68 139.57C389.049 139.82 389.5 139.945 390.031 139.945ZM396.023 141V132.578H397.383V133.828H397.508C397.669 133.385 397.943 133.042 398.328 132.797C398.714 132.552 399.19 132.43 399.758 132.43C399.888 132.43 400.016 132.438 400.141 132.453C400.271 132.464 400.37 132.474 400.438 132.484V133.805C400.297 133.779 400.159 133.76 400.023 133.75C399.893 133.734 399.753 133.727 399.602 133.727C399.169 133.727 398.786 133.812 398.453 133.984C398.12 134.156 397.857 134.396 397.664 134.703C397.477 135.01 397.383 135.37 397.383 135.781V141H396.023ZM404.852 141.148C404.227 141.148 403.674 141.055 403.195 140.867C402.716 140.674 402.331 140.406 402.039 140.062C401.753 139.719 401.583 139.315 401.531 138.852H402.922C403.036 139.201 403.26 139.482 403.594 139.695C403.927 139.909 404.362 140.016 404.898 140.016C405.279 140.016 405.612 139.961 405.898 139.852C406.19 139.737 406.419 139.583 406.586 139.391C406.753 139.193 406.836 138.966 406.836 138.711V138.695C406.836 138.409 406.721 138.167 406.492 137.969C406.263 137.766 405.888 137.602 405.367 137.477L404.062 137.164C403.536 137.039 403.104 136.878 402.766 136.68C402.427 136.477 402.177 136.229 402.016 135.938C401.854 135.641 401.773 135.292 401.773 134.891V134.883C401.773 134.414 401.909 133.995 402.18 133.625C402.456 133.255 402.831 132.964 403.305 132.75C403.779 132.536 404.312 132.43 404.906 132.43C405.495 132.43 406.016 132.523 406.469 132.711C406.927 132.893 407.294 133.154 407.57 133.492C407.852 133.831 408.023 134.229 408.086 134.688H406.75C406.661 134.354 406.458 134.083 406.141 133.875C405.823 133.667 405.409 133.562 404.898 133.562C404.565 133.562 404.268 133.617 404.008 133.727C403.747 133.831 403.542 133.977 403.391 134.164C403.24 134.352 403.164 134.57 403.164 134.82V134.836C403.164 135.023 403.214 135.19 403.312 135.336C403.411 135.482 403.565 135.609 403.773 135.719C403.982 135.828 404.25 135.924 404.578 136.008L405.875 136.32C406.667 136.513 407.255 136.789 407.641 137.148C408.031 137.508 408.227 137.99 408.227 138.594V138.609C408.227 139.109 408.078 139.552 407.781 139.938C407.484 140.318 407.081 140.615 406.57 140.828C406.065 141.042 405.492 141.148 404.852 141.148ZM411.445 141.078C411.169 141.078 410.93 140.979 410.727 140.781C410.529 140.578 410.43 140.339 410.43 140.062C410.43 139.781 410.529 139.542 410.727 139.344C410.93 139.146 411.169 139.047 411.445 139.047C411.727 139.047 411.966 139.146 412.164 139.344C412.362 139.542 412.461 139.781 412.461 140.062C412.461 140.339 412.362 140.578 412.164 140.781C411.966 140.979 411.727 141.078 411.445 141.078Z" fill="#9E9E9E"/>
<rect x="64" y="209" width="260.4" height="600" rx="16" fill="#FFA07A"/>
<path d="M67.75 857H66.0703L68.8828 842.908H70.5625L69.6836 847.303L69.6152 847.42L68.6582 852.215L68.6777 852.332L67.75 857ZM72.3984 857H70.709L71.6465 852.332L71.7148 852.215L72.6719 847.42L72.6523 847.303L73.5312 842.908H75.2109L72.3984 857ZM75.6406 853.191H64.5664L64.8887 851.531H67.8477L68.0039 851.59H72.5254L72.6719 851.531H75.9629L75.6406 853.191ZM76.5488 848.221H73.3262L73.1602 848.172H68.6582L68.4922 848.221H65.4648L65.7871 846.57H76.8711L76.5488 848.221ZM78.7559 857V842.908H87.5645V844.803H80.9531V849.256H87.0078V851.102H80.9531V857H78.7559ZM90.1816 857V842.908H98.9902V844.803H92.3789V849.256H98.4336V851.102H92.3789V857H90.1816ZM99.7617 857L104.85 842.908H106.627V845.35H105.973L102.066 857H99.7617ZM102.223 853.191L102.838 851.434H109.244L109.859 853.191H102.223ZM110.016 857L106.109 845.35V842.908H107.223L112.32 857H110.016ZM119.146 857.322C118.053 857.322 117.115 857.023 116.334 856.424C115.553 855.825 114.951 854.975 114.527 853.875C114.111 852.775 113.902 851.469 113.902 849.959V849.939C113.902 848.429 114.111 847.127 114.527 846.033C114.951 844.933 115.553 844.083 116.334 843.484C117.115 842.885 118.053 842.586 119.146 842.586C120.24 842.586 121.178 842.885 121.959 843.484C122.74 844.083 123.342 844.933 123.766 846.033C124.189 847.127 124.4 848.429 124.4 849.939V849.959C124.4 851.469 124.189 852.775 123.766 853.875C123.342 854.975 122.74 855.825 121.959 856.424C121.178 857.023 120.24 857.322 119.146 857.322ZM119.146 855.486C119.785 855.486 120.328 855.265 120.777 854.822C121.233 854.373 121.581 853.735 121.822 852.908C122.063 852.081 122.184 851.098 122.184 849.959V849.939C122.184 848.794 122.063 847.811 121.822 846.99C121.581 846.17 121.233 845.538 120.777 845.096C120.328 844.646 119.785 844.422 119.146 844.422C118.508 844.422 117.962 844.646 117.506 845.096C117.057 845.538 116.712 846.17 116.471 846.99C116.236 847.811 116.119 848.794 116.119 849.939V849.959C116.119 851.098 116.236 852.081 116.471 852.908C116.712 853.735 117.057 854.373 117.506 854.822C117.962 855.265 118.508 855.486 119.146 855.486ZM127.271 857L133.492 844.881V844.764H126.1V842.908H135.699V844.812L129.576 857H127.271ZM135.523 857L140.611 842.908H142.389V845.35H141.734L137.828 857H135.523ZM137.984 853.191L138.6 851.434H145.006L145.621 853.191H137.984ZM145.777 857L141.871 845.35V842.908H142.984L148.082 857H145.777Z" fill="black"/>
<rect x="378.4" y="209" width="260.4" height="600" rx="16" fill="#FFD54F"/>
<path d="M382.283 857H380.604L383.416 842.908H385.096L384.217 847.303L384.148 847.42L383.191 852.215L383.211 852.332L382.283 857ZM386.932 857H385.242L386.18 852.332L386.248 852.215L387.205 847.42L387.186 847.303L388.064 842.908H389.744L386.932 857ZM390.174 853.191H379.1L379.422 851.531H382.381L382.537 851.59H387.059L387.205 851.531H390.496L390.174 853.191ZM391.082 848.221H387.859L387.693 848.172H383.191L383.025 848.221H379.998L380.32 846.57H391.404L391.082 848.221ZM393.289 857V842.908H402.098V844.803H395.486V849.256H401.541V851.102H395.486V857H393.289ZM404.715 857V842.908H413.523V844.803H406.912V849.256H412.967V851.102H406.912V857H404.715ZM416.141 857V842.908H421.209C422.609 842.908 423.803 843.185 424.793 843.738C425.783 844.285 426.538 845.083 427.059 846.131C427.586 847.173 427.85 848.432 427.85 849.91V849.93C427.85 851.421 427.586 852.693 427.059 853.748C426.538 854.803 425.783 855.61 424.793 856.17C423.81 856.723 422.615 857 421.209 857H416.141ZM418.338 855.105H420.975C421.958 855.105 422.794 854.907 423.484 854.51C424.181 854.106 424.708 853.52 425.066 852.752C425.431 851.977 425.613 851.046 425.613 849.959V849.939C425.613 848.852 425.431 847.928 425.066 847.166C424.702 846.398 424.171 845.812 423.475 845.408C422.785 845.005 421.951 844.803 420.975 844.803H418.338V855.105ZM435.311 857.322C434.386 857.322 433.566 857.146 432.85 856.795C432.133 856.437 431.564 855.955 431.141 855.35C430.717 854.744 430.47 854.061 430.398 853.299L430.389 853.172H432.459L432.469 853.25C432.527 853.667 432.684 854.044 432.938 854.383C433.198 854.715 433.533 854.982 433.943 855.184C434.354 855.379 434.812 855.477 435.32 855.477C435.906 855.477 436.421 855.35 436.863 855.096C437.312 854.835 437.661 854.48 437.908 854.031C438.162 853.582 438.289 853.064 438.289 852.479V852.459C438.289 851.88 438.162 851.368 437.908 850.926C437.654 850.477 437.306 850.128 436.863 849.881C436.427 849.627 435.923 849.5 435.35 849.5C434.92 849.5 434.523 849.565 434.158 849.695C433.8 849.819 433.478 850.008 433.191 850.262C433.068 850.379 432.951 850.506 432.84 850.643C432.729 850.773 432.628 850.919 432.537 851.082H430.643L431.346 842.908H439.598V844.764H433.084L432.654 849.246H432.781C432.99 848.927 433.247 848.657 433.553 848.436C433.859 848.214 434.204 848.045 434.588 847.928C434.979 847.811 435.395 847.752 435.838 847.752C436.723 847.752 437.508 847.954 438.191 848.357C438.882 848.761 439.422 849.314 439.812 850.018C440.203 850.714 440.398 851.515 440.398 852.42V852.439C440.398 853.396 440.18 854.243 439.744 854.979C439.314 855.714 438.715 856.29 437.947 856.707C437.186 857.117 436.307 857.322 435.311 857.322ZM449.441 857V854.207H442.527V852.322C442.905 851.691 443.289 851.056 443.68 850.418C444.07 849.773 444.461 849.132 444.852 848.494C445.249 847.856 445.646 847.225 446.043 846.6C446.44 845.968 446.837 845.343 447.234 844.725C447.632 844.106 448.025 843.501 448.416 842.908H451.561V852.342H453.504V854.207H451.561V857H449.441ZM444.617 852.381H449.471V844.734H449.354C449.048 845.203 448.735 845.685 448.416 846.18C448.097 846.668 447.775 847.166 447.449 847.674C447.13 848.182 446.808 848.693 446.482 849.207C446.163 849.721 445.848 850.236 445.535 850.75C445.223 851.258 444.917 851.762 444.617 852.264V852.381ZM456.16 857V842.908H464.969V844.803H458.357V849.256H464.412V851.102H458.357V857H456.16Z" fill="black"/>
<rect x="692.801" y="209" width="260.4" height="600" rx="16" fill="#FFF450"/>
<path d="M696.562 857H694.883L697.695 842.908H699.375L698.496 847.303L698.428 847.42L697.471 852.215L697.49 852.332L696.562 857ZM701.211 857H699.521L700.459 852.332L700.527 852.215L701.484 847.42L701.465 847.303L702.344 842.908H704.023L701.211 857ZM704.453 853.191H693.379L693.701 851.531H696.66L696.816 851.59H701.338L701.484 851.531H704.775L704.453 853.191ZM705.361 848.221H702.139L701.973 848.172H697.471L697.305 848.221H694.277L694.6 846.57H705.684L705.361 848.221ZM707.568 857V842.908H716.377V844.803H709.766V849.256H715.82V851.102H709.766V857H707.568ZM718.994 857V842.908H727.803V844.803H721.191V849.256H727.246V851.102H721.191V857H718.994ZM730.42 857V842.908H739.229V844.803H732.617V849.256H738.672V851.102H732.617V857H730.42ZM747.959 857V854.207H741.045V852.322C741.423 851.691 741.807 851.056 742.197 850.418C742.588 849.773 742.979 849.132 743.369 848.494C743.766 847.856 744.163 847.225 744.561 846.6C744.958 845.968 745.355 845.343 745.752 844.725C746.149 844.106 746.543 843.501 746.934 842.908H750.078V852.342H752.021V854.207H750.078V857H747.959ZM743.135 852.381H747.988V844.734H747.871C747.565 845.203 747.253 845.685 746.934 846.18C746.615 846.668 746.292 847.166 745.967 847.674C745.648 848.182 745.326 848.693 745 849.207C744.681 849.721 744.365 850.236 744.053 850.75C743.74 851.258 743.434 851.762 743.135 852.264V852.381ZM759.375 857.322C758.451 857.322 757.63 857.146 756.914 856.795C756.198 856.437 755.628 855.955 755.205 855.35C754.782 854.744 754.535 854.061 754.463 853.299L754.453 853.172H756.523L756.533 853.25C756.592 853.667 756.748 854.044 757.002 854.383C757.262 854.715 757.598 854.982 758.008 855.184C758.418 855.379 758.877 855.477 759.385 855.477C759.971 855.477 760.485 855.35 760.928 855.096C761.377 854.835 761.725 854.48 761.973 854.031C762.227 853.582 762.354 853.064 762.354 852.479V852.459C762.354 851.88 762.227 851.368 761.973 850.926C761.719 850.477 761.37 850.128 760.928 849.881C760.492 849.627 759.987 849.5 759.414 849.5C758.984 849.5 758.587 849.565 758.223 849.695C757.865 849.819 757.542 850.008 757.256 850.262C757.132 850.379 757.015 850.506 756.904 850.643C756.794 850.773 756.693 850.919 756.602 851.082H754.707L755.41 842.908H763.662V844.764H757.148L756.719 849.246H756.846C757.054 848.927 757.311 848.657 757.617 848.436C757.923 848.214 758.268 848.045 758.652 847.928C759.043 847.811 759.46 847.752 759.902 847.752C760.788 847.752 761.572 847.954 762.256 848.357C762.946 848.761 763.486 849.314 763.877 850.018C764.268 850.714 764.463 851.515 764.463 852.42V852.439C764.463 853.396 764.245 854.243 763.809 854.979C763.379 855.714 762.78 856.29 762.012 856.707C761.25 857.117 760.371 857.322 759.375 857.322ZM772.002 857.322C770.908 857.322 769.971 857.023 769.189 856.424C768.408 855.825 767.806 854.975 767.383 853.875C766.966 852.775 766.758 851.469 766.758 849.959V849.939C766.758 848.429 766.966 847.127 767.383 846.033C767.806 844.933 768.408 844.083 769.189 843.484C769.971 842.885 770.908 842.586 772.002 842.586C773.096 842.586 774.033 842.885 774.814 843.484C775.596 844.083 776.198 844.933 776.621 846.033C777.044 847.127 777.256 848.429 777.256 849.939V849.959C777.256 851.469 777.044 852.775 776.621 853.875C776.198 854.975 775.596 855.825 774.814 856.424C774.033 857.023 773.096 857.322 772.002 857.322ZM772.002 855.486C772.64 855.486 773.184 855.265 773.633 854.822C774.089 854.373 774.437 853.735 774.678 852.908C774.919 852.081 775.039 851.098 775.039 849.959V849.939C775.039 848.794 774.919 847.811 774.678 846.99C774.437 846.17 774.089 845.538 773.633 845.096C773.184 844.646 772.64 844.422 772.002 844.422C771.364 844.422 770.817 844.646 770.361 845.096C769.912 845.538 769.567 846.17 769.326 846.99C769.092 847.811 768.975 848.794 768.975 849.939V849.959C768.975 851.098 769.092 852.081 769.326 852.908C769.567 853.735 769.912 854.373 770.361 854.822C770.817 855.265 771.364 855.486 772.002 855.486Z" fill="black"/>
<rect x="1007.2" y="209" width="260.4" height="600" rx="16" fill="#2A9D8F"/>
<path d="M1010.94 857H1009.26L1012.07 842.908H1013.75L1012.88 847.303L1012.81 847.42L1011.85 852.215L1011.87 852.332L1010.94 857ZM1015.59 857H1013.9L1014.84 852.332L1014.91 852.215L1015.86 847.42L1015.84 847.303L1016.72 842.908H1018.4L1015.59 857ZM1018.83 853.191H1007.76L1008.08 851.531H1011.04L1011.2 851.59H1015.72L1015.86 851.531H1019.15L1018.83 853.191ZM1019.74 848.221H1016.52L1016.35 848.172H1011.85L1011.68 848.221H1008.66L1008.98 846.57H1020.06L1019.74 848.221ZM1021.71 857V855.506L1026.47 850.574C1027.09 849.936 1027.57 849.409 1027.91 848.992C1028.26 848.569 1028.5 848.191 1028.63 847.859C1028.76 847.527 1028.83 847.173 1028.83 846.795V846.775C1028.83 846.313 1028.73 845.906 1028.53 845.555C1028.33 845.197 1028.04 844.917 1027.67 844.715C1027.31 844.507 1026.87 844.402 1026.36 844.402C1025.83 844.402 1025.37 844.513 1024.96 844.734C1024.56 844.949 1024.25 845.249 1024.02 845.633C1023.79 846.017 1023.68 846.463 1023.68 846.971L1023.67 847.01L1021.61 847L1021.6 846.971C1021.6 846.118 1021.8 845.363 1022.22 844.705C1022.64 844.041 1023.21 843.523 1023.94 843.152C1024.68 842.775 1025.51 842.586 1026.45 842.586C1027.33 842.586 1028.11 842.758 1028.8 843.104C1029.49 843.449 1030.04 843.924 1030.43 844.529C1030.83 845.128 1031.03 845.815 1031.03 846.59V846.609C1031.03 847.143 1030.93 847.658 1030.74 848.152C1030.54 848.647 1030.2 849.194 1029.72 849.793C1029.25 850.385 1028.58 851.105 1027.73 851.951L1024.09 855.574L1024.7 854.49V855.574L1024.1 855.135H1031.25V857H1021.71ZM1033.07 857L1038.16 842.908H1039.94V845.35H1039.28L1035.38 857H1033.07ZM1035.53 853.191L1036.15 851.434H1042.55L1043.17 853.191H1035.53ZM1043.32 857L1039.42 845.35V842.908H1040.53L1045.63 857H1043.32ZM1052.33 842.586C1053.04 842.586 1053.73 842.719 1054.39 842.986C1055.05 843.253 1055.63 843.67 1056.15 844.236C1056.67 844.803 1057.08 845.542 1057.38 846.453C1057.68 847.358 1057.84 848.455 1057.84 849.744V849.764C1057.84 851.346 1057.61 852.7 1057.16 853.826C1056.72 854.952 1056.08 855.815 1055.25 856.414C1054.41 857.013 1053.42 857.312 1052.25 857.312C1051.42 857.312 1050.66 857.163 1049.99 856.863C1049.32 856.557 1048.77 856.137 1048.32 855.604C1047.88 855.063 1047.58 854.441 1047.43 853.738L1047.41 853.621H1049.58L1049.62 853.719C1049.75 854.07 1049.94 854.38 1050.18 854.646C1050.43 854.907 1050.73 855.109 1051.08 855.252C1051.43 855.395 1051.82 855.467 1052.26 855.467C1053.05 855.467 1053.7 855.236 1054.19 854.773C1054.69 854.305 1055.07 853.683 1055.32 852.908C1055.56 852.127 1055.7 851.271 1055.74 850.34C1055.74 850.255 1055.75 850.171 1055.75 850.086C1055.75 849.995 1055.75 849.907 1055.75 849.822L1055.32 847.479C1055.32 846.906 1055.18 846.391 1054.92 845.936C1054.66 845.473 1054.3 845.109 1053.85 844.842C1053.41 844.568 1052.91 844.432 1052.36 844.432C1051.81 844.432 1051.31 844.565 1050.86 844.832C1050.41 845.092 1050.06 845.451 1049.79 845.906C1049.52 846.355 1049.39 846.86 1049.39 847.42V847.439C1049.39 848.012 1049.52 848.523 1049.77 848.973C1050.02 849.415 1050.37 849.764 1050.81 850.018C1051.26 850.271 1051.76 850.398 1052.33 850.398C1052.89 850.398 1053.4 850.275 1053.85 850.027C1054.3 849.773 1054.66 849.428 1054.92 848.992C1055.18 848.549 1055.32 848.048 1055.32 847.488V847.479H1055.9V849.998H1055.59C1055.41 850.389 1055.15 850.75 1054.81 851.082C1054.46 851.408 1054.04 851.671 1053.54 851.873C1053.04 852.068 1052.48 852.166 1051.84 852.166C1050.95 852.166 1050.15 851.964 1049.46 851.561C1048.76 851.157 1048.21 850.604 1047.82 849.9C1047.42 849.191 1047.22 848.39 1047.22 847.498V847.479C1047.22 846.535 1047.44 845.695 1047.88 844.959C1048.32 844.223 1048.92 843.644 1049.69 843.221C1050.47 842.798 1051.35 842.586 1052.33 842.586ZM1060.64 857V842.908H1065.71C1067.11 842.908 1068.3 843.185 1069.29 843.738C1070.28 844.285 1071.04 845.083 1071.56 846.131C1072.08 847.173 1072.35 848.432 1072.35 849.91V849.93C1072.35 851.421 1072.08 852.693 1071.56 853.748C1071.04 854.803 1070.28 855.61 1069.29 856.17C1068.31 856.723 1067.11 857 1065.71 857H1060.64ZM1062.84 855.105H1065.47C1066.46 855.105 1067.29 854.907 1067.98 854.51C1068.68 854.106 1069.21 853.52 1069.56 852.752C1069.93 851.977 1070.11 851.046 1070.11 849.959V849.939C1070.11 848.852 1069.93 847.928 1069.56 847.166C1069.2 846.398 1068.67 845.812 1067.97 845.408C1067.28 845.005 1066.45 844.803 1065.47 844.803H1062.84V855.105ZM1079.96 857.254C1078.91 857.254 1077.98 857.081 1077.18 856.736C1076.38 856.391 1075.75 855.913 1075.3 855.301C1074.84 854.689 1074.61 853.986 1074.61 853.191V853.172C1074.61 852.579 1074.75 852.036 1075.01 851.541C1075.28 851.046 1075.65 850.63 1076.12 850.291C1076.59 849.946 1077.13 849.708 1077.74 849.578V849.529C1076.95 849.301 1076.32 848.911 1075.84 848.357C1075.37 847.804 1075.13 847.153 1075.13 846.404V846.385C1075.13 845.669 1075.34 845.031 1075.75 844.471C1076.16 843.904 1076.73 843.462 1077.46 843.143C1078.18 842.817 1079.02 842.654 1079.96 842.654C1080.89 842.654 1081.72 842.817 1082.45 843.143C1083.17 843.462 1083.74 843.904 1084.15 844.471C1084.57 845.031 1084.78 845.669 1084.78 846.385V846.404C1084.78 847.153 1084.54 847.804 1084.07 848.357C1083.59 848.911 1082.96 849.301 1082.17 849.529V849.578C1082.78 849.708 1083.32 849.946 1083.79 850.291C1084.26 850.63 1084.63 851.046 1084.89 851.541C1085.15 852.036 1085.29 852.579 1085.29 853.172V853.191C1085.29 853.986 1085.06 854.689 1084.6 855.301C1084.15 855.913 1083.53 856.391 1082.72 856.736C1081.92 857.081 1081 857.254 1079.96 857.254ZM1079.96 855.496C1080.55 855.496 1081.08 855.392 1081.55 855.184C1082.01 854.975 1082.37 854.686 1082.63 854.314C1082.9 853.943 1083.03 853.52 1083.03 853.045V853.025C1083.03 852.544 1082.9 852.117 1082.64 851.746C1082.38 851.375 1082.02 851.085 1081.55 850.877C1081.08 850.662 1080.55 850.555 1079.96 850.555C1079.35 850.555 1078.82 850.662 1078.35 850.877C1077.89 851.085 1077.53 851.375 1077.27 851.746C1077.01 852.117 1076.88 852.544 1076.88 853.025V853.045C1076.88 853.52 1077.01 853.943 1077.27 854.314C1077.54 854.686 1077.9 854.975 1078.36 855.184C1078.83 855.392 1079.36 855.496 1079.96 855.496ZM1079.96 848.787C1080.48 848.787 1080.93 848.696 1081.33 848.514C1081.73 848.325 1082.04 848.068 1082.26 847.742C1082.49 847.41 1082.6 847.029 1082.6 846.6V846.58C1082.6 846.15 1082.49 845.773 1082.26 845.447C1082.04 845.115 1081.73 844.858 1081.33 844.676C1080.93 844.487 1080.48 844.393 1079.96 844.393C1079.43 844.393 1078.97 844.487 1078.57 844.676C1078.17 844.858 1077.86 845.115 1077.64 845.447C1077.42 845.773 1077.31 846.15 1077.31 846.58V846.6C1077.31 847.029 1077.42 847.41 1077.64 847.742C1077.86 848.068 1078.17 848.325 1078.57 848.514C1078.97 848.696 1079.43 848.787 1079.96 848.787ZM1088.1 857V842.908H1096.91V844.803H1090.3V849.256H1096.35V851.102H1090.3V857H1088.1Z" fill="black"/>
<rect x="1321.6" y="209" width="260.4" height="600" rx="16" fill="#264653"/>
<path d="M1325.46 857H1323.78L1326.59 842.908H1328.27L1327.39 847.303L1327.32 847.42L1326.37 852.215L1326.38 852.332L1325.46 857ZM1330.11 857H1328.42L1329.35 852.332L1329.42 852.215L1330.38 847.42L1330.36 847.303L1331.24 842.908H1332.92L1330.11 857ZM1333.35 853.191H1322.27L1322.6 851.531H1325.55L1325.71 851.59H1330.23L1330.38 851.531H1333.67L1333.35 853.191ZM1334.26 848.221H1331.03L1330.87 848.172H1326.37L1326.2 848.221H1323.17L1323.49 846.57H1334.58L1334.26 848.221ZM1336.23 857V855.506L1340.98 850.574C1341.6 849.936 1342.08 849.409 1342.43 848.992C1342.77 848.569 1343.01 848.191 1343.14 847.859C1343.28 847.527 1343.35 847.173 1343.35 846.795V846.775C1343.35 846.313 1343.25 845.906 1343.04 845.555C1342.84 845.197 1342.56 844.917 1342.19 844.715C1341.82 844.507 1341.38 844.402 1340.88 844.402C1340.35 844.402 1339.88 844.513 1339.48 844.734C1339.08 844.949 1338.76 845.249 1338.53 845.633C1338.31 846.017 1338.19 846.463 1338.19 846.971L1338.18 847.01L1336.12 847L1336.11 846.971C1336.11 846.118 1336.32 845.363 1336.74 844.705C1337.15 844.041 1337.73 843.523 1338.46 843.152C1339.19 842.775 1340.03 842.586 1340.96 842.586C1341.84 842.586 1342.63 842.758 1343.32 843.104C1344.01 843.449 1344.55 843.924 1344.95 844.529C1345.35 845.128 1345.54 845.815 1345.54 846.59V846.609C1345.54 847.143 1345.45 847.658 1345.25 848.152C1345.06 848.647 1344.72 849.194 1344.24 849.793C1343.76 850.385 1343.1 851.105 1342.24 851.951L1338.6 855.574L1339.22 854.49V855.574L1338.61 855.135H1345.77V857H1336.23ZM1353.65 857.322C1352.94 857.322 1352.26 857.189 1351.6 856.922C1350.94 856.655 1350.35 856.238 1349.83 855.672C1349.31 855.105 1348.9 854.37 1348.59 853.465C1348.29 852.553 1348.14 851.453 1348.14 850.164V850.145C1348.14 848.562 1348.36 847.208 1348.81 846.082C1349.26 844.949 1349.9 844.087 1350.73 843.494C1351.57 842.895 1352.57 842.596 1353.73 842.596C1354.57 842.596 1355.32 842.749 1355.99 843.055C1356.66 843.354 1357.22 843.774 1357.66 844.314C1358.11 844.848 1358.4 845.467 1358.55 846.17L1358.58 846.287H1356.39L1356.37 846.189C1356.24 845.831 1356.05 845.522 1355.8 845.262C1355.55 845.001 1355.25 844.799 1354.9 844.656C1354.56 844.513 1354.16 844.441 1353.72 844.441C1352.93 844.441 1352.29 844.676 1351.79 845.145C1351.28 845.607 1350.91 846.225 1350.67 847C1350.43 847.775 1350.29 848.631 1350.25 849.568C1350.25 849.653 1350.24 849.738 1350.24 849.822C1350.24 849.907 1350.24 849.995 1350.24 850.086L1350.67 852.43C1350.67 852.996 1350.8 853.51 1351.06 853.973C1351.32 854.435 1351.68 854.803 1352.13 855.076C1352.58 855.343 1353.08 855.477 1353.63 855.477C1354.18 855.477 1354.69 855.343 1355.13 855.076C1355.58 854.809 1355.94 854.451 1356.2 854.002C1356.47 853.546 1356.6 853.042 1356.6 852.488V852.469C1356.6 851.896 1356.47 851.388 1356.22 850.945C1355.96 850.496 1355.62 850.145 1355.17 849.891C1354.73 849.637 1354.23 849.51 1353.66 849.51C1353.09 849.51 1352.59 849.637 1352.14 849.891C1351.69 850.138 1351.33 850.483 1351.06 850.926C1350.8 851.362 1350.67 851.86 1350.67 852.42V852.43H1350.09V849.91H1350.4C1350.57 849.52 1350.83 849.161 1351.18 848.836C1351.52 848.504 1351.94 848.24 1352.44 848.045C1352.94 847.843 1353.51 847.742 1354.15 847.742C1355.05 847.742 1355.84 847.944 1356.53 848.348C1357.23 848.751 1357.77 849.305 1358.17 850.008C1358.57 850.711 1358.77 851.512 1358.77 852.41V852.43C1358.77 853.374 1358.55 854.214 1358.1 854.949C1357.67 855.685 1357.07 856.264 1356.3 856.688C1355.53 857.111 1354.65 857.322 1353.65 857.322ZM1367.91 857V854.207H1360.99V852.322C1361.37 851.691 1361.76 851.056 1362.15 850.418C1362.54 849.773 1362.93 849.132 1363.32 848.494C1363.72 847.856 1364.11 847.225 1364.51 846.6C1364.91 845.968 1365.3 845.343 1365.7 844.725C1366.1 844.106 1366.49 843.501 1366.88 842.908H1370.03V852.342H1371.97V854.207H1370.03V857H1367.91ZM1363.08 852.381H1367.94V844.734H1367.82C1367.51 845.203 1367.2 845.685 1366.88 846.18C1366.56 846.668 1366.24 847.166 1365.92 847.674C1365.6 848.182 1365.27 848.693 1364.95 849.207C1364.63 849.721 1364.31 850.236 1364 850.75C1363.69 851.258 1363.38 851.762 1363.08 852.264V852.381ZM1379.63 857.322C1378.92 857.322 1378.23 857.189 1377.58 856.922C1376.92 856.655 1376.33 856.238 1375.81 855.672C1375.29 855.105 1374.87 854.37 1374.57 853.465C1374.27 852.553 1374.12 851.453 1374.12 850.164V850.145C1374.12 848.562 1374.34 847.208 1374.78 846.082C1375.23 844.949 1375.87 844.087 1376.71 843.494C1377.55 842.895 1378.55 842.596 1379.71 842.596C1380.54 842.596 1381.3 842.749 1381.97 843.055C1382.64 843.354 1383.2 843.774 1383.64 844.314C1384.08 844.848 1384.38 845.467 1384.53 846.17L1384.56 846.287H1382.37L1382.34 846.189C1382.21 845.831 1382.02 845.522 1381.78 845.262C1381.53 845.001 1381.23 844.799 1380.88 844.656C1380.53 844.513 1380.14 844.441 1379.7 844.441C1378.91 844.441 1378.26 844.676 1377.76 845.145C1377.26 845.607 1376.89 846.225 1376.65 847C1376.41 847.775 1376.27 848.631 1376.23 849.568C1376.22 849.653 1376.22 849.738 1376.22 849.822C1376.22 849.907 1376.22 849.995 1376.22 850.086L1376.65 852.43C1376.65 852.996 1376.78 853.51 1377.04 853.973C1377.3 854.435 1377.65 854.803 1378.1 855.076C1378.55 855.343 1379.05 855.477 1379.61 855.477C1380.16 855.477 1380.66 855.343 1381.11 855.076C1381.56 854.809 1381.92 854.451 1382.18 854.002C1382.44 853.546 1382.58 853.042 1382.58 852.488V852.469C1382.58 851.896 1382.45 851.388 1382.2 850.945C1381.94 850.496 1381.59 850.145 1381.15 849.891C1380.71 849.637 1380.2 849.51 1379.64 849.51C1379.07 849.51 1378.56 849.637 1378.11 849.891C1377.66 850.138 1377.31 850.483 1377.04 850.926C1376.78 851.362 1376.65 851.86 1376.65 852.42V852.43H1376.06V849.91H1376.38C1376.55 849.52 1376.81 849.161 1377.16 848.836C1377.5 848.504 1377.92 848.24 1378.42 848.045C1378.92 847.843 1379.49 847.742 1380.12 847.742C1381.02 847.742 1381.82 847.944 1382.51 848.348C1383.2 848.751 1383.75 849.305 1384.15 850.008C1384.55 850.711 1384.74 851.512 1384.74 852.41V852.43C1384.74 853.374 1384.52 854.214 1384.08 854.949C1383.64 855.685 1383.04 856.264 1382.27 856.688C1381.51 857.111 1380.62 857.322 1379.63 857.322ZM1392.29 857.322C1391.37 857.322 1390.55 857.146 1389.83 856.795C1389.12 856.437 1388.55 855.955 1388.12 855.35C1387.7 854.744 1387.45 854.061 1387.38 853.299L1387.37 853.172H1389.44L1389.45 853.25C1389.51 853.667 1389.67 854.044 1389.92 854.383C1390.18 854.715 1390.52 854.982 1390.93 855.184C1391.34 855.379 1391.79 855.477 1392.3 855.477C1392.89 855.477 1393.4 855.35 1393.85 855.096C1394.29 854.835 1394.64 854.48 1394.89 854.031C1395.14 853.582 1395.27 853.064 1395.27 852.479V852.459C1395.27 851.88 1395.14 851.368 1394.89 850.926C1394.64 850.477 1394.29 850.128 1393.85 849.881C1393.41 849.627 1392.9 849.5 1392.33 849.5C1391.9 849.5 1391.51 849.565 1391.14 849.695C1390.78 849.819 1390.46 850.008 1390.17 850.262C1390.05 850.379 1389.93 850.506 1389.82 850.643C1389.71 850.773 1389.61 850.919 1389.52 851.082H1387.62L1388.33 842.908H1396.58V844.764H1390.07L1389.64 849.246H1389.76C1389.97 848.927 1390.23 848.657 1390.54 848.436C1390.84 848.214 1391.19 848.045 1391.57 847.928C1391.96 847.811 1392.38 847.752 1392.82 847.752C1393.71 847.752 1394.49 847.954 1395.17 848.357C1395.86 848.761 1396.4 849.314 1396.79 850.018C1397.19 850.714 1397.38 851.515 1397.38 852.42V852.439C1397.38 853.396 1397.16 854.243 1396.73 854.979C1396.3 855.714 1395.7 856.29 1394.93 856.707C1394.17 857.117 1393.29 857.322 1392.29 857.322ZM1404.86 857.254C1403.86 857.254 1402.98 857.085 1402.22 856.746C1401.48 856.408 1400.88 855.939 1400.45 855.34C1400.01 854.741 1399.76 854.054 1399.7 853.279L1399.69 853.162H1401.79L1401.8 853.26C1401.85 853.683 1402 854.057 1402.26 854.383C1402.52 854.708 1402.88 854.965 1403.32 855.154C1403.76 855.337 1404.28 855.428 1404.86 855.428C1405.43 855.428 1405.94 855.327 1406.37 855.125C1406.8 854.923 1407.14 854.646 1407.37 854.295C1407.61 853.943 1407.73 853.54 1407.73 853.084V853.064C1407.73 852.27 1407.46 851.661 1406.92 851.238C1406.39 850.809 1405.65 850.594 1404.71 850.594H1403V848.875H1404.65C1405.18 848.875 1405.65 848.781 1406.05 848.592C1406.46 848.396 1406.78 848.13 1407 847.791C1407.23 847.452 1407.34 847.065 1407.34 846.629V846.609C1407.34 846.154 1407.24 845.766 1407.05 845.447C1406.85 845.122 1406.57 844.874 1406.19 844.705C1405.82 844.536 1405.37 844.451 1404.84 844.451C1404.32 844.451 1403.86 844.539 1403.46 844.715C1403.05 844.884 1402.73 845.132 1402.49 845.457C1402.25 845.776 1402.1 846.157 1402.05 846.6L1402.04 846.697H1399.98L1399.99 846.59C1400.07 845.796 1400.31 845.105 1400.73 844.52C1401.15 843.927 1401.71 843.468 1402.41 843.143C1403.11 842.817 1403.92 842.654 1404.84 842.654C1405.78 842.654 1406.6 842.811 1407.29 843.123C1407.99 843.429 1408.53 843.859 1408.91 844.412C1409.3 844.959 1409.49 845.597 1409.49 846.326V846.346C1409.49 846.932 1409.36 847.449 1409.1 847.898C1408.85 848.341 1408.49 848.712 1408.04 849.012C1407.6 849.305 1407.08 849.51 1406.51 849.627V849.676C1407.55 849.76 1408.38 850.102 1409.01 850.701C1409.65 851.3 1409.97 852.094 1409.97 853.084V853.104C1409.97 853.904 1409.75 854.62 1409.31 855.252C1408.88 855.877 1408.28 856.368 1407.51 856.727C1406.75 857.078 1405.86 857.254 1404.86 857.254Z" fill="black"/>
<rect x="64" y="926" width="86" height="43" rx="4" fill="black"/>
<path d="M85.1406 953.266C84.3177 953.266 83.599 953.133 82.9844 952.867C82.375 952.596 81.8906 952.227 81.5312 951.758C81.1771 951.284 80.9714 950.742 80.9141 950.133L80.9062 950.047H82.3125L82.3203 950.133C82.3568 950.508 82.5 950.833 82.75 951.109C83.0052 951.38 83.3438 951.591 83.7656 951.742C84.1927 951.893 84.6771 951.969 85.2188 951.969C85.7292 951.969 86.1823 951.888 86.5781 951.727C86.9792 951.56 87.2943 951.331 87.5234 951.039C87.7526 950.747 87.8672 950.411 87.8672 950.031V950.023C87.8672 949.555 87.6953 949.161 87.3516 948.844C87.0078 948.521 86.4479 948.273 85.6719 948.102L84.4219 947.828C83.2917 947.578 82.4688 947.193 81.9531 946.672C81.4427 946.146 81.1875 945.474 81.1875 944.656V944.648C81.1927 944.023 81.362 943.471 81.6953 942.992C82.0339 942.513 82.5 942.138 83.0938 941.867C83.6927 941.596 84.3802 941.461 85.1562 941.461C85.9062 941.461 86.5703 941.596 87.1484 941.867C87.7266 942.133 88.1849 942.492 88.5234 942.945C88.8672 943.398 89.0573 943.906 89.0938 944.469L89.1016 944.578H87.6953L87.6797 944.477C87.6276 944.143 87.4922 943.849 87.2734 943.594C87.0547 943.333 86.763 943.128 86.3984 942.977C86.0339 942.826 85.6068 942.753 85.1172 942.758C84.6484 942.758 84.2266 942.831 83.8516 942.977C83.4766 943.122 83.1771 943.333 82.9531 943.609C82.7344 943.88 82.625 944.214 82.625 944.609V944.617C82.625 945.065 82.7917 945.443 83.125 945.75C83.4583 946.057 84.0078 946.294 84.7734 946.461L86.0234 946.742C86.8099 946.914 87.4427 947.138 87.9219 947.414C88.401 947.69 88.75 948.029 88.9688 948.43C89.1927 948.826 89.3047 949.294 89.3047 949.836V949.844C89.3047 950.547 89.1328 951.154 88.7891 951.664C88.4453 952.174 87.9609 952.57 87.3359 952.852C86.7109 953.128 85.9792 953.266 85.1406 953.266ZM91.5547 953V941.234H92.9141V945.844H93.0391C93.2526 945.396 93.5599 945.049 93.9609 944.805C94.362 944.555 94.8724 944.43 95.4922 944.43C96.1224 944.43 96.6562 944.552 97.0938 944.797C97.5312 945.036 97.8646 945.388 98.0938 945.852C98.3229 946.315 98.4375 946.88 98.4375 947.547V953H97.0781V947.875C97.0781 947.115 96.9167 946.552 96.5938 946.188C96.276 945.818 95.7812 945.633 95.1094 945.633C94.6615 945.633 94.2734 945.729 93.9453 945.922C93.6172 946.115 93.362 946.388 93.1797 946.742C93.0026 947.096 92.9141 947.521 92.9141 948.016V953H91.5547ZM103.719 953.148C103.083 953.148 102.549 953.029 102.117 952.789C101.685 952.544 101.359 952.19 101.141 951.727C100.927 951.258 100.82 950.693 100.82 950.031V944.578H102.18V949.703C102.18 950.458 102.326 951.021 102.617 951.391C102.914 951.76 103.398 951.945 104.07 951.945C104.44 951.945 104.766 951.891 105.047 951.781C105.333 951.672 105.573 951.516 105.766 951.312C105.958 951.104 106.102 950.854 106.195 950.562C106.294 950.266 106.344 949.932 106.344 949.562V944.578H107.703V953H106.344V951.742H106.219C106.083 952.039 105.898 952.294 105.664 952.508C105.43 952.716 105.148 952.875 104.82 952.984C104.497 953.094 104.13 953.148 103.719 953.148ZM111.039 953V945.703H109.641V944.578H111.039V943.641C111.039 943.078 111.13 942.615 111.312 942.25C111.5 941.88 111.776 941.607 112.141 941.43C112.505 941.247 112.953 941.156 113.484 941.156C113.651 941.156 113.807 941.164 113.953 941.18C114.104 941.19 114.25 941.208 114.391 941.234V942.32C114.307 942.305 114.211 942.294 114.102 942.289C113.992 942.284 113.878 942.281 113.758 942.281C113.273 942.281 112.924 942.398 112.711 942.633C112.503 942.867 112.398 943.216 112.398 943.68V944.578H114.312V945.703H112.398V953H111.039ZM116.836 953V945.703H115.438V944.578H116.836V943.641C116.836 943.078 116.927 942.615 117.109 942.25C117.297 941.88 117.573 941.607 117.938 941.43C118.302 941.247 118.75 941.156 119.281 941.156C119.448 941.156 119.604 941.164 119.75 941.18C119.901 941.19 120.047 941.208 120.188 941.234V942.32C120.104 942.305 120.008 942.294 119.898 942.289C119.789 942.284 119.674 942.281 119.555 942.281C119.07 942.281 118.721 942.398 118.508 942.633C118.299 942.867 118.195 943.216 118.195 943.68V944.578H120.109V945.703H118.195V953H116.836ZM122.148 953V941.234H123.508V953H122.148ZM129.555 953.148C128.753 953.148 128.062 952.971 127.484 952.617C126.911 952.263 126.469 951.763 126.156 951.117C125.849 950.466 125.695 949.701 125.695 948.82V948.812C125.695 947.943 125.849 947.18 126.156 946.523C126.469 945.867 126.909 945.354 127.477 944.984C128.044 944.615 128.708 944.43 129.469 944.43C130.234 944.43 130.891 944.607 131.438 944.961C131.99 945.315 132.411 945.81 132.703 946.445C133 947.076 133.148 947.81 133.148 948.648V949.18H126.398V948.094H132.453L131.781 949.086V948.547C131.781 947.885 131.682 947.341 131.484 946.914C131.286 946.487 131.013 946.169 130.664 945.961C130.315 945.747 129.914 945.641 129.461 945.641C129.008 945.641 128.602 945.753 128.242 945.977C127.888 946.195 127.607 946.521 127.398 946.953C127.19 947.385 127.086 947.917 127.086 948.547V949.086C127.086 949.685 127.188 950.198 127.391 950.625C127.594 951.047 127.883 951.372 128.258 951.602C128.633 951.826 129.076 951.938 129.586 951.938C129.966 951.938 130.297 951.885 130.578 951.781C130.859 951.677 131.091 951.544 131.273 951.383C131.456 951.221 131.583 951.057 131.656 950.891L131.688 950.82H133.047L133.031 950.883C132.958 951.169 132.828 951.448 132.641 951.719C132.458 951.984 132.221 952.227 131.93 952.445C131.638 952.659 131.292 952.831 130.891 952.961C130.495 953.086 130.049 953.148 129.555 953.148Z" fill="white"/>
<path d="M203.461 953.266C202.638 953.266 201.919 953.133 201.305 952.867C200.695 952.596 200.211 952.227 199.852 951.758C199.497 951.284 199.292 950.742 199.234 950.133L199.227 950.047H200.633L200.641 950.133C200.677 950.508 200.82 950.833 201.07 951.109C201.326 951.38 201.664 951.591 202.086 951.742C202.513 951.893 202.997 951.969 203.539 951.969C204.049 951.969 204.503 951.888 204.898 951.727C205.299 951.56 205.615 951.331 205.844 951.039C206.073 950.747 206.188 950.411 206.188 950.031V950.023C206.188 949.555 206.016 949.161 205.672 948.844C205.328 948.521 204.768 948.273 203.992 948.102L202.742 947.828C201.612 947.578 200.789 947.193 200.273 946.672C199.763 946.146 199.508 945.474 199.508 944.656V944.648C199.513 944.023 199.682 943.471 200.016 942.992C200.354 942.513 200.82 942.138 201.414 941.867C202.013 941.596 202.701 941.461 203.477 941.461C204.227 941.461 204.891 941.596 205.469 941.867C206.047 942.133 206.505 942.492 206.844 942.945C207.188 943.398 207.378 943.906 207.414 944.469L207.422 944.578H206.016L206 944.477C205.948 944.143 205.812 943.849 205.594 943.594C205.375 943.333 205.083 943.128 204.719 942.977C204.354 942.826 203.927 942.753 203.438 942.758C202.969 942.758 202.547 942.831 202.172 942.977C201.797 943.122 201.497 943.333 201.273 943.609C201.055 943.88 200.945 944.214 200.945 944.609V944.617C200.945 945.065 201.112 945.443 201.445 945.75C201.779 946.057 202.328 946.294 203.094 946.461L204.344 946.742C205.13 946.914 205.763 947.138 206.242 947.414C206.721 947.69 207.07 948.029 207.289 948.43C207.513 948.826 207.625 949.294 207.625 949.836V949.844C207.625 950.547 207.453 951.154 207.109 951.664C206.766 952.174 206.281 952.57 205.656 952.852C205.031 953.128 204.299 953.266 203.461 953.266ZM212.789 953.062C211.924 953.062 211.297 952.888 210.906 952.539C210.521 952.19 210.328 951.615 210.328 950.812V945.703H209V944.578H210.328V942.398H211.734V944.578H213.578V945.703H211.734V950.469C211.734 950.964 211.828 951.32 212.016 951.539C212.203 951.753 212.516 951.859 212.953 951.859C213.073 951.859 213.174 951.857 213.258 951.852C213.346 951.846 213.453 951.839 213.578 951.828V952.984C213.448 953.005 213.318 953.023 213.188 953.039C213.057 953.055 212.924 953.062 212.789 953.062ZM217.922 953.148C217.391 953.148 216.911 953.047 216.484 952.844C216.062 952.641 215.727 952.352 215.477 951.977C215.232 951.602 215.109 951.159 215.109 950.648V950.633C215.109 950.133 215.229 949.706 215.469 949.352C215.708 948.992 216.057 948.711 216.516 948.508C216.974 948.305 217.529 948.185 218.18 948.148L221.273 947.961V949.047L218.344 949.234C217.703 949.271 217.234 949.404 216.938 949.633C216.646 949.862 216.5 950.185 216.5 950.602V950.617C216.5 951.044 216.661 951.378 216.984 951.617C217.307 951.852 217.714 951.969 218.203 951.969C218.667 951.969 219.078 951.878 219.438 951.695C219.797 951.508 220.078 951.255 220.281 950.938C220.49 950.62 220.594 950.26 220.594 949.859V947.234C220.594 946.714 220.435 946.318 220.117 946.047C219.805 945.771 219.333 945.633 218.703 945.633C218.198 945.633 217.784 945.724 217.461 945.906C217.138 946.083 216.922 946.336 216.812 946.664L216.805 946.688H215.445L215.453 946.641C215.526 946.198 215.708 945.812 216 945.484C216.297 945.151 216.68 944.893 217.148 944.711C217.617 944.523 218.151 944.43 218.75 944.43C219.438 944.43 220.018 944.542 220.492 944.766C220.971 944.99 221.333 945.312 221.578 945.734C221.828 946.151 221.953 946.651 221.953 947.234V953H220.594V951.758H220.469C220.292 952.055 220.076 952.307 219.82 952.516C219.57 952.724 219.286 952.883 218.969 952.992C218.651 953.096 218.302 953.148 217.922 953.148ZM224.438 953V944.578H225.797V945.828H225.922C226.083 945.385 226.357 945.042 226.742 944.797C227.128 944.552 227.604 944.43 228.172 944.43C228.302 944.43 228.43 944.438 228.555 944.453C228.685 944.464 228.784 944.474 228.852 944.484V945.805C228.711 945.779 228.573 945.76 228.438 945.75C228.307 945.734 228.167 945.727 228.016 945.727C227.583 945.727 227.201 945.812 226.867 945.984C226.534 946.156 226.271 946.396 226.078 946.703C225.891 947.01 225.797 947.37 225.797 947.781V953H224.438ZM233.68 953.062C232.815 953.062 232.188 952.888 231.797 952.539C231.411 952.19 231.219 951.615 231.219 950.812V945.703H229.891V944.578H231.219V942.398H232.625V944.578H234.469V945.703H232.625V950.469C232.625 950.964 232.719 951.32 232.906 951.539C233.094 951.753 233.406 951.859 233.844 951.859C233.964 951.859 234.065 951.857 234.148 951.852C234.237 951.846 234.344 951.839 234.469 951.828V952.984C234.339 953.005 234.208 953.023 234.078 953.039C233.948 953.055 233.815 953.062 233.68 953.062ZM245.906 953.266C244.828 953.266 243.904 953.026 243.133 952.547C242.362 952.062 241.768 951.378 241.352 950.492C240.94 949.607 240.734 948.565 240.734 947.367V947.352C240.734 946.143 240.943 945.099 241.359 944.219C241.781 943.339 242.378 942.659 243.148 942.18C243.924 941.701 244.844 941.461 245.906 941.461C246.974 941.461 247.893 941.701 248.664 942.18C249.44 942.659 250.036 943.341 250.453 944.227C250.87 945.107 251.078 946.148 251.078 947.352V947.367C251.078 948.565 250.87 949.607 250.453 950.492C250.042 951.372 249.448 952.055 248.672 952.539C247.901 953.023 246.979 953.266 245.906 953.266ZM245.906 951.969C246.677 951.969 247.341 951.779 247.898 951.398C248.456 951.018 248.885 950.484 249.188 949.797C249.49 949.104 249.641 948.294 249.641 947.367V947.352C249.641 946.414 249.49 945.602 249.188 944.914C248.885 944.227 248.456 943.695 247.898 943.32C247.341 942.945 246.677 942.758 245.906 942.758C245.141 942.758 244.479 942.945 243.922 943.32C243.365 943.695 242.932 944.227 242.625 944.914C242.323 945.602 242.172 946.414 242.172 947.352V947.367C242.172 948.294 242.32 949.104 242.617 949.797C242.914 950.484 243.341 951.018 243.898 951.398C244.456 951.779 245.125 951.969 245.906 951.969ZM255.727 953L252.609 944.578H254.047L256.352 951.516H256.477L258.781 944.578H260.219L257.102 953H255.727ZM265.141 953.148C264.339 953.148 263.648 952.971 263.07 952.617C262.497 952.263 262.055 951.763 261.742 951.117C261.435 950.466 261.281 949.701 261.281 948.82V948.812C261.281 947.943 261.435 947.18 261.742 946.523C262.055 945.867 262.495 945.354 263.062 944.984C263.63 944.615 264.294 944.43 265.055 944.43C265.82 944.43 266.477 944.607 267.023 944.961C267.576 945.315 267.997 945.81 268.289 946.445C268.586 947.076 268.734 947.81 268.734 948.648V949.18H261.984V948.094H268.039L267.367 949.086V948.547C267.367 947.885 267.268 947.341 267.07 946.914C266.872 946.487 266.599 946.169 266.25 945.961C265.901 945.747 265.5 945.641 265.047 945.641C264.594 945.641 264.188 945.753 263.828 945.977C263.474 946.195 263.193 946.521 262.984 946.953C262.776 947.385 262.672 947.917 262.672 948.547V949.086C262.672 949.685 262.773 950.198 262.977 950.625C263.18 951.047 263.469 951.372 263.844 951.602C264.219 951.826 264.661 951.938 265.172 951.938C265.552 951.938 265.883 951.885 266.164 951.781C266.445 951.677 266.677 951.544 266.859 951.383C267.042 951.221 267.169 951.057 267.242 950.891L267.273 950.82H268.633L268.617 950.883C268.544 951.169 268.414 951.448 268.227 951.719C268.044 951.984 267.807 952.227 267.516 952.445C267.224 952.659 266.878 952.831 266.477 952.961C266.081 953.086 265.635 953.148 265.141 953.148ZM270.844 953V944.578H272.203V945.828H272.328C272.49 945.385 272.763 945.042 273.148 944.797C273.534 944.552 274.01 944.43 274.578 944.43C274.708 944.43 274.836 944.438 274.961 944.453C275.091 944.464 275.19 944.474 275.258 944.484V945.805C275.117 945.779 274.979 945.76 274.844 945.75C274.714 945.734 274.573 945.727 274.422 945.727C273.99 945.727 273.607 945.812 273.273 945.984C272.94 946.156 272.677 946.396 272.484 946.703C272.297 947.01 272.203 947.37 272.203 947.781V953H270.844Z" fill="black"/>
</svg>
