<svg width="206" height="206" viewBox="0 0 206 206" fill="none" xmlns="http://www.w3.org/2000/svg">
<rect width="206" height="206" fill="white"/>
<path d="M100.251 34H106.478C123.611 34.88 140.358 42.1333 152.411 54.4C160.425 62.2133 166.025 72.1467 169.771 82.64C165.611 85.04 161.491 87.4667 157.385 89.96C153.598 75.9867 144.625 63.4667 132.158 55.9867C119.705 48.3333 104.131 45.8667 89.9581 49.5333C74.3314 53.3867 60.6248 64.3867 53.6114 78.8933C46.1448 93.7333 45.9714 111.96 53.1448 126.947C59.3981 140.493 71.4114 151.2 85.5448 155.973C100.238 161.053 117.078 159.533 130.571 151.787C142.638 145.027 151.758 133.653 156.291 120.64C133.825 107.8 111.331 94.9867 88.9048 82.08C89.0114 95.9733 88.9981 109.867 88.9048 123.76C96.5448 119.28 104.278 114.947 111.865 110.373C115.945 112.627 120.011 114.907 124.078 117.173C112.465 123.973 100.798 130.653 89.1314 137.373C85.0514 134.973 80.9581 132.627 76.8648 130.253C77.0648 112.053 76.9714 93.84 76.9181 75.6267C80.9848 73.2533 85.0648 70.88 89.1448 68.4933C116.665 84.24 144.158 100.027 171.678 115.773C168.438 133.253 158.331 149.333 143.865 159.707C133.398 167.293 120.785 171.773 107.891 172.667H99.2781C86.9448 171.947 74.8248 167.92 64.6114 160.96C48.1181 149.827 36.6381 131.387 34.5181 111.533C31.9581 91.36 38.9981 70.2667 53.1314 55.64C65.2381 42.6133 82.5448 34.9067 100.251 34Z" fill="black"/>
</svg>
