<svg width="75" height="75" viewBox="0 0 75 75" fill="none" xmlns="http://www.w3.org/2000/svg">
<path d="M0 18.75C0 8.39466 8.3947 0 18.75 0H56.25C66.6053 0 75 8.39466 75 18.75V56.25C75 66.6053 66.6053 75 56.25 75H18.75C8.3947 75 0 66.6053 0 56.25V18.75Z" fill="#1868DB"/>
<mask id="mask0_65_250" style="mask-type:luminance" maskUnits="userSpaceOnUse" x="12" y="16" width="49" height="48">
<path d="M60.0493 16.2344H12.8711V63.7783H60.0493V16.2344Z" fill="white"/>
</mask>
<g mask="url(#mask0_65_250)">
<path d="M28.0429 48.5103H23.817C17.4434 48.5103 12.8711 44.6064 12.8711 38.89H35.5942C36.772 38.89 37.534 39.7265 37.534 40.9117V63.7774C31.8532 63.7774 28.0429 59.1763 28.0429 52.7628V48.5103ZM39.266 37.1472H35.04C28.6664 37.1472 24.0941 33.313 24.0941 27.5966H46.8172C47.995 27.5966 48.8263 28.3634 48.8263 29.5485V52.4142C43.1455 52.4142 39.266 47.8132 39.266 41.3997V37.1472ZM50.5582 25.8538H46.3323C39.9587 25.8538 35.3864 21.9499 35.3864 16.2334H58.1095C59.2873 16.2334 60.0493 17.07 60.0493 18.1854V41.0511C54.3685 41.0511 50.5582 36.4501 50.5582 30.0365V25.8538Z" fill="white"/>
</g>
</svg>
