<svg width="298" height="76" viewBox="0 0 298 76" fill="none" xmlns="http://www.w3.org/2000/svg">
<g clip-path="url(#clip0_71_210)">
<mask id="mask0_71_210" style="mask-type:luminance" maskUnits="userSpaceOnUse" x="0" y="0" width="298" height="76">
<path d="M298 0H0V76H298V0Z" fill="white"/>
</mask>
<g mask="url(#mask0_71_210)">
<path d="M2.28684 50.515C1.87858 50.515 1.54492 50.3848 1.28586 50.1271C1.0268 49.8666 0.897949 49.533 0.897949 49.1261V12.4589C0.897949 12.052 1.0268 11.7183 1.28586 11.4606C1.54492 11.2002 1.87858 11.07 2.28684 11.07H8.56396C8.93424 11.07 9.25841 11.2002 9.53646 11.4606C9.8145 11.7183 9.95285 12.052 9.95285 12.4589V14.5151C10.8047 13.3676 11.9345 12.4128 13.3424 11.6532C14.7489 10.8964 16.4891 10.5166 18.5643 10.5166C20.4157 10.5166 22.0446 10.8041 23.4525 11.3765C24.8604 11.9516 26.0648 12.7925 27.0644 13.9047C28.0641 15.0142 28.8507 16.3678 29.4258 17.9602C29.9996 19.5525 30.3224 21.3863 30.397 23.4588C30.4336 24.202 30.4526 24.8856 30.4526 25.515C30.4526 26.147 30.4336 26.8306 30.397 27.5712C30.3224 29.5704 30.0091 31.3689 29.453 32.9613C28.8969 34.5536 28.1197 35.9045 27.1201 37.0167C26.1191 38.1262 24.9065 38.9888 23.481 39.5992C22.0541 40.2095 20.4157 40.5161 18.5643 40.5161C16.7495 40.5161 15.1653 40.1905 13.8144 39.5422C12.4621 38.8966 11.3418 37.9797 10.4534 36.7943V49.1261C10.4534 49.533 10.3232 49.8666 10.0641 50.1271C9.80501 50.3848 9.47135 50.515 9.06445 50.515H2.28684ZM15.5641 33.0698C16.8227 33.0698 17.8047 32.8121 18.5087 32.2939C19.2113 31.7758 19.7212 31.0705 20.0359 30.1835C20.3506 29.2937 20.5445 28.3117 20.6191 27.2375C20.6937 26.0901 20.6937 24.9426 20.6191 23.7924C20.5445 22.7182 20.3506 21.7389 20.0359 20.8492C19.7212 19.9594 19.2113 19.2568 18.5087 18.7387C17.8047 18.2206 16.8227 17.9602 15.5641 17.9602C14.342 17.9602 13.36 18.2287 12.6195 18.7658C11.8789 19.3029 11.3418 19.9974 11.0081 20.8492C10.6758 21.7009 10.49 22.626 10.4534 23.6269C10.4154 24.3295 10.3978 25.0158 10.3978 25.6832C10.3978 26.3478 10.4154 27.0531 10.4534 27.7936C10.49 28.7186 10.6935 29.5813 11.0637 30.3761C11.434 31.1736 11.9901 31.8219 12.7307 32.3211C13.4712 32.8202 14.4152 33.0698 15.5641 33.0698Z" fill="black"/>
<path d="M37.3425 39.9593C36.9342 39.9593 36.6005 39.8291 36.3415 39.5713C36.0824 39.3109 35.9536 38.9773 35.9536 38.5704V12.4582C35.9536 12.0892 36.0824 11.7637 36.3415 11.487C36.6005 11.2103 36.9342 11.0693 37.3425 11.0693H43.7308C44.1377 11.0693 44.4714 11.2103 44.7304 11.487C44.9895 11.7637 45.1197 12.0892 45.1197 12.4582V14.6826C46.1193 13.5351 47.3143 12.6453 48.7031 12.016C50.092 11.3867 51.6559 11.0693 53.3974 11.0693H55.8415C56.2118 11.0693 56.536 11.1995 56.814 11.4599C57.0921 11.7176 57.2304 12.0513 57.2304 12.4582V18.1819C57.2304 18.5508 57.0921 18.8764 56.814 19.1531C56.536 19.4325 56.2118 19.5708 55.8415 19.5708H50.4528C48.9337 19.5708 47.7591 19.9858 46.925 20.8213C46.0922 21.6541 45.6758 22.8287 45.6758 24.3478V38.5704C45.6758 38.9773 45.5361 39.3109 45.258 39.5713C44.9814 39.8291 44.6382 39.9593 44.2313 39.9593H37.3425Z" fill="black"/>
<path d="M74.8427 40.5161C71.7312 40.5161 69.1108 40.0142 66.9813 39.0159C64.8505 38.015 63.2216 36.58 62.0918 34.7109C60.9619 32.8392 60.3231 30.6094 60.1752 28.0161C60.1386 27.2755 60.1196 26.4319 60.1196 25.4878C60.1196 24.5438 60.1386 23.7192 60.1752 23.0166C60.3231 20.3853 60.9904 18.1446 62.1758 16.2946C63.3613 14.4418 65.0174 13.015 67.1482 12.0167C69.2776 11.0157 71.8425 10.5166 74.8427 10.5166C77.8795 10.5166 80.462 11.0157 82.5928 12.0167C84.7222 13.015 86.3783 14.4418 87.5651 16.2946C88.7492 18.1446 89.4165 20.3853 89.5644 23.0166C89.601 23.7192 89.62 24.5438 89.62 25.4878C89.62 26.4319 89.601 27.2755 89.5644 28.0161C89.4165 30.6094 88.7777 32.8392 87.6478 34.7109C86.518 36.58 84.8891 38.015 82.7596 39.0159C80.6288 40.0142 77.9894 40.5161 74.8427 40.5161ZM74.8427 33.7371C76.5096 33.7371 77.7222 33.2379 78.4817 32.237C79.2399 31.2387 79.6753 29.7386 79.7865 27.7366C79.8231 27.1833 79.8421 26.4427 79.8421 25.515C79.8421 24.5899 79.8231 23.8494 79.7865 23.2933C79.6753 21.3293 79.2399 19.8401 78.4817 18.8201C77.7222 17.8028 76.5096 17.2929 74.8427 17.2929C73.2124 17.2929 72.0093 17.8028 71.2307 18.8201C70.4536 19.8401 70.0277 21.3293 69.9531 23.2933C69.9165 23.8494 69.8975 24.5899 69.8975 25.515C69.8975 26.4427 69.9165 27.1833 69.9531 27.7366C70.0277 29.7386 70.4536 31.2387 71.2307 32.237C72.0093 33.2379 73.2124 33.7371 74.8427 33.7371Z" fill="black"/>
<path d="M96.4534 39.9596C96.0451 39.9596 95.7115 39.8293 95.4524 39.5716C95.1934 39.3112 95.0645 38.9776 95.0645 38.5707V12.4585C95.0645 12.0516 95.1934 11.7179 95.4524 11.4602C95.7115 11.1998 96.0451 11.0696 96.4534 11.0696H102.508C102.915 11.0696 103.248 11.1998 103.509 11.4602C103.766 11.7179 103.897 12.0516 103.897 12.4585V14.3492C104.637 13.3482 105.675 12.4693 107.008 11.7098C108.341 10.9502 109.915 10.5515 111.73 10.5162C115.99 10.4402 118.917 12.0516 120.509 15.3475C121.361 13.9423 122.584 12.784 124.177 11.8752C125.769 10.9692 127.51 10.5162 129.399 10.5162C131.325 10.5162 133.055 10.9502 134.593 11.821C136.129 12.6918 137.36 14.0237 138.288 15.8195C139.213 17.618 139.677 19.94 139.677 22.7938V38.5707C139.677 38.9776 139.538 39.3112 139.259 39.5716C138.982 39.8293 138.657 39.9596 138.288 39.9596H131.843C131.436 39.9596 131.094 39.8293 130.815 39.5716C130.538 39.3112 130.399 38.9776 130.399 38.5707V23.1817C130.399 21.885 130.212 20.8569 129.843 20.0974C129.472 19.3405 128.973 18.7926 128.343 18.4589C127.714 18.1252 126.99 17.9598 126.176 17.9598C125.509 17.9598 124.852 18.1252 124.204 18.4589C123.555 18.7926 123.037 19.3405 122.649 20.0974C122.259 20.8569 122.066 21.885 122.066 23.1817V38.5707C122.066 38.9776 121.936 39.3112 121.676 39.5716C121.418 39.8293 121.084 39.9596 120.677 39.9596H114.232C113.825 39.9596 113.491 39.8293 113.231 39.5716C112.973 39.3112 112.843 38.9776 112.843 38.5707V23.1817C112.843 21.885 112.64 20.8569 112.233 20.0974C111.823 19.3405 111.304 18.7926 110.674 18.4589C110.045 18.1252 109.341 17.9598 108.564 17.9598C107.897 17.9598 107.239 18.1252 106.592 18.4589C105.943 18.7926 105.425 19.3405 105.036 20.0974C104.647 20.8569 104.453 21.8687 104.453 23.1274V38.5707C104.453 38.9776 104.313 39.3112 104.036 39.5716C103.758 39.8293 103.415 39.9596 103.008 39.9596H96.4534Z" fill="black"/>
<path d="M147.286 50.515C146.879 50.515 146.545 50.3848 146.288 50.1271C146.027 49.8666 145.897 49.533 145.897 49.1261V12.4589C145.897 12.052 146.027 11.7183 146.288 11.4606C146.545 11.2002 146.879 11.07 147.286 11.07H153.566C153.935 11.07 154.26 11.2002 154.537 11.4606C154.814 11.7183 154.955 12.052 154.955 12.4589V14.5151C155.804 13.3676 156.935 12.4128 158.343 11.6532C159.751 10.8964 161.489 10.5166 163.565 10.5166C165.417 10.5166 167.045 10.8041 168.453 11.3765C169.861 11.9516 171.065 12.7925 172.063 13.9047C173.064 15.0142 173.851 16.3678 174.426 17.9602C174.999 19.5525 175.324 21.3863 175.397 23.4588C175.435 24.202 175.454 24.8856 175.454 25.515C175.454 26.147 175.435 26.8306 175.397 27.5712C175.324 29.5704 175.009 31.3689 174.453 32.9613C173.897 34.5536 173.121 35.9045 172.12 37.0167C171.119 38.1262 169.907 38.9888 168.48 39.5992C167.056 40.2095 165.417 40.5161 163.565 40.5161C161.75 40.5161 160.166 40.1905 158.815 39.5422C157.461 38.8966 156.343 37.9797 155.454 36.7943V49.1261C155.454 49.533 155.324 49.8666 155.066 50.1271C154.805 50.3848 154.472 50.515 154.065 50.515H147.286ZM160.564 33.0698C161.823 33.0698 162.805 32.8121 163.508 32.2939C164.213 31.7758 164.723 31.0705 165.038 30.1835C165.352 29.2937 165.545 28.3117 165.621 27.2375C165.694 26.0901 165.694 24.9426 165.621 23.7924C165.545 22.7182 165.352 21.7389 165.038 20.8492C164.723 19.9594 164.213 19.2568 163.508 18.7387C162.805 18.2206 161.823 17.9602 160.564 17.9602C159.341 17.9602 158.362 18.2287 157.621 18.7658C156.878 19.3029 156.343 19.9974 156.01 20.8492C155.676 21.7009 155.489 22.626 155.454 23.6269C155.416 24.3295 155.397 25.0158 155.397 25.6832C155.397 26.3478 155.416 27.0531 155.454 27.7936C155.489 28.7186 155.695 29.5813 156.064 30.3761C156.433 31.1736 156.989 31.8219 157.732 32.3211C158.473 32.8202 159.417 33.0698 160.564 33.0698Z" fill="black"/>
<path d="M195.731 39.9597C193.361 39.9597 191.315 39.5799 189.593 38.8203C187.87 38.0608 186.546 36.8753 185.621 35.264C184.694 33.6554 184.232 31.5721 184.232 29.014V18.3478H179.898C179.491 18.3478 179.149 18.2203 178.87 17.9599C178.593 17.7022 178.454 17.3685 178.454 16.9589V12.4586C178.454 12.0517 178.593 11.718 178.87 11.4603C179.149 11.1999 179.491 11.0697 179.898 11.0697H184.232V1.90354C184.232 1.49664 184.371 1.16298 184.648 0.905273C184.927 0.644856 185.25 0.514648 185.621 0.514648H192.064C192.471 0.514648 192.805 0.644856 193.065 0.905273C193.323 1.16298 193.453 1.49664 193.453 1.90354V11.0697H200.397C200.804 11.0697 201.138 11.1999 201.398 11.4603C201.656 11.718 201.786 12.0517 201.786 12.4586V16.9589C201.786 17.3685 201.656 17.7022 201.398 17.9599C201.138 18.2203 200.804 18.3478 200.397 18.3478H193.453V28.2382C193.453 29.4969 193.694 30.4979 194.177 31.2384C194.657 31.979 195.471 32.3479 196.621 32.3479H200.899C201.306 32.3479 201.64 32.4781 201.897 32.7385C202.158 32.9962 202.288 33.3299 202.288 33.7368V38.5708C202.288 38.9777 202.158 39.3113 201.897 39.5717C201.64 39.8294 201.306 39.9597 200.899 39.9597H195.731Z" fill="black"/>
<path d="M208.666 20.5154C208.297 20.5154 207.972 20.3852 207.695 20.1275C207.419 19.8671 207.278 19.5334 207.278 19.1265V12.4045C207.278 12.0356 207.419 11.7101 207.695 11.4334C207.972 11.154 208.297 11.0156 208.666 11.0156H215.722C216.129 11.0156 216.463 11.154 216.723 11.4334C216.981 11.7101 217.111 12.0356 217.111 12.4045V19.1265C217.111 19.5334 216.981 19.8671 216.723 20.1275C216.463 20.3852 216.129 20.5154 215.722 20.5154H208.666ZM208.666 39.9599C208.297 39.9599 207.972 39.8296 207.695 39.5719C207.419 39.3115 207.278 38.9779 207.278 38.571V31.849C207.278 31.48 207.419 31.1545 207.695 30.8778C207.972 30.5984 208.297 30.4601 208.666 30.4601H215.722C216.129 30.4601 216.463 30.5984 216.723 30.8778C216.981 31.1545 217.111 31.48 217.111 31.849V38.571C217.111 38.9779 216.981 39.3115 216.723 39.5719C216.463 39.8296 216.129 39.9599 215.722 39.9599H208.666Z" fill="#FD3559"/>
<path d="M238.989 40.5153C235.655 40.5153 232.739 39.9673 230.241 38.8768C227.74 37.7836 225.803 36.099 224.433 33.8204C223.063 31.5417 222.38 28.6446 222.38 25.1263V2.4592C222.38 2.0523 222.507 1.71864 222.768 1.45822C223.025 1.20052 223.359 1.07031 223.769 1.07031H230.935C231.342 1.07031 231.676 1.20052 231.934 1.45822C232.194 1.71864 232.324 2.0523 232.324 2.4592V25.0693C232.324 27.4781 232.908 29.2848 234.074 30.4865C235.24 31.6909 236.879 32.2931 238.989 32.2931C241.065 32.2931 242.684 31.6909 243.85 30.4865C245.017 29.2848 245.6 27.4781 245.6 25.0693V2.4592C245.6 2.0523 245.741 1.71864 246.018 1.45822C246.295 1.20052 246.62 1.07031 246.989 1.07031H254.213C254.582 1.07031 254.907 1.20052 255.184 1.45822C255.463 1.71864 255.602 2.0523 255.602 2.4592V25.1263C255.602 28.6446 254.915 31.5417 253.546 33.8204C252.176 36.099 250.25 37.7836 247.768 38.8768C245.285 39.9673 242.358 40.5153 238.989 40.5153Z" fill="#FD3559"/>
<path d="M260.712 39.9592C260.379 39.9592 260.091 39.8398 259.85 39.5984C259.608 39.3569 259.489 39.0884 259.489 38.7927C259.489 38.6815 259.508 38.5703 259.546 38.459C259.581 38.3478 259.638 38.2366 259.711 38.1254L271.824 20.1268L260.601 2.90408C260.49 2.68164 260.433 2.4592 260.433 2.23676C260.433 1.94108 260.544 1.67252 260.767 1.43109C260.989 1.18967 261.269 1.07031 261.602 1.07031H269.656C270.212 1.07031 270.638 1.20865 270.934 1.48806C271.229 1.76475 271.433 2.01432 271.544 2.23676L278.212 12.3469L284.934 2.23676C285.083 2.01432 285.303 1.76475 285.601 1.48806C285.897 1.20865 286.323 1.07031 286.879 1.07031H294.491C294.824 1.07031 295.109 1.18967 295.351 1.43109C295.592 1.67252 295.711 1.94108 295.711 2.23676C295.711 2.49717 295.638 2.71961 295.489 2.90408L284.212 20.0698L296.433 38.1254C296.509 38.2366 296.555 38.3478 296.574 38.459C296.59 38.5703 296.601 38.6815 296.601 38.7927C296.601 39.0884 296.49 39.3569 296.267 39.5984C296.045 39.8398 295.768 39.9592 295.435 39.9592H287.156C286.602 39.9592 286.165 39.8208 285.851 39.5414C285.536 39.2647 285.322 39.0341 285.213 38.847L277.824 28.1807L270.6 38.847C270.489 39.0341 270.285 39.2647 269.99 39.5414C269.694 39.8208 269.268 39.9592 268.712 39.9592H260.712Z" fill="#FD3559"/>
<path d="M287.156 74.91C287.016 74.91 286.897 74.861 286.799 74.763C286.701 74.665 286.652 74.546 286.652 74.406V60.735C286.652 60.581 286.701 60.455 286.799 60.357C286.897 60.259 287.016 60.21 287.156 60.21H296.396C296.55 60.21 296.676 60.259 296.774 60.357C296.872 60.455 296.921 60.581 296.921 60.735V62.121C296.921 62.261 296.872 62.38 296.774 62.478C296.676 62.576 296.55 62.625 296.396 62.625H289.487V66.342H295.934C296.088 66.342 296.214 66.391 296.312 66.489C296.41 66.573 296.459 66.692 296.459 66.846V68.148C296.459 68.302 296.41 68.428 296.312 68.526C296.214 68.61 296.088 68.652 295.934 68.652H289.487V72.495H296.564C296.718 72.495 296.844 72.544 296.942 72.642C297.04 72.74 297.089 72.866 297.089 73.02V74.406C297.089 74.546 297.04 74.665 296.942 74.763C296.844 74.861 296.718 74.91 296.564 74.91H287.156Z" fill="black"/>
<path d="M272.716 75.12C271.414 75.12 270.308 74.896 269.398 74.448C268.502 73.986 267.816 73.335 267.34 72.495C266.864 71.641 266.598 70.619 266.542 69.429C266.528 68.855 266.521 68.239 266.521 67.581C266.521 66.923 266.528 66.293 266.542 65.691C266.598 64.515 266.864 63.5 267.34 62.646C267.83 61.792 268.523 61.141 269.419 60.693C270.329 60.231 271.428 60 272.716 60C273.668 60 274.522 60.126 275.278 60.378C276.034 60.63 276.678 60.98 277.21 61.428C277.742 61.862 278.155 62.373 278.449 62.961C278.743 63.549 278.897 64.186 278.911 64.872C278.925 64.998 278.883 65.103 278.785 65.187C278.701 65.271 278.596 65.313 278.47 65.313H276.475C276.321 65.313 276.195 65.278 276.097 65.208C275.999 65.124 275.929 64.991 275.887 64.809C275.663 63.885 275.278 63.255 274.732 62.919C274.186 62.583 273.507 62.415 272.695 62.415C271.757 62.415 271.008 62.681 270.448 63.213C269.888 63.731 269.587 64.592 269.545 65.796C269.503 66.944 269.503 68.12 269.545 69.324C269.587 70.528 269.888 71.396 270.448 71.928C271.008 72.446 271.757 72.705 272.695 72.705C273.507 72.705 274.186 72.537 274.732 72.201C275.278 71.851 275.663 71.221 275.887 70.311C275.929 70.115 275.999 69.982 276.097 69.912C276.195 69.842 276.321 69.807 276.475 69.807H278.47C278.596 69.807 278.701 69.849 278.785 69.933C278.883 70.017 278.925 70.122 278.911 70.248C278.897 70.934 278.743 71.571 278.449 72.159C278.155 72.747 277.742 73.265 277.21 73.713C276.678 74.147 276.034 74.49 275.278 74.742C274.522 74.994 273.668 75.12 272.716 75.12Z" fill="black"/>
<path d="M247.453 74.91C247.313 74.91 247.194 74.861 247.096 74.763C246.998 74.665 246.949 74.546 246.949 74.406V60.735C246.949 60.581 246.998 60.455 247.096 60.357C247.194 60.259 247.313 60.21 247.453 60.21H249.07C249.266 60.21 249.406 60.259 249.49 60.357C249.588 60.441 249.651 60.504 249.679 60.546L255.727 69.954V60.735C255.727 60.581 255.769 60.455 255.853 60.357C255.951 60.259 256.077 60.21 256.231 60.21H257.995C258.149 60.21 258.275 60.259 258.373 60.357C258.471 60.455 258.52 60.581 258.52 60.735V74.385C258.52 74.539 258.471 74.665 258.373 74.763C258.275 74.861 258.156 74.91 258.016 74.91H256.378C256.182 74.91 256.042 74.861 255.958 74.763C255.874 74.665 255.811 74.602 255.769 74.574L249.742 65.376V74.406C249.742 74.546 249.693 74.665 249.595 74.763C249.497 74.861 249.371 74.91 249.217 74.91H247.453Z" fill="black"/>
<path d="M229.139 74.91C228.999 74.91 228.88 74.861 228.782 74.763C228.684 74.665 228.635 74.546 228.635 74.406V60.735C228.635 60.581 228.684 60.455 228.782 60.357C228.88 60.259 228.999 60.21 229.139 60.21H238.379C238.533 60.21 238.659 60.259 238.757 60.357C238.855 60.455 238.904 60.581 238.904 60.735V62.121C238.904 62.261 238.855 62.38 238.757 62.478C238.659 62.576 238.533 62.625 238.379 62.625H231.47V66.342H237.917C238.071 66.342 238.197 66.391 238.295 66.489C238.393 66.573 238.442 66.692 238.442 66.846V68.148C238.442 68.302 238.393 68.428 238.295 68.526C238.197 68.61 238.071 68.652 237.917 68.652H231.47V72.495H238.547C238.701 72.495 238.827 72.544 238.925 72.642C239.023 72.74 239.072 72.866 239.072 73.02V74.406C239.072 74.546 239.023 74.665 238.925 74.763C238.827 74.861 238.701 74.91 238.547 74.91H229.139Z" fill="black"/>
<path d="M209.759 74.91C209.619 74.91 209.5 74.861 209.402 74.763C209.304 74.665 209.255 74.546 209.255 74.406V60.735C209.255 60.581 209.304 60.455 209.402 60.357C209.5 60.259 209.619 60.21 209.759 60.21H215.198C216.892 60.21 218.229 60.602 219.209 61.386C220.189 62.17 220.679 63.311 220.679 64.809C220.679 65.845 220.42 66.706 219.902 67.392C219.398 68.078 218.719 68.575 217.865 68.883L220.931 74.238C220.973 74.322 220.994 74.399 220.994 74.469C220.994 74.595 220.945 74.7 220.847 74.784C220.763 74.868 220.665 74.91 220.553 74.91H218.642C218.404 74.91 218.222 74.847 218.096 74.721C217.97 74.595 217.872 74.469 217.802 74.343L215.093 69.366H212.174V74.406C212.174 74.546 212.125 74.665 212.027 74.763C211.943 74.861 211.824 74.91 211.67 74.91H209.759ZM212.174 66.993H215.135C215.989 66.993 216.626 66.804 217.046 66.426C217.466 66.034 217.676 65.488 217.676 64.788C217.676 64.088 217.466 63.542 217.046 63.15C216.64 62.744 216.003 62.541 215.135 62.541H212.174V66.993Z" fill="black"/>
<path d="M191.446 74.91C191.306 74.91 191.187 74.861 191.089 74.763C190.991 74.665 190.942 74.546 190.942 74.406V60.735C190.942 60.581 190.991 60.455 191.089 60.357C191.187 60.259 191.306 60.21 191.446 60.21H200.686C200.84 60.21 200.966 60.259 201.064 60.357C201.162 60.455 201.211 60.581 201.211 60.735V62.121C201.211 62.261 201.162 62.38 201.064 62.478C200.966 62.576 200.84 62.625 200.686 62.625H193.777V66.342H200.224C200.378 66.342 200.504 66.391 200.602 66.489C200.7 66.573 200.749 66.692 200.749 66.846V68.148C200.749 68.302 200.7 68.428 200.602 68.526C200.504 68.61 200.378 68.652 200.224 68.652H193.777V72.495H200.854C201.008 72.495 201.134 72.544 201.232 72.642C201.33 72.74 201.379 72.866 201.379 73.02V74.406C201.379 74.546 201.33 74.665 201.232 74.763C201.134 74.861 201.008 74.91 200.854 74.91H191.446Z" fill="black"/>
<path d="M173.584 74.91C173.444 74.91 173.325 74.861 173.227 74.763C173.129 74.665 173.08 74.546 173.08 74.406V60.735C173.08 60.581 173.129 60.455 173.227 60.357C173.325 60.259 173.444 60.21 173.584 60.21H182.698C182.852 60.21 182.978 60.259 183.076 60.357C183.174 60.455 183.223 60.581 183.223 60.735V62.205C183.223 62.359 183.174 62.485 183.076 62.583C182.978 62.667 182.852 62.709 182.698 62.709H175.957V66.699H182.278C182.432 66.699 182.558 66.748 182.656 66.846C182.754 66.944 182.803 67.07 182.803 67.224V68.694C182.803 68.834 182.754 68.953 182.656 69.051C182.558 69.149 182.432 69.198 182.278 69.198H175.957V74.406C175.957 74.546 175.908 74.665 175.81 74.763C175.712 74.861 175.586 74.91 175.432 74.91H173.584Z" fill="black"/>
<path d="M153.486 74.91C153.346 74.91 153.227 74.861 153.129 74.763C153.031 74.665 152.982 74.546 152.982 74.406V60.735C152.982 60.581 153.031 60.455 153.129 60.357C153.227 60.259 153.346 60.21 153.486 60.21H155.103C155.299 60.21 155.439 60.259 155.523 60.357C155.621 60.441 155.684 60.504 155.712 60.546L161.76 69.954V60.735C161.76 60.581 161.802 60.455 161.886 60.357C161.984 60.259 162.11 60.21 162.264 60.21H164.028C164.182 60.21 164.308 60.259 164.406 60.357C164.504 60.455 164.553 60.581 164.553 60.735V74.385C164.553 74.539 164.504 74.665 164.406 74.763C164.308 74.861 164.189 74.91 164.049 74.91H162.411C162.215 74.91 162.075 74.861 161.991 74.763C161.907 74.665 161.844 74.602 161.802 74.574L155.775 65.376V74.406C155.775 74.546 155.726 74.665 155.628 74.763C155.53 74.861 155.404 74.91 155.25 74.91H153.486Z" fill="black"/>
<path d="M138.779 75.12C137.533 75.12 136.462 74.917 135.566 74.511C134.67 74.091 133.97 73.454 133.466 72.6C132.962 71.732 132.689 70.654 132.647 69.366C132.633 68.764 132.626 68.169 132.626 67.581C132.626 66.993 132.633 66.391 132.647 65.775C132.689 64.501 132.969 63.437 133.487 62.583C134.005 61.729 134.712 61.085 135.608 60.651C136.518 60.217 137.575 60 138.779 60C139.983 60 141.04 60.217 141.95 60.651C142.86 61.085 143.574 61.729 144.092 62.583C144.61 63.437 144.89 64.501 144.932 65.775C144.96 66.391 144.974 66.993 144.974 67.581C144.974 68.169 144.96 68.764 144.932 69.366C144.89 70.654 144.617 71.732 144.113 72.6C143.609 73.454 142.902 74.091 141.992 74.511C141.096 74.917 140.025 75.12 138.779 75.12ZM138.779 72.705C139.689 72.705 140.431 72.439 141.005 71.907C141.579 71.361 141.887 70.479 141.929 69.261C141.957 68.645 141.971 68.078 141.971 67.56C141.971 67.028 141.957 66.461 141.929 65.859C141.901 65.047 141.747 64.389 141.467 63.885C141.201 63.367 140.837 62.996 140.375 62.772C139.913 62.534 139.381 62.415 138.779 62.415C138.191 62.415 137.666 62.534 137.204 62.772C136.742 62.996 136.371 63.367 136.091 63.885C135.825 64.389 135.678 65.047 135.65 65.859C135.636 66.461 135.629 67.028 135.629 67.56C135.629 68.078 135.636 68.645 135.65 69.261C135.692 70.479 136 71.361 136.574 71.907C137.148 72.439 137.883 72.705 138.779 72.705Z" fill="black"/>
<path d="M119.195 75.12C117.893 75.12 116.787 74.896 115.877 74.448C114.981 73.986 114.295 73.335 113.819 72.495C113.343 71.641 113.077 70.619 113.021 69.429C113.007 68.855 113 68.239 113 67.581C113 66.923 113.007 66.293 113.021 65.691C113.077 64.515 113.343 63.5 113.819 62.646C114.309 61.792 115.002 61.141 115.898 60.693C116.808 60.231 117.907 60 119.195 60C120.147 60 121.001 60.126 121.757 60.378C122.513 60.63 123.157 60.98 123.689 61.428C124.221 61.862 124.634 62.373 124.928 62.961C125.222 63.549 125.376 64.186 125.39 64.872C125.404 64.998 125.362 65.103 125.264 65.187C125.18 65.271 125.075 65.313 124.949 65.313H122.954C122.8 65.313 122.674 65.278 122.576 65.208C122.478 65.124 122.408 64.991 122.366 64.809C122.142 63.885 121.757 63.255 121.211 62.919C120.665 62.583 119.986 62.415 119.174 62.415C118.236 62.415 117.487 62.681 116.927 63.213C116.367 63.731 116.066 64.592 116.024 65.796C115.982 66.944 115.982 68.12 116.024 69.324C116.066 70.528 116.367 71.396 116.927 71.928C117.487 72.446 118.236 72.705 119.174 72.705C119.986 72.705 120.665 72.537 121.211 72.201C121.757 71.851 122.142 71.221 122.366 70.311C122.408 70.115 122.478 69.982 122.576 69.912C122.674 69.842 122.8 69.807 122.954 69.807H124.949C125.075 69.807 125.18 69.849 125.264 69.933C125.362 70.017 125.404 70.122 125.39 70.248C125.376 70.934 125.222 71.571 124.928 72.159C124.634 72.747 124.221 73.265 123.689 73.713C123.157 74.147 122.513 74.49 121.757 74.742C121.001 74.994 120.147 75.12 119.195 75.12Z" fill="black"/>
</g>
</g>
<defs>
<clipPath id="clip0_71_210">
<rect width="298" height="76" fill="white"/>
</clipPath>
</defs>
</svg>
