<svg width="1646" height="1084" viewBox="0 0 1646 1084" fill="none" xmlns="http://www.w3.org/2000/svg">
<g clip-path="url(#clip0_59_3158)">
<g clip-path="url(#clip1_59_3158)">
<rect width="4938" height="3252" transform="translate(-1646 -1084)" fill="#009DA8"/>
<g filter="url(#filter0_f_59_3158)">
<path fill-rule="evenodd" clip-rule="evenodd" d="M1550.21 -1147C2205.96 -1146.23 2580.08 -479.433 2769.67 147.829C2944.06 724.798 2898.12 1373 2424.79 1746.57C1891.05 2167.83 1124.46 2285.25 583.529 1873.25C70.8295 1482.76 125.57 758.511 321.945 144.968C522.146 -480.528 892.999 -1147.77 1550.21 -1147Z" fill="#00C7D4"/>
</g>
<g filter="url(#filter1_f_59_3158)">
<path fill-rule="evenodd" clip-rule="evenodd" d="M86.4321 -1539.51C249.48 -1618.89 355.945 -1296.67 523.317 -1226.87C703.196 -1151.85 1044.25 -1309.89 1090.81 -1120.62C1152.09 -871.54 695.558 -718.262 711.427 -462.244C723.725 -263.814 1097.24 -265.582 1155.59 -75.5272C1204.86 84.9785 1048.37 237.202 972.055 386.752C882.469 562.309 862.99 888.538 665.965 883.952C403.703 877.848 310.71 502.233 86.4321 366.139C-5.49878 310.355 -124.002 350.24 -231.01 339.661C-382.248 324.711 -539.613 352.158 -678.53 290.518C-846.303 216.075 -1040.38 124.31 -1104.22 -47.7934C-1166.44 -215.548 -1110.39 -428.779 -996.518 -566.779C-879.327 -708.797 -668.004 -717.728 -496.382 -784.403C-393.533 -824.36 -251.928 -794.896 -184.508 -882.246C-37.8821 -1072.22 -129.32 -1434.46 86.4321 -1539.51Z" fill="#FF9ABA"/>
</g>
<g filter="url(#filter2_f_59_3158)">
<path fill-rule="evenodd" clip-rule="evenodd" d="M140.057 550.977C306.146 587.816 483.398 586.085 618.177 689.839C750.809 791.939 797.126 959.505 867.782 1111.18C950.213 1288.14 1055.69 1452.59 1064.33 1647.59C1076.31 1918.35 1134.93 2255.74 926.096 2428.65C719.234 2599.93 394.379 2499.36 140.057 2412.88C-63.441 2343.69 -140.877 2093.59 -334.392 2000.07C-603.107 1870.21 -1084.8 2058.83 -1178.57 1775.64C-1272.1 1493.19 -764.705 1363.39 -633.665 1096.25C-533.028 891.089 -708.757 568.643 -521.91 436.964C-334.335 304.773 -84.0162 501.277 140.057 550.977Z" fill="#FFB54C"/>
</g>
<g filter="url(#filter3_f_59_3158)">
<path fill-rule="evenodd" clip-rule="evenodd" d="M3670.62 -1206.22C3935.71 -1238.32 4171.64 -1009.36 4339.15 -801.281C4482.61 -623.087 4493.06 -383.17 4516.47 -155.552C4535.17 26.1947 4493.72 196.574 4460.27 376.189C4420.6 589.19 4438.84 821.699 4303.04 990.462C4146.37 1185.16 3917.98 1322.54 3670.62 1357.51C3401.64 1395.54 3053.47 1409.42 2893.51 1189.73C2725.67 959.207 3000.91 635.429 2941.74 356.432C2893.26 127.857 2553.69 -0.703163 2592.16 -231.177C2629.73 -456.286 2940.9 -499.466 3110.13 -652.473C3309.83 -833.02 3403.43 -1173.87 3670.62 -1206.22Z" fill="#FFB54C"/>
</g>
<g filter="url(#filter4_f_59_3158)">
<path fill-rule="evenodd" clip-rule="evenodd" d="M2066.59 -855.237C2331.44 -858.165 2392.06 -456.783 2511.34 -220.249C2580.11 -83.873 2554.43 72.9939 2606.99 216.403C2662.96 369.115 2869.46 482.103 2826.22 638.898C2783.42 794.121 2531.34 763.673 2423.19 882.951C2264.23 1058.28 2288.64 1394.93 2066.59 1476.75C1854.83 1554.77 1650.18 1344.69 1449.33 1241.79C1205.33 1116.78 770.746 1087.24 771.129 813.034C771.568 498.389 1248.71 433.035 1450.79 191.902C1547.37 76.6626 1552.7 -80.8806 1628.92 -210.493C1763.9 -440.018 1800.37 -852.294 2066.59 -855.237Z" fill="#FF9ABA"/>
</g>
<g filter="url(#filter5_f_59_3158)">
<path fill-rule="evenodd" clip-rule="evenodd" d="M3210.96 1682.97C3431.88 1701.47 3672.94 1653.6 3840.05 1799.34C4014.67 1951.63 4023.33 2200.99 4066.1 2428.77C4125.14 2743.12 4368.46 3135.16 4131.18 3349.49C3891.44 3566.04 3528.83 3258.48 3210.96 3201.2C2988.29 3161.07 2759.85 3194.09 2571.64 3068.44C2334.51 2910.14 2075.45 2713.18 2053.93 2428.77C2031.66 2134.57 2219 1844.1 2466.9 1684.31C2683.65 1544.59 2954.03 1661.44 3210.96 1682.97Z" fill="#FFB54C"/>
</g>
<g filter="url(#filter6_f_59_3158)">
<path fill-rule="evenodd" clip-rule="evenodd" d="M-155.225 1865.96C114.788 1786.01 332.779 1404.27 592.949 1512.01C832.29 1611.13 674.441 2012.53 775.049 2251.2C871.097 2479.06 1148.3 2618.72 1163.49 2865.52C1179.19 3120.82 1072.42 3416.3 855.038 3551.17C635.263 3687.53 352.763 3551.33 95.1253 3528.39C-68.5668 3513.82 -221.401 3484.37 -379.975 3441.22C-542.095 3397.12 -718.579 3384.38 -844.203 3272.83C-977.501 3154.48 -1080.04 2988.33 -1090.43 2810.39C-1100.58 2636.76 -971.661 2494.38 -898.935 2336.38C-826.46 2178.93 -810.644 1976.91 -664.137 1884.24C-517.723 1791.62 -321.348 1915.15 -155.225 1865.96Z" fill="#00C7D4"/>
</g>
</g>
<rect x="418.75" y="320.5" width="808.5" height="445.5" rx="17.25" fill="#F4F4F5"/>
<rect x="418.75" y="320.5" width="808.5" height="445.5" rx="17.25" stroke="#D4D4D8" stroke-width="1.5"/>
<path d="M598.308 420.75V399.612H606.379C608.498 399.612 610.305 400.018 611.799 400.828C613.303 401.639 614.455 402.825 615.256 404.388C616.057 405.94 616.457 407.835 616.457 410.071V410.101C616.457 412.337 616.057 414.251 615.256 415.843C614.465 417.435 613.317 418.65 611.813 419.49C610.31 420.33 608.498 420.75 606.379 420.75H598.308ZM602.731 417.088H605.852C607.17 417.088 608.283 416.824 609.191 416.297C610.1 415.77 610.783 414.988 611.242 413.953C611.711 412.918 611.945 411.639 611.945 410.115V410.086C611.945 408.611 611.706 407.366 611.228 406.351C610.759 405.335 610.07 404.568 609.162 404.051C608.254 403.523 607.15 403.26 605.852 403.26H602.731V417.088ZM626.096 421.072C624.494 421.072 623.117 420.745 621.965 420.091C620.812 419.427 619.924 418.484 619.299 417.264C618.684 416.043 618.376 414.598 618.376 412.928V412.913C618.376 411.243 618.684 409.798 619.299 408.577C619.924 407.347 620.798 406.399 621.921 405.735C623.054 405.062 624.387 404.725 625.92 404.725C627.453 404.725 628.776 405.052 629.89 405.706C631.013 406.351 631.877 407.264 632.482 408.445C633.098 409.627 633.405 411.009 633.405 412.591V413.909H620.471V411.214H631.384L629.348 413.733V412.093C629.348 411.175 629.206 410.408 628.923 409.793C628.64 409.168 628.244 408.699 627.736 408.387C627.238 408.074 626.657 407.918 625.993 407.918C625.329 407.918 624.738 408.079 624.221 408.401C623.713 408.724 623.312 409.197 623.02 409.822C622.736 410.438 622.595 411.194 622.595 412.093V413.748C622.595 414.617 622.736 415.359 623.02 415.975C623.312 416.59 623.728 417.063 624.265 417.396C624.802 417.718 625.441 417.879 626.184 417.879C626.77 417.879 627.277 417.786 627.707 417.601C628.137 417.415 628.488 417.181 628.762 416.897C629.035 416.614 629.221 416.326 629.318 416.033L629.348 415.945H633.273L633.229 416.106C633.112 416.683 632.883 417.264 632.541 417.85C632.199 418.436 631.735 418.973 631.149 419.461C630.573 419.949 629.865 420.34 629.025 420.633C628.195 420.926 627.219 421.072 626.096 421.072ZM642.077 421.072C640.632 421.072 639.401 420.862 638.386 420.442C637.37 420.022 636.574 419.441 635.998 418.699C635.432 417.947 635.09 417.078 634.973 416.092L634.958 415.96H639.133L639.162 416.092C639.299 416.707 639.606 417.186 640.085 417.527C640.563 417.869 641.228 418.04 642.077 418.04C642.624 418.04 643.088 417.977 643.469 417.85C643.85 417.713 644.143 417.522 644.348 417.278C644.562 417.034 644.67 416.741 644.67 416.399V416.385C644.67 415.965 644.519 415.628 644.216 415.374C643.913 415.12 643.376 414.905 642.604 414.729L639.938 414.173C638.923 413.958 638.073 413.65 637.39 413.25C636.716 412.84 636.208 412.337 635.866 411.741C635.524 411.136 635.354 410.442 635.354 409.661V409.646C635.354 408.641 635.622 407.771 636.159 407.039C636.696 406.307 637.458 405.74 638.444 405.34C639.44 404.93 640.603 404.725 641.931 404.725C643.317 404.725 644.494 404.949 645.461 405.398C646.438 405.838 647.185 406.434 647.702 407.186C648.229 407.938 648.508 408.772 648.537 409.69V409.837H644.597L644.582 409.72C644.514 409.153 644.25 408.685 643.791 408.313C643.342 407.933 642.722 407.742 641.931 407.742C641.442 407.742 641.018 407.811 640.656 407.947C640.295 408.084 640.017 408.279 639.821 408.533C639.626 408.777 639.528 409.07 639.528 409.412V409.427C639.528 409.69 639.592 409.93 639.719 410.145C639.855 410.35 640.08 410.53 640.393 410.687C640.705 410.843 641.125 410.979 641.652 411.097L644.318 411.668C645.969 412.01 647.15 412.522 647.863 413.206C648.586 413.89 648.947 414.808 648.947 415.96V415.975C648.947 417 648.654 417.894 648.068 418.655C647.482 419.417 646.672 420.013 645.637 420.442C644.611 420.862 643.425 421.072 642.077 421.072ZM658.234 421.072C656.643 421.072 655.266 420.74 654.104 420.076C652.941 419.412 652.048 418.47 651.423 417.249C650.798 416.019 650.485 414.563 650.485 412.884V412.869C650.485 411.189 650.798 409.744 651.423 408.533C652.058 407.312 652.951 406.375 654.104 405.721C655.266 405.057 656.628 404.725 658.19 404.725C659.616 404.725 660.852 404.993 661.896 405.53C662.941 406.058 663.757 406.775 664.343 407.684C664.938 408.592 665.266 409.612 665.324 410.745V410.848H661.354L661.325 410.716C661.198 409.964 660.876 409.339 660.358 408.841C659.841 408.333 659.138 408.079 658.249 408.079C657.556 408.079 656.95 408.274 656.433 408.665C655.925 409.046 655.529 409.598 655.246 410.32C654.973 411.033 654.836 411.888 654.836 412.884V412.898C654.836 413.924 654.973 414.798 655.246 415.521C655.529 416.233 655.925 416.78 656.433 417.161C656.95 417.532 657.561 417.718 658.264 417.718C659.123 417.718 659.812 417.479 660.329 417C660.856 416.512 661.193 415.872 661.34 415.081L661.354 414.949H665.339V415.037C665.271 416.18 664.938 417.205 664.343 418.113C663.747 419.021 662.927 419.744 661.882 420.281C660.847 420.809 659.631 421.072 658.234 421.072ZM667.404 420.75V405.047H671.682V407.786H671.77C672.004 406.819 672.429 406.067 673.044 405.53C673.659 404.993 674.426 404.725 675.344 404.725C675.578 404.725 675.803 404.739 676.018 404.769C676.232 404.798 676.418 404.837 676.574 404.886V408.65C676.398 408.582 676.174 408.528 675.9 408.489C675.627 408.44 675.334 408.416 675.021 408.416C674.318 408.416 673.718 408.553 673.22 408.826C672.722 409.1 672.341 409.5 672.077 410.027C671.813 410.555 671.682 411.199 671.682 411.961V420.75H667.404ZM678.42 420.75V405.047H682.697V420.75H678.42ZM680.559 403.025C679.914 403.025 679.372 402.806 678.933 402.366C678.493 401.927 678.273 401.404 678.273 400.799C678.273 400.184 678.493 399.661 678.933 399.231C679.372 398.792 679.914 398.572 680.559 398.572C681.203 398.572 681.745 398.792 682.185 399.231C682.624 399.661 682.844 400.184 682.844 400.799C682.844 401.404 682.624 401.927 682.185 402.366C681.745 402.806 681.203 403.025 680.559 403.025ZM694.87 421.072C694.118 421.072 693.43 420.95 692.805 420.706C692.18 420.462 691.633 420.12 691.164 419.681C690.695 419.231 690.319 418.694 690.036 418.069H689.948V420.75H685.671V399.612H689.948V407.771H690.036C690.329 407.137 690.71 406.595 691.179 406.146C691.647 405.687 692.194 405.335 692.819 405.091C693.454 404.847 694.143 404.725 694.885 404.725C696.203 404.725 697.336 405.052 698.283 405.706C699.24 406.351 699.978 407.283 700.495 408.504C701.013 409.715 701.271 411.175 701.271 412.884V412.898C701.271 414.598 701.013 416.058 700.495 417.278C699.978 418.499 699.24 419.437 698.283 420.091C697.326 420.745 696.188 421.072 694.87 421.072ZM693.449 417.527C694.162 417.527 694.777 417.342 695.295 416.971C695.812 416.59 696.213 416.053 696.496 415.359C696.779 414.666 696.921 413.846 696.921 412.898V412.884C696.921 411.927 696.779 411.106 696.496 410.423C696.213 409.729 695.808 409.197 695.28 408.826C694.763 408.455 694.152 408.27 693.449 408.27C692.756 408.27 692.146 408.46 691.618 408.841C691.101 409.212 690.69 409.744 690.388 410.438C690.095 411.121 689.948 411.937 689.948 412.884V412.898C689.948 413.846 690.095 414.666 690.388 415.359C690.681 416.053 691.091 416.59 691.618 416.971C692.146 417.342 692.756 417.527 693.449 417.527ZM710.617 421.072C709.016 421.072 707.639 420.745 706.486 420.091C705.334 419.427 704.445 418.484 703.82 417.264C703.205 416.043 702.897 414.598 702.897 412.928V412.913C702.897 411.243 703.205 409.798 703.82 408.577C704.445 407.347 705.319 406.399 706.442 405.735C707.575 405.062 708.908 404.725 710.441 404.725C711.975 404.725 713.298 405.052 714.411 405.706C715.534 406.351 716.398 407.264 717.004 408.445C717.619 409.627 717.927 411.009 717.927 412.591V413.909H704.992V411.214H715.905L713.869 413.733V412.093C713.869 411.175 713.728 410.408 713.444 409.793C713.161 409.168 712.766 408.699 712.258 408.387C711.76 408.074 711.179 407.918 710.515 407.918C709.851 407.918 709.26 408.079 708.742 408.401C708.234 408.724 707.834 409.197 707.541 409.822C707.258 410.438 707.116 411.194 707.116 412.093V413.748C707.116 414.617 707.258 415.359 707.541 415.975C707.834 416.59 708.249 417.063 708.786 417.396C709.323 417.718 709.963 417.879 710.705 417.879C711.291 417.879 711.799 417.786 712.229 417.601C712.658 417.415 713.01 417.181 713.283 416.897C713.557 416.614 713.742 416.326 713.84 416.033L713.869 415.945H717.795L717.751 416.106C717.634 416.683 717.404 417.264 717.062 417.85C716.721 418.436 716.257 418.973 715.671 419.461C715.095 419.949 714.387 420.34 713.547 420.633C712.717 420.926 711.74 421.072 710.617 421.072ZM732.326 421.072C730.588 421.072 729.299 420.706 728.459 419.974C727.619 419.241 727.199 418.035 727.199 416.355V408.27H725.017V405.047H727.199V401.209H731.521V405.047H734.392V408.27H731.521V415.887C731.521 416.619 731.682 417.132 732.004 417.425C732.336 417.708 732.824 417.85 733.469 417.85C733.664 417.85 733.835 417.845 733.981 417.835C734.128 417.815 734.265 417.796 734.392 417.776V420.911C734.157 420.95 733.864 420.984 733.513 421.014C733.171 421.053 732.775 421.072 732.326 421.072ZM736.853 420.75V399.612H741.13V407.757H741.218C741.628 406.78 742.238 406.033 743.049 405.516C743.869 404.988 744.865 404.725 746.037 404.725C747.18 404.725 748.161 404.979 748.981 405.486C749.802 405.984 750.432 406.692 750.871 407.61C751.32 408.528 751.545 409.622 751.545 410.892V420.75H747.268V411.771C747.268 410.677 747.004 409.822 746.477 409.207C745.959 408.582 745.212 408.27 744.235 408.27C743.61 408.27 743.063 408.421 742.595 408.724C742.136 409.017 741.774 409.427 741.511 409.954C741.257 410.472 741.13 411.072 741.13 411.756V420.75H736.853ZM761.447 421.072C759.846 421.072 758.469 420.745 757.316 420.091C756.164 419.427 755.275 418.484 754.65 417.264C754.035 416.043 753.728 414.598 753.728 412.928V412.913C753.728 411.243 754.035 409.798 754.65 408.577C755.275 407.347 756.149 406.399 757.272 405.735C758.405 405.062 759.738 404.725 761.271 404.725C762.805 404.725 764.128 405.052 765.241 405.706C766.364 406.351 767.229 407.264 767.834 408.445C768.449 409.627 768.757 411.009 768.757 412.591V413.909H755.822V411.214H766.735L764.699 413.733V412.093C764.699 411.175 764.558 410.408 764.274 409.793C763.991 409.168 763.596 408.699 763.088 408.387C762.59 408.074 762.009 407.918 761.345 407.918C760.681 407.918 760.09 408.079 759.572 408.401C759.064 408.724 758.664 409.197 758.371 409.822C758.088 410.438 757.946 411.194 757.946 412.093V413.748C757.946 414.617 758.088 415.359 758.371 415.975C758.664 416.59 759.079 417.063 759.616 417.396C760.153 417.718 760.793 417.879 761.535 417.879C762.121 417.879 762.629 417.786 763.059 417.601C763.488 417.415 763.84 417.181 764.113 416.897C764.387 416.614 764.572 416.326 764.67 416.033L764.699 415.945H768.625L768.581 416.106C768.464 416.683 768.234 417.264 767.893 417.85C767.551 418.436 767.087 418.973 766.501 419.461C765.925 419.949 765.217 420.34 764.377 420.633C763.547 420.926 762.57 421.072 761.447 421.072ZM781.062 420.75L775.627 405.047H780.197L783.479 416.971H783.566L786.804 405.047H791.271L785.881 420.75H781.062ZM792.854 420.75V405.047H797.131V420.75H792.854ZM794.992 403.025C794.348 403.025 793.806 402.806 793.366 402.366C792.927 401.927 792.707 401.404 792.707 400.799C792.707 400.184 792.927 399.661 793.366 399.231C793.806 398.792 794.348 398.572 794.992 398.572C795.637 398.572 796.179 398.792 796.618 399.231C797.058 399.661 797.277 400.184 797.277 400.799C797.277 401.404 797.058 401.927 796.618 402.366C796.179 402.806 795.637 403.025 794.992 403.025ZM809.304 421.072C808.552 421.072 807.863 420.95 807.238 420.706C806.613 420.462 806.066 420.12 805.598 419.681C805.129 419.231 804.753 418.694 804.47 418.069H804.382V420.75H800.104V399.612H804.382V407.771H804.47C804.763 407.137 805.144 406.595 805.612 406.146C806.081 405.687 806.628 405.335 807.253 405.091C807.888 404.847 808.576 404.725 809.318 404.725C810.637 404.725 811.77 405.052 812.717 405.706C813.674 406.351 814.411 407.283 814.929 408.504C815.446 409.715 815.705 411.175 815.705 412.884V412.898C815.705 414.598 815.446 416.058 814.929 417.278C814.411 418.499 813.674 419.437 812.717 420.091C811.76 420.745 810.622 421.072 809.304 421.072ZM807.883 417.527C808.596 417.527 809.211 417.342 809.729 416.971C810.246 416.59 810.646 416.053 810.93 415.359C811.213 414.666 811.354 413.846 811.354 412.898V412.884C811.354 411.927 811.213 411.106 810.93 410.423C810.646 409.729 810.241 409.197 809.714 408.826C809.196 408.455 808.586 408.27 807.883 408.27C807.189 408.27 806.579 408.46 806.052 408.841C805.534 409.212 805.124 409.744 804.821 410.438C804.528 411.121 804.382 411.937 804.382 412.884V412.898C804.382 413.846 804.528 414.666 804.821 415.359C805.114 416.053 805.524 416.59 806.052 416.971C806.579 417.342 807.189 417.527 807.883 417.527ZM825.051 421.072C823.449 421.072 822.072 420.745 820.92 420.091C819.768 419.427 818.879 418.484 818.254 417.264C817.639 416.043 817.331 414.598 817.331 412.928V412.913C817.331 411.243 817.639 409.798 818.254 408.577C818.879 407.347 819.753 406.399 820.876 405.735C822.009 405.062 823.342 404.725 824.875 404.725C826.408 404.725 827.731 405.052 828.845 405.706C829.968 406.351 830.832 407.264 831.438 408.445C832.053 409.627 832.36 411.009 832.36 412.591V413.909H819.426V411.214H830.339L828.303 413.733V412.093C828.303 411.175 828.161 410.408 827.878 409.793C827.595 409.168 827.199 408.699 826.691 408.387C826.193 408.074 825.612 407.918 824.948 407.918C824.284 407.918 823.693 408.079 823.176 408.401C822.668 408.724 822.268 409.197 821.975 409.822C821.691 410.438 821.55 411.194 821.55 412.093V413.748C821.55 414.617 821.691 415.359 821.975 415.975C822.268 416.59 822.683 417.063 823.22 417.396C823.757 417.718 824.396 417.879 825.139 417.879C825.725 417.879 826.232 417.786 826.662 417.601C827.092 417.415 827.443 417.181 827.717 416.897C827.99 416.614 828.176 416.326 828.273 416.033L828.303 415.945H832.229L832.185 416.106C832.067 416.683 831.838 417.264 831.496 417.85C831.154 418.436 830.69 418.973 830.104 419.461C829.528 419.949 828.82 420.34 827.98 420.633C827.15 420.926 826.174 421.072 825.051 421.072ZM842.98 425.921C842.561 425.921 842.155 425.901 841.765 425.862C841.374 425.823 841.052 425.779 840.798 425.73V422.552C840.954 422.581 841.154 422.61 841.398 422.64C841.643 422.679 841.921 422.698 842.233 422.698C842.878 422.698 843.386 422.591 843.757 422.376C844.128 422.161 844.406 421.79 844.592 421.263L844.782 420.75L839.23 405.047H843.933L847.478 418.172L846.906 417.322H847.712L847.141 418.172L850.686 405.047H855.197L849.807 421.028C849.396 422.259 848.879 423.23 848.254 423.943C847.639 424.656 846.896 425.164 846.027 425.467C845.158 425.77 844.143 425.921 842.98 425.921ZM863.342 421.072C861.75 421.072 860.373 420.745 859.211 420.091C858.049 419.437 857.15 418.499 856.516 417.278C855.881 416.058 855.563 414.598 855.563 412.898V412.869C855.563 411.18 855.886 409.729 856.53 408.519C857.175 407.298 858.078 406.36 859.24 405.706C860.402 405.052 861.765 404.725 863.327 404.725C864.899 404.725 866.267 405.052 867.429 405.706C868.601 406.351 869.509 407.283 870.153 408.504C870.798 409.715 871.12 411.17 871.12 412.869V412.898C871.12 414.607 870.798 416.072 870.153 417.293C869.519 418.514 868.62 419.451 867.458 420.105C866.296 420.75 864.924 421.072 863.342 421.072ZM863.356 417.718C864.05 417.718 864.65 417.532 865.158 417.161C865.676 416.78 866.071 416.233 866.345 415.521C866.628 414.798 866.77 413.924 866.77 412.898V412.869C866.77 411.854 866.628 410.989 866.345 410.276C866.062 409.563 865.661 409.021 865.144 408.65C864.626 408.27 864.021 408.079 863.327 408.079C862.644 408.079 862.043 408.27 861.525 408.65C861.018 409.021 860.622 409.563 860.339 410.276C860.056 410.989 859.914 411.854 859.914 412.869V412.898C859.914 413.924 860.051 414.798 860.324 415.521C860.607 416.233 861.008 416.78 861.525 417.161C862.043 417.532 862.653 417.718 863.356 417.718ZM878.679 421.072C877.526 421.072 876.545 420.838 875.734 420.369C874.934 419.891 874.318 419.212 873.889 418.333C873.469 417.454 873.259 416.404 873.259 415.184V405.047H877.536V414.29C877.536 415.315 877.775 416.111 878.254 416.678C878.742 417.244 879.465 417.527 880.422 417.527C880.9 417.527 881.33 417.444 881.711 417.278C882.102 417.112 882.434 416.878 882.707 416.575C882.98 416.263 883.19 415.896 883.337 415.477C883.483 415.047 883.557 414.578 883.557 414.07V405.047H887.834V420.75H883.557V418.157H883.469C883.195 418.753 882.834 419.271 882.385 419.71C881.945 420.149 881.413 420.486 880.788 420.721C880.173 420.955 879.47 421.072 878.679 421.072ZM890.295 407.713L891.35 399.612H895.393L893.254 407.713H890.295ZM896.77 420.75V405.047H901.047V407.786H901.135C901.369 406.819 901.794 406.067 902.409 405.53C903.024 404.993 903.791 404.725 904.709 404.725C904.943 404.725 905.168 404.739 905.383 404.769C905.598 404.798 905.783 404.837 905.939 404.886V408.65C905.764 408.582 905.539 408.528 905.266 408.489C904.992 408.44 904.699 408.416 904.387 408.416C903.684 408.416 903.083 408.553 902.585 408.826C902.087 409.1 901.706 409.5 901.442 410.027C901.179 410.555 901.047 411.199 901.047 411.961V420.75H896.77ZM914.348 421.072C912.746 421.072 911.369 420.745 910.217 420.091C909.064 419.427 908.176 418.484 907.551 417.264C906.936 416.043 906.628 414.598 906.628 412.928V412.913C906.628 411.243 906.936 409.798 907.551 408.577C908.176 407.347 909.05 406.399 910.173 405.735C911.306 405.062 912.639 404.725 914.172 404.725C915.705 404.725 917.028 405.052 918.142 405.706C919.265 406.351 920.129 407.264 920.734 408.445C921.35 409.627 921.657 411.009 921.657 412.591V413.909H908.723V411.214H919.636L917.6 413.733V412.093C917.6 411.175 917.458 410.408 917.175 409.793C916.892 409.168 916.496 408.699 915.988 408.387C915.49 408.074 914.909 407.918 914.245 407.918C913.581 407.918 912.99 408.079 912.473 408.401C911.965 408.724 911.564 409.197 911.271 409.822C910.988 410.438 910.847 411.194 910.847 412.093V413.748C910.847 414.617 910.988 415.359 911.271 415.975C911.564 416.59 911.979 417.063 912.517 417.396C913.054 417.718 913.693 417.879 914.436 417.879C915.021 417.879 915.529 417.786 915.959 417.601C916.389 417.415 916.74 417.181 917.014 416.897C917.287 416.614 917.473 416.326 917.57 416.033L917.6 415.945H921.525L921.481 416.106C921.364 416.683 921.135 417.264 920.793 417.85C920.451 418.436 919.987 418.973 919.401 419.461C918.825 419.949 918.117 420.34 917.277 420.633C916.447 420.926 915.471 421.072 914.348 421.072ZM937.155 426.199C935.72 426.199 934.465 425.999 933.391 425.599C932.326 425.208 931.477 424.676 930.842 424.002C930.217 423.328 929.836 422.571 929.699 421.731L929.685 421.6H933.845L933.889 421.702C934.064 422.083 934.431 422.42 934.987 422.713C935.544 423.006 936.267 423.152 937.155 423.152C938.259 423.152 939.099 422.889 939.675 422.361C940.251 421.834 940.539 421.131 940.539 420.252V417.85H940.451C940.178 418.396 939.807 418.87 939.338 419.271C938.869 419.671 938.317 419.983 937.683 420.208C937.058 420.423 936.364 420.53 935.603 420.53C934.294 420.53 933.161 420.218 932.204 419.593C931.257 418.968 930.524 418.074 930.007 416.912C929.499 415.74 929.245 414.344 929.245 412.723V412.708C929.245 411.038 929.504 409.607 930.021 408.416C930.549 407.225 931.291 406.312 932.248 405.677C933.205 405.042 934.348 404.725 935.676 404.725C936.418 404.725 937.097 404.847 937.712 405.091C938.327 405.335 938.864 405.682 939.323 406.131C939.792 406.58 940.168 407.112 940.451 407.728H940.539V405.047H944.816V420.311C944.816 421.473 944.504 422.493 943.879 423.372C943.264 424.261 942.38 424.954 941.228 425.452C940.085 425.95 938.728 426.199 937.155 426.199ZM937.082 417.396C937.785 417.396 938.396 417.21 938.913 416.839C939.431 416.468 939.831 415.94 940.114 415.257C940.407 414.573 940.554 413.763 940.554 412.825V412.811C940.554 411.873 940.407 411.067 940.114 410.394C939.831 409.71 939.426 409.188 938.898 408.826C938.381 408.455 937.775 408.27 937.082 408.27C936.379 408.27 935.764 408.455 935.236 408.826C934.709 409.188 934.304 409.705 934.021 410.379C933.737 411.053 933.596 411.863 933.596 412.811V412.825C933.596 413.763 933.737 414.573 934.021 415.257C934.304 415.94 934.709 416.468 935.236 416.839C935.764 417.21 936.379 417.396 937.082 417.396ZM954.836 421.072C953.244 421.072 951.867 420.745 950.705 420.091C949.543 419.437 948.645 418.499 948.01 417.278C947.375 416.058 947.058 414.598 947.058 412.898V412.869C947.058 411.18 947.38 409.729 948.024 408.519C948.669 407.298 949.572 406.36 950.734 405.706C951.896 405.052 953.259 404.725 954.821 404.725C956.394 404.725 957.761 405.052 958.923 405.706C960.095 406.351 961.003 407.283 961.647 408.504C962.292 409.715 962.614 411.17 962.614 412.869V412.898C962.614 414.607 962.292 416.072 961.647 417.293C961.013 418.514 960.114 419.451 958.952 420.105C957.79 420.75 956.418 421.072 954.836 421.072ZM954.851 417.718C955.544 417.718 956.145 417.532 956.652 417.161C957.17 416.78 957.565 416.233 957.839 415.521C958.122 414.798 958.264 413.924 958.264 412.898V412.869C958.264 411.854 958.122 410.989 957.839 410.276C957.556 409.563 957.155 409.021 956.638 408.65C956.12 408.27 955.515 408.079 954.821 408.079C954.138 408.079 953.537 408.27 953.02 408.65C952.512 409.021 952.116 409.563 951.833 410.276C951.55 410.989 951.408 411.854 951.408 412.869V412.898C951.408 413.924 951.545 414.798 951.818 415.521C952.102 416.233 952.502 416.78 953.02 417.161C953.537 417.532 954.147 417.718 954.851 417.718ZM964.914 420.75V405.047H969.191V420.75H964.914ZM967.053 403.025C966.408 403.025 965.866 402.806 965.427 402.366C964.987 401.927 964.768 401.404 964.768 400.799C964.768 400.184 964.987 399.661 965.427 399.231C965.866 398.792 966.408 398.572 967.053 398.572C967.697 398.572 968.239 398.792 968.679 399.231C969.118 399.661 969.338 400.184 969.338 400.799C969.338 401.404 969.118 401.927 968.679 402.366C968.239 402.806 967.697 403.025 967.053 403.025ZM972.062 420.75V405.047H976.34V407.625H976.428C976.838 406.727 977.443 406.019 978.244 405.501C979.045 404.983 980.036 404.725 981.218 404.725C982.946 404.725 984.279 405.247 985.217 406.292C986.164 407.327 986.638 408.768 986.638 410.613V420.75H982.36V411.492C982.36 410.467 982.116 409.676 981.628 409.119C981.149 408.553 980.432 408.27 979.475 408.27C978.84 408.27 978.288 408.416 977.819 408.709C977.351 408.992 976.984 409.393 976.721 409.91C976.467 410.428 976.34 411.033 976.34 411.727V420.75H972.062ZM996.687 426.199C995.251 426.199 993.996 425.999 992.922 425.599C991.857 425.208 991.008 424.676 990.373 424.002C989.748 423.328 989.367 422.571 989.23 421.731L989.216 421.6H993.376L993.42 421.702C993.596 422.083 993.962 422.42 994.519 422.713C995.075 423.006 995.798 423.152 996.687 423.152C997.79 423.152 998.63 422.889 999.206 422.361C999.782 421.834 1000.07 421.131 1000.07 420.252V417.85H999.982C999.709 418.396 999.338 418.87 998.869 419.271C998.4 419.671 997.849 419.983 997.214 420.208C996.589 420.423 995.896 420.53 995.134 420.53C993.825 420.53 992.692 420.218 991.735 419.593C990.788 418.968 990.056 418.074 989.538 416.912C989.03 415.74 988.776 414.344 988.776 412.723V412.708C988.776 411.038 989.035 409.607 989.553 408.416C990.08 407.225 990.822 406.312 991.779 405.677C992.736 405.042 993.879 404.725 995.207 404.725C995.949 404.725 996.628 404.847 997.243 405.091C997.858 405.335 998.396 405.682 998.854 406.131C999.323 406.58 999.699 407.112 999.982 407.728H1000.07V405.047H1004.35V420.311C1004.35 421.473 1004.04 422.493 1003.41 423.372C1002.79 424.261 1001.91 424.954 1000.76 425.452C999.616 425.95 998.259 426.199 996.687 426.199ZM996.613 417.396C997.316 417.396 997.927 417.21 998.444 416.839C998.962 416.468 999.362 415.94 999.646 415.257C999.938 414.573 1000.08 413.763 1000.08 412.825V412.811C1000.08 411.873 999.938 411.067 999.646 410.394C999.362 409.71 998.957 409.188 998.43 408.826C997.912 408.455 997.307 408.27 996.613 408.27C995.91 408.27 995.295 408.455 994.768 408.826C994.24 409.188 993.835 409.705 993.552 410.379C993.269 411.053 993.127 411.863 993.127 412.811V412.825C993.127 413.763 993.269 414.573 993.552 415.257C993.835 415.94 994.24 416.468 994.768 416.839C995.295 417.21 995.91 417.396 996.613 417.396ZM1014.25 420.75V408.27H1012.11V405.047H1014.25V403.787C1014.25 402.762 1014.42 401.917 1014.76 401.253C1015.11 400.589 1015.67 400.096 1016.42 399.773C1017.18 399.451 1018.18 399.29 1019.42 399.29C1019.81 399.29 1020.21 399.31 1020.61 399.349C1021.01 399.378 1021.33 399.417 1021.57 399.466V402.293C1021.43 402.264 1021.26 402.244 1021.06 402.234C1020.87 402.225 1020.67 402.22 1020.48 402.22C1019.77 402.22 1019.25 402.366 1018.92 402.659C1018.59 402.952 1018.42 403.382 1018.42 403.948V405.047H1021.54V408.27H1018.53V420.75H1014.25ZM1029.92 421.072C1028.33 421.072 1026.96 420.745 1025.79 420.091C1024.63 419.437 1023.73 418.499 1023.1 417.278C1022.46 416.058 1022.15 414.598 1022.15 412.898V412.869C1022.15 411.18 1022.47 409.729 1023.11 408.519C1023.76 407.298 1024.66 406.36 1025.82 405.706C1026.98 405.052 1028.35 404.725 1029.91 404.725C1031.48 404.725 1032.85 405.052 1034.01 405.706C1035.18 406.351 1036.09 407.283 1036.74 408.504C1037.38 409.715 1037.7 411.17 1037.7 412.869V412.898C1037.7 414.607 1037.38 416.072 1036.74 417.293C1036.1 418.514 1035.2 419.451 1034.04 420.105C1032.88 420.75 1031.51 421.072 1029.92 421.072ZM1029.94 417.718C1030.63 417.718 1031.23 417.532 1031.74 417.161C1032.26 416.78 1032.65 416.233 1032.93 415.521C1033.21 414.798 1033.35 413.924 1033.35 412.898V412.869C1033.35 411.854 1033.21 410.989 1032.93 410.276C1032.64 409.563 1032.24 409.021 1031.73 408.65C1031.21 408.27 1030.6 408.079 1029.91 408.079C1029.23 408.079 1028.62 408.27 1028.11 408.65C1027.6 409.021 1027.2 409.563 1026.92 410.276C1026.64 410.989 1026.5 411.854 1026.5 412.869V412.898C1026.5 413.924 1026.63 414.798 1026.91 415.521C1027.19 416.233 1027.59 416.78 1028.11 417.161C1028.62 417.532 1029.24 417.718 1029.94 417.718ZM1039.91 420.75V405.047H1044.19V407.786H1044.28C1044.51 406.819 1044.94 406.067 1045.55 405.53C1046.17 404.993 1046.94 404.725 1047.85 404.725C1048.09 404.725 1048.31 404.739 1048.53 404.769C1048.74 404.798 1048.93 404.837 1049.08 404.886V408.65C1048.91 408.582 1048.68 408.528 1048.41 408.489C1048.14 408.44 1047.84 408.416 1047.53 408.416C1046.83 408.416 1046.23 408.553 1045.73 408.826C1045.23 409.1 1044.85 409.5 1044.59 410.027C1044.32 410.555 1044.19 411.199 1044.19 411.961V420.75H1039.91Z" fill="black"/>
<path d="M610.703 486.75V469.84H621.18V471.738H612.812V477.164H620.746V479.039H612.812V484.852H621.18V486.75H610.703ZM623.852 486.75V474.48H625.891V476.25H625.961C626.289 475.656 626.762 475.176 627.379 474.809C628.004 474.434 628.777 474.246 629.699 474.246C631.051 474.246 632.098 474.652 632.84 475.465C633.582 476.27 633.953 477.379 633.953 478.793V486.75H631.914V479.18C631.914 478.156 631.68 477.379 631.211 476.848C630.742 476.316 630.035 476.051 629.09 476.051C628.441 476.051 627.875 476.195 627.391 476.484C626.914 476.766 626.543 477.168 626.277 477.691C626.02 478.207 625.891 478.816 625.891 479.52V486.75H623.852ZM640.797 486.961C639.648 486.961 638.793 486.695 638.23 486.164C637.676 485.633 637.398 484.781 637.398 483.609V476.168H635.57V474.48H637.398V471.188H639.508V474.48H641.91V476.168H639.508V483.504C639.508 484.176 639.648 484.637 639.93 484.887C640.211 485.129 640.633 485.25 641.195 485.25C641.328 485.25 641.453 485.246 641.57 485.238C641.688 485.223 641.801 485.211 641.91 485.203V486.867C641.77 486.891 641.598 486.91 641.395 486.926C641.199 486.949 641 486.961 640.797 486.961ZM648.953 486.984C647.781 486.984 646.773 486.727 645.93 486.211C645.086 485.688 644.438 484.953 643.984 484.008C643.531 483.062 643.305 481.949 643.305 480.668V480.656C643.305 479.383 643.531 478.266 643.984 477.305C644.445 476.344 645.086 475.594 645.906 475.055C646.734 474.516 647.707 474.246 648.824 474.246C649.941 474.246 650.902 474.504 651.707 475.02C652.512 475.535 653.129 476.258 653.559 477.188C653.996 478.109 654.215 479.184 654.215 480.41V481.172H644.336V479.578H653.195L652.164 481.055V480.258C652.164 479.305 652.02 478.52 651.73 477.902C651.449 477.277 651.055 476.812 650.547 476.508C650.047 476.203 649.469 476.051 648.812 476.051C648.156 476.051 647.566 476.211 647.043 476.531C646.527 476.852 646.121 477.324 645.824 477.949C645.527 478.574 645.379 479.344 645.379 480.258V481.055C645.379 481.922 645.523 482.664 645.812 483.281C646.109 483.891 646.527 484.359 647.066 484.688C647.613 485.016 648.258 485.18 649 485.18C649.523 485.18 649.988 485.102 650.395 484.945C650.809 484.789 651.152 484.578 651.426 484.312C651.699 484.039 651.895 483.734 652.012 483.398L652.047 483.293H654.062L654.039 483.41C653.93 483.895 653.734 484.355 653.453 484.793C653.172 485.223 652.809 485.602 652.363 485.93C651.918 486.258 651.406 486.516 650.828 486.703C650.258 486.891 649.633 486.984 648.953 486.984ZM656.477 486.75V474.48H658.516V476.508H658.586C658.797 475.812 659.16 475.262 659.676 474.855C660.191 474.449 660.805 474.246 661.516 474.246C661.703 474.246 661.871 474.258 662.02 474.281C662.176 474.297 662.297 474.312 662.383 474.328V476.309C662.273 476.277 662.117 476.25 661.914 476.227C661.719 476.203 661.5 476.191 661.258 476.191C660.711 476.191 660.23 476.312 659.816 476.555C659.402 476.789 659.082 477.129 658.855 477.574C658.629 478.02 658.516 478.551 658.516 479.168V486.75H656.477ZM672.977 486.984C672.18 486.984 671.473 486.832 670.855 486.527C670.238 486.223 669.758 485.793 669.414 485.238C669.07 484.676 668.898 484.027 668.898 483.293V483.27C668.898 482.559 669.07 481.949 669.414 481.441C669.766 480.926 670.273 480.52 670.938 480.223C671.609 479.926 672.414 479.75 673.352 479.695L677.887 479.426V481.02L673.586 481.289C672.75 481.336 672.105 481.531 671.652 481.875C671.207 482.219 670.984 482.68 670.984 483.258V483.281C670.984 483.875 671.207 484.348 671.652 484.699C672.105 485.043 672.699 485.215 673.434 485.215C674.082 485.215 674.664 485.078 675.18 484.805C675.695 484.531 676.105 484.16 676.41 483.691C676.715 483.223 676.867 482.695 676.867 482.109V478.441C676.867 477.699 676.633 477.117 676.164 476.695C675.695 476.266 675.027 476.051 674.16 476.051C673.387 476.051 672.758 476.215 672.273 476.543C671.797 476.871 671.496 477.305 671.371 477.844L671.348 477.938H669.367L669.379 477.82C669.449 477.148 669.684 476.543 670.082 476.004C670.488 475.465 671.039 475.039 671.734 474.727C672.43 474.406 673.25 474.246 674.195 474.246C675.172 474.246 676.008 474.414 676.703 474.75C677.406 475.078 677.949 475.543 678.332 476.145C678.715 476.746 678.906 477.461 678.906 478.289V486.75H676.867V484.793H676.797C676.555 485.238 676.238 485.625 675.848 485.953C675.457 486.281 675.02 486.535 674.535 486.715C674.051 486.895 673.531 486.984 672.977 486.984ZM686.969 486.75V474.48H689.008V476.25H689.078C689.406 475.656 689.879 475.176 690.496 474.809C691.121 474.434 691.895 474.246 692.816 474.246C694.168 474.246 695.215 474.652 695.957 475.465C696.699 476.27 697.07 477.379 697.07 478.793V486.75H695.031V479.18C695.031 478.156 694.797 477.379 694.328 476.848C693.859 476.316 693.152 476.051 692.207 476.051C691.559 476.051 690.992 476.195 690.508 476.484C690.031 476.766 689.66 477.168 689.395 477.691C689.137 478.207 689.008 478.816 689.008 479.52V486.75H686.969ZM703.398 486.984C702.602 486.984 701.895 486.832 701.277 486.527C700.66 486.223 700.18 485.793 699.836 485.238C699.492 484.676 699.32 484.027 699.32 483.293V483.27C699.32 482.559 699.492 481.949 699.836 481.441C700.188 480.926 700.695 480.52 701.359 480.223C702.031 479.926 702.836 479.75 703.773 479.695L708.309 479.426V481.02L704.008 481.289C703.172 481.336 702.527 481.531 702.074 481.875C701.629 482.219 701.406 482.68 701.406 483.258V483.281C701.406 483.875 701.629 484.348 702.074 484.699C702.527 485.043 703.121 485.215 703.855 485.215C704.504 485.215 705.086 485.078 705.602 484.805C706.117 484.531 706.527 484.16 706.832 483.691C707.137 483.223 707.289 482.695 707.289 482.109V478.441C707.289 477.699 707.055 477.117 706.586 476.695C706.117 476.266 705.449 476.051 704.582 476.051C703.809 476.051 703.18 476.215 702.695 476.543C702.219 476.871 701.918 477.305 701.793 477.844L701.77 477.938H699.789L699.801 477.82C699.871 477.148 700.105 476.543 700.504 476.004C700.91 475.465 701.461 475.039 702.156 474.727C702.852 474.406 703.672 474.246 704.617 474.246C705.594 474.246 706.43 474.414 707.125 474.75C707.828 475.078 708.371 475.543 708.754 476.145C709.137 476.746 709.328 477.461 709.328 478.289V486.75H707.289V484.793H707.219C706.977 485.238 706.66 485.625 706.27 485.953C705.879 486.281 705.441 486.535 704.957 486.715C704.473 486.895 703.953 486.984 703.398 486.984ZM712.141 486.75V474.48H714.18V476.285H714.25C714.523 475.668 714.953 475.176 715.539 474.809C716.125 474.434 716.812 474.246 717.602 474.246C718.164 474.246 718.668 474.34 719.113 474.527C719.566 474.707 719.957 474.973 720.285 475.324C720.613 475.668 720.863 476.082 721.035 476.566H721.105C721.332 476.082 721.637 475.668 722.02 475.324C722.402 474.98 722.84 474.715 723.332 474.527C723.832 474.34 724.367 474.246 724.938 474.246C725.75 474.246 726.453 474.414 727.047 474.75C727.648 475.078 728.109 475.543 728.43 476.145C728.758 476.738 728.922 477.449 728.922 478.277V486.75H726.883V478.746C726.883 478.176 726.781 477.691 726.578 477.293C726.383 476.887 726.098 476.578 725.723 476.367C725.348 476.156 724.883 476.051 724.328 476.051C723.781 476.051 723.297 476.176 722.875 476.426C722.461 476.676 722.137 477.02 721.902 477.457C721.668 477.895 721.551 478.387 721.551 478.934V486.75H719.512V478.512C719.512 478.012 719.406 477.578 719.195 477.211C718.984 476.844 718.691 476.559 718.316 476.355C717.941 476.152 717.5 476.051 716.992 476.051C716.453 476.051 715.969 476.188 715.539 476.461C715.117 476.727 714.785 477.086 714.543 477.539C714.301 477.992 714.18 478.504 714.18 479.074V486.75H712.141ZM736.75 486.984C735.578 486.984 734.57 486.727 733.727 486.211C732.883 485.688 732.234 484.953 731.781 484.008C731.328 483.062 731.102 481.949 731.102 480.668V480.656C731.102 479.383 731.328 478.266 731.781 477.305C732.242 476.344 732.883 475.594 733.703 475.055C734.531 474.516 735.504 474.246 736.621 474.246C737.738 474.246 738.699 474.504 739.504 475.02C740.309 475.535 740.926 476.258 741.355 477.188C741.793 478.109 742.012 479.184 742.012 480.41V481.172H732.133V479.578H740.992L739.961 481.055V480.258C739.961 479.305 739.816 478.52 739.527 477.902C739.246 477.277 738.852 476.812 738.344 476.508C737.844 476.203 737.266 476.051 736.609 476.051C735.953 476.051 735.363 476.211 734.84 476.531C734.324 476.852 733.918 477.324 733.621 477.949C733.324 478.574 733.176 479.344 733.176 480.258V481.055C733.176 481.922 733.32 482.664 733.609 483.281C733.906 483.891 734.324 484.359 734.863 484.688C735.41 485.016 736.055 485.18 736.797 485.18C737.32 485.18 737.785 485.102 738.191 484.945C738.605 484.789 738.949 484.578 739.223 484.312C739.496 484.039 739.691 483.734 739.809 483.398L739.844 483.293H741.859L741.836 483.41C741.727 483.895 741.531 484.355 741.25 484.793C740.969 485.223 740.605 485.602 740.16 485.93C739.715 486.258 739.203 486.516 738.625 486.703C738.055 486.891 737.43 486.984 736.75 486.984ZM754.598 486.984C753.457 486.984 752.461 486.727 751.609 486.211C750.758 485.688 750.094 484.949 749.617 483.996C749.148 483.043 748.914 481.918 748.914 480.621V480.598C748.914 479.285 749.148 478.156 749.617 477.211C750.094 476.266 750.758 475.535 751.609 475.02C752.461 474.504 753.453 474.246 754.586 474.246C755.727 474.246 756.723 474.504 757.574 475.02C758.426 475.535 759.086 476.266 759.555 477.211C760.031 478.156 760.27 479.285 760.27 480.598V480.621C760.27 481.926 760.031 483.055 759.555 484.008C759.086 484.953 758.426 485.688 757.574 486.211C756.73 486.727 755.738 486.984 754.598 486.984ZM754.609 485.18C755.344 485.18 755.977 485 756.508 484.641C757.039 484.281 757.449 483.762 757.738 483.082C758.035 482.402 758.184 481.582 758.184 480.621V480.598C758.184 479.637 758.035 478.816 757.738 478.137C757.449 477.457 757.035 476.941 756.496 476.59C755.957 476.23 755.32 476.051 754.586 476.051C753.867 476.051 753.238 476.23 752.699 476.59C752.16 476.949 751.742 477.469 751.445 478.148C751.148 478.82 751 479.637 751 480.598V480.621C751 481.582 751.148 482.402 751.445 483.082C751.742 483.762 752.16 484.281 752.699 484.641C753.238 485 753.875 485.18 754.609 485.18ZM762.531 486.75V474.48H764.57V476.508H764.641C764.852 475.812 765.215 475.262 765.73 474.855C766.246 474.449 766.859 474.246 767.57 474.246C767.758 474.246 767.926 474.258 768.074 474.281C768.23 474.297 768.352 474.312 768.438 474.328V476.309C768.328 476.277 768.172 476.25 767.969 476.227C767.773 476.203 767.555 476.191 767.312 476.191C766.766 476.191 766.285 476.312 765.871 476.555C765.457 476.789 765.137 477.129 764.91 477.574C764.684 478.02 764.57 478.551 764.57 479.168V486.75H762.531ZM775.645 486.75V469.711H777.684V486.75H775.645ZM783.391 486.75L778.703 480.855L780.086 479.508L785.793 486.75H783.391ZM777.262 482.52L777.25 479.883H777.754L783.121 474.48H785.594L779.781 480.246L779.559 480.328L777.262 482.52ZM791.852 486.984C790.68 486.984 789.672 486.727 788.828 486.211C787.984 485.688 787.336 484.953 786.883 484.008C786.43 483.062 786.203 481.949 786.203 480.668V480.656C786.203 479.383 786.43 478.266 786.883 477.305C787.344 476.344 787.984 475.594 788.805 475.055C789.633 474.516 790.605 474.246 791.723 474.246C792.84 474.246 793.801 474.504 794.605 475.02C795.41 475.535 796.027 476.258 796.457 477.188C796.895 478.109 797.113 479.184 797.113 480.41V481.172H787.234V479.578H796.094L795.062 481.055V480.258C795.062 479.305 794.918 478.52 794.629 477.902C794.348 477.277 793.953 476.812 793.445 476.508C792.945 476.203 792.367 476.051 791.711 476.051C791.055 476.051 790.465 476.211 789.941 476.531C789.426 476.852 789.02 477.324 788.723 477.949C788.426 478.574 788.277 479.344 788.277 480.258V481.055C788.277 481.922 788.422 482.664 788.711 483.281C789.008 483.891 789.426 484.359 789.965 484.688C790.512 485.016 791.156 485.18 791.898 485.18C792.422 485.18 792.887 485.102 793.293 484.945C793.707 484.789 794.051 484.578 794.324 484.312C794.598 484.039 794.793 483.734 794.91 483.398L794.945 483.293H796.961L796.938 483.41C796.828 483.895 796.633 484.355 796.352 484.793C796.07 485.223 795.707 485.602 795.262 485.93C794.816 486.258 794.305 486.516 793.727 486.703C793.156 486.891 792.531 486.984 791.852 486.984ZM800.102 490.91C799.922 490.91 799.734 490.898 799.539 490.875C799.352 490.859 799.188 490.84 799.047 490.816V489.152C799.141 489.168 799.246 489.184 799.363 489.199C799.488 489.215 799.613 489.223 799.738 489.223C800.379 489.223 800.891 489.102 801.273 488.859C801.656 488.625 801.969 488.16 802.211 487.465L802.445 486.762L797.898 474.48H800.078L803.664 485.285L803.16 484.676H803.828L803.336 485.285L806.922 474.48H809.066L804.273 487.512C803.977 488.316 803.645 488.969 803.277 489.469C802.918 489.969 802.484 490.332 801.977 490.559C801.469 490.793 800.844 490.91 800.102 490.91ZM813.297 486.75L809.863 474.48H811.891L814.34 484.43H814.41L817.176 474.48H819.145L821.922 484.43H821.992L824.441 474.48H826.457L823.035 486.75H820.961L818.195 477.258H818.125L815.371 486.75H813.297ZM833.301 486.984C832.16 486.984 831.164 486.727 830.312 486.211C829.461 485.688 828.797 484.949 828.32 483.996C827.852 483.043 827.617 481.918 827.617 480.621V480.598C827.617 479.285 827.852 478.156 828.32 477.211C828.797 476.266 829.461 475.535 830.312 475.02C831.164 474.504 832.156 474.246 833.289 474.246C834.43 474.246 835.426 474.504 836.277 475.02C837.129 475.535 837.789 476.266 838.258 477.211C838.734 478.156 838.973 479.285 838.973 480.598V480.621C838.973 481.926 838.734 483.055 838.258 484.008C837.789 484.953 837.129 485.688 836.277 486.211C835.434 486.727 834.441 486.984 833.301 486.984ZM833.312 485.18C834.047 485.18 834.68 485 835.211 484.641C835.742 484.281 836.152 483.762 836.441 483.082C836.738 482.402 836.887 481.582 836.887 480.621V480.598C836.887 479.637 836.738 478.816 836.441 478.137C836.152 477.457 835.738 476.941 835.199 476.59C834.66 476.23 834.023 476.051 833.289 476.051C832.57 476.051 831.941 476.23 831.402 476.59C830.863 476.949 830.445 477.469 830.148 478.148C829.852 478.82 829.703 479.637 829.703 480.598V480.621C829.703 481.582 829.852 482.402 830.148 483.082C830.445 483.762 830.863 484.281 831.402 484.641C831.941 485 832.578 485.18 833.312 485.18ZM841.234 486.75V474.48H843.273V476.508H843.344C843.555 475.812 843.918 475.262 844.434 474.855C844.949 474.449 845.562 474.246 846.273 474.246C846.461 474.246 846.629 474.258 846.777 474.281C846.934 474.297 847.055 474.312 847.141 474.328V476.309C847.031 476.277 846.875 476.25 846.672 476.227C846.477 476.203 846.258 476.191 846.016 476.191C845.469 476.191 844.988 476.312 844.574 476.555C844.16 476.789 843.84 477.129 843.613 477.574C843.387 478.02 843.273 478.551 843.273 479.168V486.75H841.234ZM853 486.984C851.961 486.984 851.051 486.723 850.27 486.199C849.488 485.676 848.879 484.938 848.441 483.984C848.012 483.023 847.797 481.902 847.797 480.621V480.609C847.797 479.32 848.016 478.199 848.453 477.246C848.891 476.293 849.496 475.555 850.27 475.031C851.043 474.508 851.945 474.246 852.977 474.246C853.555 474.246 854.09 474.34 854.582 474.527C855.082 474.707 855.527 474.969 855.918 475.312C856.316 475.648 856.637 476.047 856.879 476.508H856.949V469.711H858.988V486.75H856.949V484.699H856.879C856.629 485.176 856.312 485.582 855.93 485.918C855.547 486.254 855.109 486.516 854.617 486.703C854.125 486.891 853.586 486.984 853 486.984ZM853.41 485.18C854.113 485.18 854.73 484.992 855.262 484.617C855.801 484.234 856.219 483.703 856.516 483.023C856.82 482.336 856.973 481.535 856.973 480.621V480.609C856.973 479.688 856.82 478.887 856.516 478.207C856.211 477.527 855.793 477 855.262 476.625C854.73 476.242 854.113 476.051 853.41 476.051C852.684 476.051 852.055 476.238 851.523 476.613C851 476.98 850.594 477.504 850.305 478.184C850.023 478.855 849.883 479.664 849.883 480.609V480.621C849.883 481.559 850.023 482.371 850.305 483.059C850.594 483.738 851 484.262 851.523 484.629C852.055 484.996 852.684 485.18 853.41 485.18ZM866.301 486.984C865.348 486.984 864.52 486.836 863.816 486.539C863.121 486.234 862.57 485.812 862.164 485.273C861.758 484.727 861.512 484.094 861.426 483.375L861.414 483.293H863.465L863.488 483.387C863.621 483.98 863.922 484.445 864.391 484.781C864.859 485.117 865.504 485.285 866.324 485.285C866.879 485.285 867.355 485.211 867.754 485.062C868.152 484.914 868.461 484.703 868.68 484.43C868.898 484.156 869.008 483.832 869.008 483.457V483.445C869.008 483.008 868.867 482.656 868.586 482.391C868.312 482.117 867.82 481.891 867.109 481.711L865.164 481.242C864.398 481.055 863.762 480.812 863.254 480.516C862.746 480.211 862.367 479.84 862.117 479.402C861.875 478.965 861.754 478.453 861.754 477.867V477.855C861.754 477.152 861.945 476.531 862.328 475.992C862.711 475.445 863.242 475.02 863.922 474.715C864.609 474.402 865.391 474.246 866.266 474.246C867.156 474.246 867.934 474.402 868.598 474.715C869.262 475.02 869.785 475.441 870.168 475.98C870.559 476.52 870.781 477.129 870.836 477.809L870.848 477.938H868.891L868.879 477.867C868.793 477.289 868.523 476.824 868.07 476.473C867.625 476.121 867.023 475.945 866.266 475.945C865.773 475.945 865.344 476.023 864.977 476.18C864.609 476.328 864.328 476.539 864.133 476.812C863.938 477.078 863.84 477.395 863.84 477.762V477.773C863.84 478.047 863.906 478.297 864.039 478.523C864.172 478.742 864.379 478.934 864.66 479.098C864.949 479.262 865.32 479.398 865.773 479.508L867.707 479.977C868.934 480.273 869.805 480.684 870.32 481.207C870.836 481.73 871.094 482.43 871.094 483.305V483.316C871.094 484.035 870.887 484.672 870.473 485.227C870.059 485.773 869.488 486.203 868.762 486.516C868.035 486.828 867.215 486.984 866.301 486.984ZM882.719 486.961C881.57 486.961 880.715 486.695 880.152 486.164C879.598 485.633 879.32 484.781 879.32 483.609V476.168H877.492V474.48H879.32V471.188H881.43V474.48H883.832V476.168H881.43V483.504C881.43 484.176 881.57 484.637 881.852 484.887C882.133 485.129 882.555 485.25 883.117 485.25C883.25 485.25 883.375 485.246 883.492 485.238C883.609 485.223 883.723 485.211 883.832 485.203V486.867C883.691 486.891 883.52 486.91 883.316 486.926C883.121 486.949 882.922 486.961 882.719 486.961ZM890.91 486.984C889.77 486.984 888.773 486.727 887.922 486.211C887.07 485.688 886.406 484.949 885.93 483.996C885.461 483.043 885.227 481.918 885.227 480.621V480.598C885.227 479.285 885.461 478.156 885.93 477.211C886.406 476.266 887.07 475.535 887.922 475.02C888.773 474.504 889.766 474.246 890.898 474.246C892.039 474.246 893.035 474.504 893.887 475.02C894.738 475.535 895.398 476.266 895.867 477.211C896.344 478.156 896.582 479.285 896.582 480.598V480.621C896.582 481.926 896.344 483.055 895.867 484.008C895.398 484.953 894.738 485.688 893.887 486.211C893.043 486.727 892.051 486.984 890.91 486.984ZM890.922 485.18C891.656 485.18 892.289 485 892.82 484.641C893.352 484.281 893.762 483.762 894.051 483.082C894.348 482.402 894.496 481.582 894.496 480.621V480.598C894.496 479.637 894.348 478.816 894.051 478.137C893.762 477.457 893.348 476.941 892.809 476.59C892.27 476.23 891.633 476.051 890.898 476.051C890.18 476.051 889.551 476.23 889.012 476.59C888.473 476.949 888.055 477.469 887.758 478.148C887.461 478.82 887.312 479.637 887.312 480.598V480.621C887.312 481.582 887.461 482.402 887.758 483.082C888.055 483.762 888.473 484.281 889.012 484.641C889.551 485 890.188 485.18 890.922 485.18ZM908.418 486.984C907.465 486.984 906.637 486.836 905.934 486.539C905.238 486.234 904.688 485.812 904.281 485.273C903.875 484.727 903.629 484.094 903.543 483.375L903.531 483.293H905.582L905.605 483.387C905.738 483.98 906.039 484.445 906.508 484.781C906.977 485.117 907.621 485.285 908.441 485.285C908.996 485.285 909.473 485.211 909.871 485.062C910.27 484.914 910.578 484.703 910.797 484.43C911.016 484.156 911.125 483.832 911.125 483.457V483.445C911.125 483.008 910.984 482.656 910.703 482.391C910.43 482.117 909.938 481.891 909.227 481.711L907.281 481.242C906.516 481.055 905.879 480.812 905.371 480.516C904.863 480.211 904.484 479.84 904.234 479.402C903.992 478.965 903.871 478.453 903.871 477.867V477.855C903.871 477.152 904.062 476.531 904.445 475.992C904.828 475.445 905.359 475.02 906.039 474.715C906.727 474.402 907.508 474.246 908.383 474.246C909.273 474.246 910.051 474.402 910.715 474.715C911.379 475.02 911.902 475.441 912.285 475.98C912.676 476.52 912.898 477.129 912.953 477.809L912.965 477.938H911.008L910.996 477.867C910.91 477.289 910.641 476.824 910.188 476.473C909.742 476.121 909.141 475.945 908.383 475.945C907.891 475.945 907.461 476.023 907.094 476.18C906.727 476.328 906.445 476.539 906.25 476.812C906.055 477.078 905.957 477.395 905.957 477.762V477.773C905.957 478.047 906.023 478.297 906.156 478.523C906.289 478.742 906.496 478.934 906.777 479.098C907.066 479.262 907.438 479.398 907.891 479.508L909.824 479.977C911.051 480.273 911.922 480.684 912.438 481.207C912.953 481.73 913.211 482.43 913.211 483.305V483.316C913.211 484.035 913.004 484.672 912.59 485.227C912.176 485.773 911.605 486.203 910.879 486.516C910.152 486.828 909.332 486.984 908.418 486.984ZM920.57 486.984C919.398 486.984 918.391 486.727 917.547 486.211C916.703 485.688 916.055 484.953 915.602 484.008C915.148 483.062 914.922 481.949 914.922 480.668V480.656C914.922 479.383 915.148 478.266 915.602 477.305C916.062 476.344 916.703 475.594 917.523 475.055C918.352 474.516 919.324 474.246 920.441 474.246C921.559 474.246 922.52 474.504 923.324 475.02C924.129 475.535 924.746 476.258 925.176 477.188C925.613 478.109 925.832 479.184 925.832 480.41V481.172H915.953V479.578H924.812L923.781 481.055V480.258C923.781 479.305 923.637 478.52 923.348 477.902C923.066 477.277 922.672 476.812 922.164 476.508C921.664 476.203 921.086 476.051 920.43 476.051C919.773 476.051 919.184 476.211 918.66 476.531C918.145 476.852 917.738 477.324 917.441 477.949C917.145 478.574 916.996 479.344 916.996 480.258V481.055C916.996 481.922 917.141 482.664 917.43 483.281C917.727 483.891 918.145 484.359 918.684 484.688C919.23 485.016 919.875 485.18 920.617 485.18C921.141 485.18 921.605 485.102 922.012 484.945C922.426 484.789 922.77 484.578 923.043 484.312C923.316 484.039 923.512 483.734 923.629 483.398L923.664 483.293H925.68L925.656 483.41C925.547 483.895 925.352 484.355 925.07 484.793C924.789 485.223 924.426 485.602 923.98 485.93C923.535 486.258 923.023 486.516 922.445 486.703C921.875 486.891 921.25 486.984 920.57 486.984ZM932.148 486.961C931 486.961 930.145 486.695 929.582 486.164C929.027 485.633 928.75 484.781 928.75 483.609V476.168H926.922V474.48H928.75V471.188H930.859V474.48H933.262V476.168H930.859V483.504C930.859 484.176 931 484.637 931.281 484.887C931.562 485.129 931.984 485.25 932.547 485.25C932.68 485.25 932.805 485.246 932.922 485.238C933.039 485.223 933.152 485.211 933.262 485.203V486.867C933.121 486.891 932.949 486.91 932.746 486.926C932.551 486.949 932.352 486.961 932.148 486.961ZM944.898 486.961C943.75 486.961 942.895 486.695 942.332 486.164C941.777 485.633 941.5 484.781 941.5 483.609V476.168H939.672V474.48H941.5V471.188H943.609V474.48H946.012V476.168H943.609V483.504C943.609 484.176 943.75 484.637 944.031 484.887C944.312 485.129 944.734 485.25 945.297 485.25C945.43 485.25 945.555 485.246 945.672 485.238C945.789 485.223 945.902 485.211 946.012 485.203V486.867C945.871 486.891 945.699 486.91 945.496 486.926C945.301 486.949 945.102 486.961 944.898 486.961ZM948.449 486.75V469.711H950.488V476.414H950.559C950.887 475.734 951.371 475.203 952.012 474.82C952.652 474.438 953.426 474.246 954.332 474.246C955.215 474.246 955.98 474.453 956.629 474.867C957.285 475.273 957.793 475.844 958.152 476.578C958.52 477.312 958.703 478.172 958.703 479.156V486.75H956.664V479.531C956.664 478.422 956.402 477.566 955.879 476.965C955.363 476.355 954.621 476.051 953.652 476.051C953.02 476.051 952.465 476.199 951.988 476.496C951.512 476.793 951.141 477.203 950.875 477.727C950.617 478.25 950.488 478.863 950.488 479.566V486.75H948.449ZM966.531 486.984C965.359 486.984 964.352 486.727 963.508 486.211C962.664 485.688 962.016 484.953 961.562 484.008C961.109 483.062 960.883 481.949 960.883 480.668V480.656C960.883 479.383 961.109 478.266 961.562 477.305C962.023 476.344 962.664 475.594 963.484 475.055C964.312 474.516 965.285 474.246 966.402 474.246C967.52 474.246 968.48 474.504 969.285 475.02C970.09 475.535 970.707 476.258 971.137 477.188C971.574 478.109 971.793 479.184 971.793 480.41V481.172H961.914V479.578H970.773L969.742 481.055V480.258C969.742 479.305 969.598 478.52 969.309 477.902C969.027 477.277 968.633 476.812 968.125 476.508C967.625 476.203 967.047 476.051 966.391 476.051C965.734 476.051 965.145 476.211 964.621 476.531C964.105 476.852 963.699 477.324 963.402 477.949C963.105 478.574 962.957 479.344 962.957 480.258V481.055C962.957 481.922 963.102 482.664 963.391 483.281C963.688 483.891 964.105 484.359 964.645 484.688C965.191 485.016 965.836 485.18 966.578 485.18C967.102 485.18 967.566 485.102 967.973 484.945C968.387 484.789 968.73 484.578 969.004 484.312C969.277 484.039 969.473 483.734 969.59 483.398L969.625 483.293H971.641L971.617 483.41C971.508 483.895 971.312 484.355 971.031 484.793C970.75 485.223 970.387 485.602 969.941 485.93C969.496 486.258 968.984 486.516 968.406 486.703C967.836 486.891 967.211 486.984 966.531 486.984ZM979.305 486.75V474.48H981.344V476.285H981.414C981.688 475.668 982.117 475.176 982.703 474.809C983.289 474.434 983.977 474.246 984.766 474.246C985.328 474.246 985.832 474.34 986.277 474.527C986.73 474.707 987.121 474.973 987.449 475.324C987.777 475.668 988.027 476.082 988.199 476.566H988.27C988.496 476.082 988.801 475.668 989.184 475.324C989.566 474.98 990.004 474.715 990.496 474.527C990.996 474.34 991.531 474.246 992.102 474.246C992.914 474.246 993.617 474.414 994.211 474.75C994.812 475.078 995.273 475.543 995.594 476.145C995.922 476.738 996.086 477.449 996.086 478.277V486.75H994.047V478.746C994.047 478.176 993.945 477.691 993.742 477.293C993.547 476.887 993.262 476.578 992.887 476.367C992.512 476.156 992.047 476.051 991.492 476.051C990.945 476.051 990.461 476.176 990.039 476.426C989.625 476.676 989.301 477.02 989.066 477.457C988.832 477.895 988.715 478.387 988.715 478.934V486.75H986.676V478.512C986.676 478.012 986.57 477.578 986.359 477.211C986.148 476.844 985.855 476.559 985.48 476.355C985.105 476.152 984.664 476.051 984.156 476.051C983.617 476.051 983.133 476.188 982.703 476.461C982.281 476.727 981.949 477.086 981.707 477.539C981.465 477.992 981.344 478.504 981.344 479.074V486.75H979.305ZM1003.95 486.984C1002.81 486.984 1001.81 486.727 1000.96 486.211C1000.11 485.688 999.445 484.949 998.969 483.996C998.5 483.043 998.266 481.918 998.266 480.621V480.598C998.266 479.285 998.5 478.156 998.969 477.211C999.445 476.266 1000.11 475.535 1000.96 475.02C1001.81 474.504 1002.8 474.246 1003.94 474.246C1005.08 474.246 1006.07 474.504 1006.93 475.02C1007.78 475.535 1008.44 476.266 1008.91 477.211C1009.38 478.156 1009.62 479.285 1009.62 480.598V480.621C1009.62 481.926 1009.38 483.055 1008.91 484.008C1008.44 484.953 1007.78 485.688 1006.93 486.211C1006.08 486.727 1005.09 486.984 1003.95 486.984ZM1003.96 485.18C1004.7 485.18 1005.33 485 1005.86 484.641C1006.39 484.281 1006.8 483.762 1007.09 483.082C1007.39 482.402 1007.54 481.582 1007.54 480.621V480.598C1007.54 479.637 1007.39 478.816 1007.09 478.137C1006.8 477.457 1006.39 476.941 1005.85 476.59C1005.31 476.23 1004.67 476.051 1003.94 476.051C1003.22 476.051 1002.59 476.23 1002.05 476.59C1001.51 476.949 1001.09 477.469 1000.8 478.148C1000.5 478.82 1000.35 479.637 1000.35 480.598V480.621C1000.35 481.582 1000.5 482.402 1000.8 483.082C1001.09 483.762 1001.51 484.281 1002.05 484.641C1002.59 485 1003.23 485.18 1003.96 485.18ZM1016.96 486.984C1015.82 486.984 1014.82 486.727 1013.97 486.211C1013.12 485.688 1012.45 484.949 1011.98 483.996C1011.51 483.043 1011.27 481.918 1011.27 480.621V480.598C1011.27 479.285 1011.51 478.156 1011.98 477.211C1012.45 476.266 1013.12 475.535 1013.97 475.02C1014.82 474.504 1015.81 474.246 1016.95 474.246C1018.09 474.246 1019.08 474.504 1019.93 475.02C1020.79 475.535 1021.45 476.266 1021.91 477.211C1022.39 478.156 1022.63 479.285 1022.63 480.598V480.621C1022.63 481.926 1022.39 483.055 1021.91 484.008C1021.45 484.953 1020.79 485.688 1019.93 486.211C1019.09 486.727 1018.1 486.984 1016.96 486.984ZM1016.97 485.18C1017.7 485.18 1018.34 485 1018.87 484.641C1019.4 484.281 1019.81 483.762 1020.1 483.082C1020.39 482.402 1020.54 481.582 1020.54 480.621V480.598C1020.54 479.637 1020.39 478.816 1020.1 478.137C1019.81 477.457 1019.39 476.941 1018.86 476.59C1018.32 476.23 1017.68 476.051 1016.95 476.051C1016.23 476.051 1015.6 476.23 1015.06 476.59C1014.52 476.949 1014.1 477.469 1013.8 478.148C1013.51 478.82 1013.36 479.637 1013.36 480.598V480.621C1013.36 481.582 1013.51 482.402 1013.8 483.082C1014.1 483.762 1014.52 484.281 1015.06 484.641C1015.6 485 1016.23 485.18 1016.97 485.18ZM1029.48 486.984C1028.45 486.984 1027.54 486.723 1026.75 486.199C1025.97 485.676 1025.36 484.938 1024.93 483.984C1024.5 483.023 1024.28 481.902 1024.28 480.621V480.609C1024.28 479.32 1024.5 478.199 1024.94 477.246C1025.38 476.293 1025.98 475.555 1026.75 475.031C1027.53 474.508 1028.43 474.246 1029.46 474.246C1030.04 474.246 1030.57 474.34 1031.07 474.527C1031.57 474.707 1032.01 474.969 1032.4 475.312C1032.8 475.648 1033.12 476.047 1033.36 476.508H1033.43V469.711H1035.47V486.75H1033.43V484.699H1033.36C1033.11 485.176 1032.8 485.582 1032.41 485.918C1032.03 486.254 1031.59 486.516 1031.1 486.703C1030.61 486.891 1030.07 486.984 1029.48 486.984ZM1029.89 485.18C1030.6 485.18 1031.21 484.992 1031.75 484.617C1032.29 484.234 1032.7 483.703 1033 483.023C1033.3 482.336 1033.46 481.535 1033.46 480.621V480.609C1033.46 479.688 1033.3 478.887 1033 478.207C1032.7 477.527 1032.28 477 1031.75 476.625C1031.21 476.242 1030.6 476.051 1029.89 476.051C1029.17 476.051 1028.54 476.238 1028.01 476.613C1027.48 476.98 1027.08 477.504 1026.79 478.184C1026.51 478.855 1026.37 479.664 1026.37 480.609V480.621C1026.37 481.559 1026.51 482.371 1026.79 483.059C1027.08 483.738 1027.48 484.262 1028.01 484.629C1028.54 484.996 1029.17 485.18 1029.89 485.18Z" fill="black"/>
<rect x="490.75" y="541.5" width="664.5" height="63.5" rx="5.25" stroke="#9E9E9E" stroke-width="1.5"/>
<path d="M521.266 582.055C520.047 582.055 518.973 581.863 518.043 581.48C517.121 581.098 516.391 580.555 515.852 579.852C515.312 579.148 515.004 578.32 514.926 577.367L514.914 577.203H517.023L517.047 577.367C517.125 577.93 517.352 578.418 517.727 578.832C518.102 579.238 518.602 579.555 519.227 579.781C519.852 580 520.57 580.109 521.383 580.109C522.188 580.109 522.887 579.992 523.48 579.758C524.074 579.523 524.535 579.191 524.863 578.762C525.191 578.332 525.355 577.828 525.355 577.25V577.238C525.355 576.504 525.098 575.91 524.582 575.457C524.066 575.004 523.227 574.648 522.062 574.391L520.188 573.98C518.531 573.613 517.309 573.047 516.52 572.281C515.73 571.516 515.336 570.516 515.336 569.281V569.27C515.344 568.34 515.602 567.52 516.109 566.809C516.617 566.098 517.316 565.543 518.207 565.145C519.105 564.738 520.133 564.535 521.289 564.535C522.398 564.535 523.387 564.734 524.254 565.133C525.121 565.531 525.812 566.078 526.328 566.773C526.844 567.469 527.133 568.273 527.195 569.188L527.207 569.352H525.098L525.074 569.199C524.988 568.629 524.777 568.145 524.441 567.746C524.113 567.34 523.676 567.027 523.129 566.809C522.59 566.59 521.957 566.48 521.23 566.48C520.488 566.48 519.836 566.594 519.273 566.82C518.711 567.047 518.273 567.363 517.961 567.77C517.648 568.176 517.492 568.656 517.492 569.211V569.223C517.492 569.91 517.75 570.477 518.266 570.922C518.789 571.367 519.605 571.715 520.715 571.965L522.59 572.375C523.754 572.625 524.695 572.957 525.414 573.371C526.141 573.785 526.672 574.297 527.008 574.906C527.344 575.516 527.512 576.246 527.512 577.098V577.109C527.512 578.117 527.258 578.992 526.75 579.734C526.25 580.477 525.531 581.051 524.594 581.457C523.656 581.855 522.547 582.055 521.266 582.055ZM534.039 581.984C533.141 581.984 532.375 581.801 531.742 581.434C531.109 581.066 530.625 580.543 530.289 579.863C529.961 579.184 529.797 578.375 529.797 577.438V569.48H531.836V577.051C531.836 578.074 532.066 578.852 532.527 579.383C532.988 579.914 533.695 580.18 534.648 580.18C535.141 580.18 535.582 580.098 535.973 579.934C536.371 579.77 536.711 579.535 536.992 579.23C537.273 578.926 537.488 578.562 537.637 578.141C537.785 577.711 537.859 577.234 537.859 576.711V569.48H539.898V581.75H537.859V579.992H537.789C537.57 580.375 537.285 580.719 536.934 581.023C536.59 581.32 536.176 581.555 535.691 581.727C535.207 581.898 534.656 581.984 534.039 581.984ZM542.758 581.75V569.48H544.797V571.25H544.867C545.195 570.656 545.668 570.176 546.285 569.809C546.91 569.434 547.684 569.246 548.605 569.246C549.957 569.246 551.004 569.652 551.746 570.465C552.488 571.27 552.859 572.379 552.859 573.793V581.75H550.82V574.18C550.82 573.156 550.586 572.379 550.117 571.848C549.648 571.316 548.941 571.051 547.996 571.051C547.348 571.051 546.781 571.195 546.297 571.484C545.82 571.766 545.449 572.168 545.184 572.691C544.926 573.207 544.797 573.816 544.797 574.52V581.75H542.758ZM559.973 581.984C559.02 581.984 558.191 581.836 557.488 581.539C556.793 581.234 556.242 580.812 555.836 580.273C555.43 579.727 555.184 579.094 555.098 578.375L555.086 578.293H557.137L557.16 578.387C557.293 578.98 557.594 579.445 558.062 579.781C558.531 580.117 559.176 580.285 559.996 580.285C560.551 580.285 561.027 580.211 561.426 580.062C561.824 579.914 562.133 579.703 562.352 579.43C562.57 579.156 562.68 578.832 562.68 578.457V578.445C562.68 578.008 562.539 577.656 562.258 577.391C561.984 577.117 561.492 576.891 560.781 576.711L558.836 576.242C558.07 576.055 557.434 575.812 556.926 575.516C556.418 575.211 556.039 574.84 555.789 574.402C555.547 573.965 555.426 573.453 555.426 572.867V572.855C555.426 572.152 555.617 571.531 556 570.992C556.383 570.445 556.914 570.02 557.594 569.715C558.281 569.402 559.062 569.246 559.938 569.246C560.828 569.246 561.605 569.402 562.27 569.715C562.934 570.02 563.457 570.441 563.84 570.98C564.23 571.52 564.453 572.129 564.508 572.809L564.52 572.938H562.562L562.551 572.867C562.465 572.289 562.195 571.824 561.742 571.473C561.297 571.121 560.695 570.945 559.938 570.945C559.445 570.945 559.016 571.023 558.648 571.18C558.281 571.328 558 571.539 557.805 571.812C557.609 572.078 557.512 572.395 557.512 572.762V572.773C557.512 573.047 557.578 573.297 557.711 573.523C557.844 573.742 558.051 573.934 558.332 574.098C558.621 574.262 558.992 574.398 559.445 574.508L561.379 574.977C562.605 575.273 563.477 575.684 563.992 576.207C564.508 576.73 564.766 577.43 564.766 578.305V578.316C564.766 579.035 564.559 579.672 564.145 580.227C563.73 580.773 563.16 581.203 562.434 581.516C561.707 581.828 560.887 581.984 559.973 581.984ZM572.125 581.984C570.953 581.984 569.945 581.727 569.102 581.211C568.258 580.688 567.609 579.953 567.156 579.008C566.703 578.062 566.477 576.949 566.477 575.668V575.656C566.477 574.383 566.703 573.266 567.156 572.305C567.617 571.344 568.258 570.594 569.078 570.055C569.906 569.516 570.879 569.246 571.996 569.246C573.113 569.246 574.074 569.504 574.879 570.02C575.684 570.535 576.301 571.258 576.73 572.188C577.168 573.109 577.387 574.184 577.387 575.41V576.172H567.508V574.578H576.367L575.336 576.055V575.258C575.336 574.305 575.191 573.52 574.902 572.902C574.621 572.277 574.227 571.812 573.719 571.508C573.219 571.203 572.641 571.051 571.984 571.051C571.328 571.051 570.738 571.211 570.215 571.531C569.699 571.852 569.293 572.324 568.996 572.949C568.699 573.574 568.551 574.344 568.551 575.258V576.055C568.551 576.922 568.695 577.664 568.984 578.281C569.281 578.891 569.699 579.359 570.238 579.688C570.785 580.016 571.43 580.18 572.172 580.18C572.695 580.18 573.16 580.102 573.566 579.945C573.98 579.789 574.324 579.578 574.598 579.312C574.871 579.039 575.066 578.734 575.184 578.398L575.219 578.293H577.234L577.211 578.41C577.102 578.895 576.906 579.355 576.625 579.793C576.344 580.223 575.98 580.602 575.535 580.93C575.09 581.258 574.578 581.516 574 581.703C573.43 581.891 572.805 581.984 572.125 581.984ZM583.703 581.961C582.555 581.961 581.699 581.695 581.137 581.164C580.582 580.633 580.305 579.781 580.305 578.609V571.168H578.477V569.48H580.305V566.188H582.414V569.48H584.816V571.168H582.414V578.504C582.414 579.176 582.555 579.637 582.836 579.887C583.117 580.129 583.539 580.25 584.102 580.25C584.234 580.25 584.359 580.246 584.477 580.238C584.594 580.223 584.707 580.211 584.816 580.203V581.867C584.676 581.891 584.504 581.91 584.301 581.926C584.105 581.949 583.906 581.961 583.703 581.961Z" fill="black"/>
<rect x="490" y="629.75" width="666" height="65" rx="6" fill="black"/>
<path d="M746.664 671.055C745.484 671.055 744.418 670.852 743.465 670.445C742.512 670.031 741.699 669.438 741.027 668.664C740.355 667.891 739.836 666.961 739.469 665.875C739.109 664.789 738.93 663.57 738.93 662.219V662.207C738.93 660.441 739.246 658.91 739.879 657.613C740.52 656.316 741.418 655.312 742.574 654.602C743.73 653.891 745.094 653.535 746.664 653.535C747.953 653.535 749.074 653.762 750.027 654.215C750.98 654.668 751.762 655.289 752.371 656.078C752.988 656.867 753.422 657.77 753.672 658.785L753.73 658.984H751.527L751.48 658.855C751.098 657.785 750.496 656.957 749.676 656.371C748.863 655.777 747.859 655.48 746.664 655.48C745.516 655.48 744.523 655.754 743.688 656.301C742.852 656.84 742.207 657.613 741.754 658.621C741.309 659.621 741.086 660.816 741.086 662.207V662.219C741.086 663.281 741.215 664.238 741.473 665.09C741.73 665.941 742.102 666.668 742.586 667.27C743.07 667.863 743.656 668.32 744.344 668.641C745.031 668.953 745.805 669.109 746.664 669.109C747.664 669.109 748.543 668.91 749.301 668.512C750.066 668.105 750.66 667.543 751.082 666.824C751.512 666.105 751.727 665.273 751.727 664.328V664H746.957V662.148H753.836V663.836C753.836 664.961 753.672 665.969 753.344 666.859C753.016 667.75 752.539 668.508 751.914 669.133C751.297 669.758 750.547 670.234 749.664 670.562C748.781 670.891 747.781 671.055 746.664 671.055ZM761.453 670.984C760.281 670.984 759.273 670.727 758.43 670.211C757.586 669.688 756.938 668.953 756.484 668.008C756.031 667.062 755.805 665.949 755.805 664.668V664.656C755.805 663.383 756.031 662.266 756.484 661.305C756.945 660.344 757.586 659.594 758.406 659.055C759.234 658.516 760.207 658.246 761.324 658.246C762.441 658.246 763.402 658.504 764.207 659.02C765.012 659.535 765.629 660.258 766.059 661.188C766.496 662.109 766.715 663.184 766.715 664.41V665.172H756.836V663.578H765.695L764.664 665.055V664.258C764.664 663.305 764.52 662.52 764.23 661.902C763.949 661.277 763.555 660.812 763.047 660.508C762.547 660.203 761.969 660.051 761.312 660.051C760.656 660.051 760.066 660.211 759.543 660.531C759.027 660.852 758.621 661.324 758.324 661.949C758.027 662.574 757.879 663.344 757.879 664.258V665.055C757.879 665.922 758.023 666.664 758.312 667.281C758.609 667.891 759.027 668.359 759.566 668.688C760.113 669.016 760.758 669.18 761.5 669.18C762.023 669.18 762.488 669.102 762.895 668.945C763.309 668.789 763.652 668.578 763.926 668.312C764.199 668.039 764.395 667.734 764.512 667.398L764.547 667.293H766.562L766.539 667.41C766.43 667.895 766.234 668.355 765.953 668.793C765.672 669.223 765.309 669.602 764.863 669.93C764.418 670.258 763.906 670.516 763.328 670.703C762.758 670.891 762.133 670.984 761.453 670.984ZM768.977 670.75V658.48H771.016V660.25H771.086C771.414 659.656 771.887 659.176 772.504 658.809C773.129 658.434 773.902 658.246 774.824 658.246C776.176 658.246 777.223 658.652 777.965 659.465C778.707 660.27 779.078 661.379 779.078 662.793V670.75H777.039V663.18C777.039 662.156 776.805 661.379 776.336 660.848C775.867 660.316 775.16 660.051 774.215 660.051C773.566 660.051 773 660.195 772.516 660.484C772.039 660.766 771.668 661.168 771.402 661.691C771.145 662.207 771.016 662.816 771.016 663.52V670.75H768.977ZM786.906 670.984C785.734 670.984 784.727 670.727 783.883 670.211C783.039 669.688 782.391 668.953 781.938 668.008C781.484 667.062 781.258 665.949 781.258 664.668V664.656C781.258 663.383 781.484 662.266 781.938 661.305C782.398 660.344 783.039 659.594 783.859 659.055C784.688 658.516 785.66 658.246 786.777 658.246C787.895 658.246 788.855 658.504 789.66 659.02C790.465 659.535 791.082 660.258 791.512 661.188C791.949 662.109 792.168 663.184 792.168 664.41V665.172H782.289V663.578H791.148L790.117 665.055V664.258C790.117 663.305 789.973 662.52 789.684 661.902C789.402 661.277 789.008 660.812 788.5 660.508C788 660.203 787.422 660.051 786.766 660.051C786.109 660.051 785.52 660.211 784.996 660.531C784.48 660.852 784.074 661.324 783.777 661.949C783.48 662.574 783.332 663.344 783.332 664.258V665.055C783.332 665.922 783.477 666.664 783.766 667.281C784.062 667.891 784.48 668.359 785.02 668.688C785.566 669.016 786.211 669.18 786.953 669.18C787.477 669.18 787.941 669.102 788.348 668.945C788.762 668.789 789.105 668.578 789.379 668.312C789.652 668.039 789.848 667.734 789.965 667.398L790 667.293H792.016L791.992 667.41C791.883 667.895 791.688 668.355 791.406 668.793C791.125 669.223 790.762 669.602 790.316 669.93C789.871 670.258 789.359 670.516 788.781 670.703C788.211 670.891 787.586 670.984 786.906 670.984ZM794.43 670.75V658.48H796.469V660.508H796.539C796.75 659.812 797.113 659.262 797.629 658.855C798.145 658.449 798.758 658.246 799.469 658.246C799.656 658.246 799.824 658.258 799.973 658.281C800.129 658.297 800.25 658.312 800.336 658.328V660.309C800.227 660.277 800.07 660.25 799.867 660.227C799.672 660.203 799.453 660.191 799.211 660.191C798.664 660.191 798.184 660.312 797.77 660.555C797.355 660.789 797.035 661.129 796.809 661.574C796.582 662.02 796.469 662.551 796.469 663.168V670.75H794.43ZM805.492 670.984C804.695 670.984 803.988 670.832 803.371 670.527C802.754 670.223 802.273 669.793 801.93 669.238C801.586 668.676 801.414 668.027 801.414 667.293V667.27C801.414 666.559 801.586 665.949 801.93 665.441C802.281 664.926 802.789 664.52 803.453 664.223C804.125 663.926 804.93 663.75 805.867 663.695L810.402 663.426V665.02L806.102 665.289C805.266 665.336 804.621 665.531 804.168 665.875C803.723 666.219 803.5 666.68 803.5 667.258V667.281C803.5 667.875 803.723 668.348 804.168 668.699C804.621 669.043 805.215 669.215 805.949 669.215C806.598 669.215 807.18 669.078 807.695 668.805C808.211 668.531 808.621 668.16 808.926 667.691C809.23 667.223 809.383 666.695 809.383 666.109V662.441C809.383 661.699 809.148 661.117 808.68 660.695C808.211 660.266 807.543 660.051 806.676 660.051C805.902 660.051 805.273 660.215 804.789 660.543C804.312 660.871 804.012 661.305 803.887 661.844L803.863 661.938H801.883L801.895 661.82C801.965 661.148 802.199 660.543 802.598 660.004C803.004 659.465 803.555 659.039 804.25 658.727C804.945 658.406 805.766 658.246 806.711 658.246C807.688 658.246 808.523 658.414 809.219 658.75C809.922 659.078 810.465 659.543 810.848 660.145C811.23 660.746 811.422 661.461 811.422 662.289V670.75H809.383V668.793H809.312C809.07 669.238 808.754 669.625 808.363 669.953C807.973 670.281 807.535 670.535 807.051 670.715C806.566 670.895 806.047 670.984 805.492 670.984ZM818.289 670.961C817.141 670.961 816.285 670.695 815.723 670.164C815.168 669.633 814.891 668.781 814.891 667.609V660.168H813.062V658.48H814.891V655.188H817V658.48H819.402V660.168H817V667.504C817 668.176 817.141 668.637 817.422 668.887C817.703 669.129 818.125 669.25 818.688 669.25C818.82 669.25 818.945 669.246 819.062 669.238C819.18 669.223 819.293 669.211 819.402 669.203V670.867C819.262 670.891 819.09 670.91 818.887 670.926C818.691 670.949 818.492 670.961 818.289 670.961ZM826.445 670.984C825.273 670.984 824.266 670.727 823.422 670.211C822.578 669.688 821.93 668.953 821.477 668.008C821.023 667.062 820.797 665.949 820.797 664.668V664.656C820.797 663.383 821.023 662.266 821.477 661.305C821.938 660.344 822.578 659.594 823.398 659.055C824.227 658.516 825.199 658.246 826.316 658.246C827.434 658.246 828.395 658.504 829.199 659.02C830.004 659.535 830.621 660.258 831.051 661.188C831.488 662.109 831.707 663.184 831.707 664.41V665.172H821.828V663.578H830.688L829.656 665.055V664.258C829.656 663.305 829.512 662.52 829.223 661.902C828.941 661.277 828.547 660.812 828.039 660.508C827.539 660.203 826.961 660.051 826.305 660.051C825.648 660.051 825.059 660.211 824.535 660.531C824.02 660.852 823.613 661.324 823.316 661.949C823.02 662.574 822.871 663.344 822.871 664.258V665.055C822.871 665.922 823.016 666.664 823.305 667.281C823.602 667.891 824.02 668.359 824.559 668.688C825.105 669.016 825.75 669.18 826.492 669.18C827.016 669.18 827.48 669.102 827.887 668.945C828.301 668.789 828.645 668.578 828.918 668.312C829.191 668.039 829.387 667.734 829.504 667.398L829.539 667.293H831.555L831.531 667.41C831.422 667.895 831.227 668.355 830.945 668.793C830.664 669.223 830.301 669.602 829.855 669.93C829.41 670.258 828.898 670.516 828.32 670.703C827.75 670.891 827.125 670.984 826.445 670.984ZM840.578 664.715V662.84H845.066C846.277 662.84 847.215 662.527 847.879 661.902C848.543 661.27 848.875 660.398 848.875 659.289V659.266C848.875 658.148 848.543 657.277 847.879 656.652C847.215 656.027 846.277 655.715 845.066 655.715H840.578V653.84H845.605C846.668 653.84 847.605 654.066 848.418 654.52C849.23 654.973 849.867 655.605 850.328 656.418C850.797 657.23 851.031 658.172 851.031 659.242V659.266C851.031 660.336 850.797 661.281 850.328 662.102C849.867 662.922 849.23 663.562 848.418 664.023C847.605 664.484 846.668 664.715 845.605 664.715H840.578ZM839.523 670.75V653.84H841.633V670.75H839.523ZM855.93 670.984C855.133 670.984 854.426 670.832 853.809 670.527C853.191 670.223 852.711 669.793 852.367 669.238C852.023 668.676 851.852 668.027 851.852 667.293V667.27C851.852 666.559 852.023 665.949 852.367 665.441C852.719 664.926 853.227 664.52 853.891 664.223C854.562 663.926 855.367 663.75 856.305 663.695L860.84 663.426V665.02L856.539 665.289C855.703 665.336 855.059 665.531 854.605 665.875C854.16 666.219 853.938 666.68 853.938 667.258V667.281C853.938 667.875 854.16 668.348 854.605 668.699C855.059 669.043 855.652 669.215 856.387 669.215C857.035 669.215 857.617 669.078 858.133 668.805C858.648 668.531 859.059 668.16 859.363 667.691C859.668 667.223 859.82 666.695 859.82 666.109V662.441C859.82 661.699 859.586 661.117 859.117 660.695C858.648 660.266 857.98 660.051 857.113 660.051C856.34 660.051 855.711 660.215 855.227 660.543C854.75 660.871 854.449 661.305 854.324 661.844L854.301 661.938H852.32L852.332 661.82C852.402 661.148 852.637 660.543 853.035 660.004C853.441 659.465 853.992 659.039 854.688 658.727C855.383 658.406 856.203 658.246 857.148 658.246C858.125 658.246 858.961 658.414 859.656 658.75C860.359 659.078 860.902 659.543 861.285 660.145C861.668 660.746 861.859 661.461 861.859 662.289V670.75H859.82V668.793H859.75C859.508 669.238 859.191 669.625 858.801 669.953C858.41 670.281 857.973 670.535 857.488 670.715C857.004 670.895 856.484 670.984 855.93 670.984ZM864.777 670.75V653.711H866.816V670.75H864.777ZM874.82 670.984C873.648 670.984 872.641 670.727 871.797 670.211C870.953 669.688 870.305 668.953 869.852 668.008C869.398 667.062 869.172 665.949 869.172 664.668V664.656C869.172 663.383 869.398 662.266 869.852 661.305C870.312 660.344 870.953 659.594 871.773 659.055C872.602 658.516 873.574 658.246 874.691 658.246C875.809 658.246 876.77 658.504 877.574 659.02C878.379 659.535 878.996 660.258 879.426 661.188C879.863 662.109 880.082 663.184 880.082 664.41V665.172H870.203V663.578H879.062L878.031 665.055V664.258C878.031 663.305 877.887 662.52 877.598 661.902C877.316 661.277 876.922 660.812 876.414 660.508C875.914 660.203 875.336 660.051 874.68 660.051C874.023 660.051 873.434 660.211 872.91 660.531C872.395 660.852 871.988 661.324 871.691 661.949C871.395 662.574 871.246 663.344 871.246 664.258V665.055C871.246 665.922 871.391 666.664 871.68 667.281C871.977 667.891 872.395 668.359 872.934 668.688C873.48 669.016 874.125 669.18 874.867 669.18C875.391 669.18 875.855 669.102 876.262 668.945C876.676 668.789 877.02 668.578 877.293 668.312C877.566 668.039 877.762 667.734 877.879 667.398L877.914 667.293H879.93L879.906 667.41C879.797 667.895 879.602 668.355 879.32 668.793C879.039 669.223 878.676 669.602 878.23 669.93C877.785 670.258 877.273 670.516 876.695 670.703C876.125 670.891 875.5 670.984 874.82 670.984ZM886.398 670.961C885.25 670.961 884.395 670.695 883.832 670.164C883.277 669.633 883 668.781 883 667.609V660.168H881.172V658.48H883V655.188H885.109V658.48H887.512V660.168H885.109V667.504C885.109 668.176 885.25 668.637 885.531 668.887C885.812 669.129 886.234 669.25 886.797 669.25C886.93 669.25 887.055 669.246 887.172 669.238C887.289 669.223 887.402 669.211 887.512 669.203V670.867C887.371 670.891 887.199 670.91 886.996 670.926C886.801 670.949 886.602 670.961 886.398 670.961ZM893.898 670.961C892.75 670.961 891.895 670.695 891.332 670.164C890.777 669.633 890.5 668.781 890.5 667.609V660.168H888.672V658.48H890.5V655.188H892.609V658.48H895.012V660.168H892.609V667.504C892.609 668.176 892.75 668.637 893.031 668.887C893.312 669.129 893.734 669.25 894.297 669.25C894.43 669.25 894.555 669.246 894.672 669.238C894.789 669.223 894.902 669.211 895.012 669.203V670.867C894.871 670.891 894.699 670.91 894.496 670.926C894.301 670.949 894.102 670.961 893.898 670.961ZM902.055 670.984C900.883 670.984 899.875 670.727 899.031 670.211C898.188 669.688 897.539 668.953 897.086 668.008C896.633 667.062 896.406 665.949 896.406 664.668V664.656C896.406 663.383 896.633 662.266 897.086 661.305C897.547 660.344 898.188 659.594 899.008 659.055C899.836 658.516 900.809 658.246 901.926 658.246C903.043 658.246 904.004 658.504 904.809 659.02C905.613 659.535 906.23 660.258 906.66 661.188C907.098 662.109 907.316 663.184 907.316 664.41V665.172H897.438V663.578H906.297L905.266 665.055V664.258C905.266 663.305 905.121 662.52 904.832 661.902C904.551 661.277 904.156 660.812 903.648 660.508C903.148 660.203 902.57 660.051 901.914 660.051C901.258 660.051 900.668 660.211 900.145 660.531C899.629 660.852 899.223 661.324 898.926 661.949C898.629 662.574 898.48 663.344 898.48 664.258V665.055C898.48 665.922 898.625 666.664 898.914 667.281C899.211 667.891 899.629 668.359 900.168 668.688C900.715 669.016 901.359 669.18 902.102 669.18C902.625 669.18 903.09 669.102 903.496 668.945C903.91 668.789 904.254 668.578 904.527 668.312C904.801 668.039 904.996 667.734 905.113 667.398L905.148 667.293H907.164L907.141 667.41C907.031 667.895 906.836 668.355 906.555 668.793C906.273 669.223 905.91 669.602 905.465 669.93C905.02 670.258 904.508 670.516 903.93 670.703C903.359 670.891 902.734 670.984 902.055 670.984Z" fill="white"/>
</g>
<defs>
<filter id="filter0_f_59_3158" x="-869" y="-2197" width="4782" height="5376" filterUnits="userSpaceOnUse" color-interpolation-filters="sRGB">
<feFlood flood-opacity="0" result="BackgroundImageFix"/>
<feBlend mode="normal" in="SourceGraphic" in2="BackgroundImageFix" result="shape"/>
<feGaussianBlur stdDeviation="525" result="effect1_foregroundBlur_59_3158"/>
</filter>
<filter id="filter1_f_59_3158" x="-2180" y="-2602" width="4395" height="4536" filterUnits="userSpaceOnUse" color-interpolation-filters="sRGB">
<feFlood flood-opacity="0" result="BackgroundImageFix"/>
<feBlend mode="normal" in="SourceGraphic" in2="BackgroundImageFix" result="shape"/>
<feGaussianBlur stdDeviation="525" result="effect1_foregroundBlur_59_3158"/>
</filter>
<filter id="filter2_f_59_3158" x="-2240" y="-658" width="4371" height="4230" filterUnits="userSpaceOnUse" color-interpolation-filters="sRGB">
<feFlood flood-opacity="0" result="BackgroundImageFix"/>
<feBlend mode="normal" in="SourceGraphic" in2="BackgroundImageFix" result="shape"/>
<feGaussianBlur stdDeviation="525" result="effect1_foregroundBlur_59_3158"/>
</filter>
<filter id="filter3_f_59_3158" x="1539.13" y="-2259.25" width="4032" height="4689" filterUnits="userSpaceOnUse" color-interpolation-filters="sRGB">
<feFlood flood-opacity="0" result="BackgroundImageFix"/>
<feBlend mode="normal" in="SourceGraphic" in2="BackgroundImageFix" result="shape"/>
<feGaussianBlur stdDeviation="525" result="effect1_foregroundBlur_59_3158"/>
</filter>
<filter id="filter4_f_59_3158" x="-278.871" y="-1905.25" width="4161" height="4449" filterUnits="userSpaceOnUse" color-interpolation-filters="sRGB">
<feFlood flood-opacity="0" result="BackgroundImageFix"/>
<feBlend mode="normal" in="SourceGraphic" in2="BackgroundImageFix" result="shape"/>
<feGaussianBlur stdDeviation="525" result="effect1_foregroundBlur_59_3158"/>
</filter>
<filter id="filter5_f_59_3158" x="1002.13" y="566.747" width="4281" height="3909" filterUnits="userSpaceOnUse" color-interpolation-filters="sRGB">
<feFlood flood-opacity="0" result="BackgroundImageFix"/>
<feBlend mode="normal" in="SourceGraphic" in2="BackgroundImageFix" result="shape"/>
<feGaussianBlur stdDeviation="525" result="effect1_foregroundBlur_59_3158"/>
</filter>
<filter id="filter6_f_59_3158" x="-2141" y="443" width="4356" height="4218" filterUnits="userSpaceOnUse" color-interpolation-filters="sRGB">
<feFlood flood-opacity="0" result="BackgroundImageFix"/>
<feBlend mode="normal" in="SourceGraphic" in2="BackgroundImageFix" result="shape"/>
<feGaussianBlur stdDeviation="525" result="effect1_foregroundBlur_59_3158"/>
</filter>
<clipPath id="clip0_59_3158">
<rect width="1646" height="1084" fill="white"/>
</clipPath>
<clipPath id="clip1_59_3158">
<rect width="4938" height="3252" fill="white" transform="translate(-1646 -1084)"/>
</clipPath>
</defs>
</svg>
