<svg width="112" height="112" viewBox="0 0 112 112" fill="none" xmlns="http://www.w3.org/2000/svg">
<rect width="112" height="112" fill="black"/>
<path fill-rule="evenodd" clip-rule="evenodd" d="M55.854 8C28.839 8 7 30 7 57.217C7 78.973 20.993 97.389 40.405 103.907C42.832 104.397 43.721 102.848 43.721 101.545C43.721 100.404 43.641 96.493 43.641 92.418C30.051 95.352 27.221 86.551 27.221 86.551C25.037 80.847 21.801 79.381 21.801 79.381C17.353 76.366 22.125 76.366 22.125 76.366C27.059 76.692 29.648 81.418 29.648 81.418C34.015 88.914 41.052 86.796 43.883 85.492C44.287 82.314 45.582 80.114 46.957 78.892C36.118 77.751 24.714 73.514 24.714 54.609C24.714 49.231 26.654 44.831 29.728 41.409C29.243 40.187 27.544 35.134 30.214 28.371C30.214 28.371 34.339 27.067 43.64 33.423C47.6221 32.3457 51.7288 31.7976 55.854 31.793C59.979 31.793 64.184 32.364 68.067 33.423C77.369 27.067 81.494 28.371 81.494 28.371C84.164 35.134 82.464 40.187 81.979 41.409C85.134 44.831 86.994 49.231 86.994 54.609C86.994 73.514 75.59 77.669 64.67 78.892C66.45 80.44 67.986 83.373 67.986 88.018C67.986 94.618 67.906 99.915 67.906 101.544C67.906 102.848 68.796 104.397 71.222 103.908C90.634 97.388 104.627 78.973 104.627 57.217C104.707 30 82.788 8 55.854 8Z" fill="white"/>
</svg>
