<svg width="156" height="156" viewBox="0 0 156 156" fill="none" xmlns="http://www.w3.org/2000/svg">
<path d="M116.509 0H39.465C17.669 0 0 17.669 0 39.465V116.509C0 138.304 17.669 155.973 39.465 155.973H116.509C138.304 155.973 155.973 138.304 155.973 116.509V39.465C155.973 17.669 138.304 0 116.509 0Z" fill="#00DDB3"/>
<path d="M118.543 34.9336C91.695 34.9336 81.746 54.1036 73.746 69.5036L68.519 79.3566C60.049 95.6886 53.719 105.617 37.409 105.617C36.3962 105.616 35.3933 105.815 34.4576 106.203C33.5219 106.59 32.6718 107.158 31.956 107.875C31.2402 108.591 30.6725 109.441 30.2853 110.376C29.8981 111.311 29.6989 112.314 29.6992 113.326C29.6995 114.339 29.8992 115.341 30.2869 116.276C30.6747 117.211 31.2428 118.061 31.959 118.777C33.4047 120.222 35.3645 121.035 37.409 121.039C64.268 121.039 74.217 101.868 82.217 86.4686L87.433 76.6156C95.914 60.2826 102.244 50.3556 118.543 50.3556C119.557 50.3574 120.561 50.1591 121.498 49.7721C122.435 49.3852 123.286 48.8172 124.003 48.1006C124.72 47.3845 125.289 46.534 125.677 45.5978C126.065 44.6616 126.265 43.6581 126.265 42.6446C126.261 40.5989 125.446 38.6383 123.998 37.1929C122.55 35.7476 120.589 34.9354 118.543 34.9346V34.9336Z" fill="white"/>
</svg>
