<svg width="112" height="112" viewBox="0 0 112 112" fill="none" xmlns="http://www.w3.org/2000/svg">
<rect width="112" height="112" fill="white"/>
<g clip-path="url(#clip0_66_304)">
<path d="M12.017 10.3132L67.35 6.22622C74.147 5.64322 75.893 6.03622 80.167 9.14322L97.83 21.5862C100.743 23.7262 101.713 24.3092 101.713 26.6392V94.8822C101.713 99.1592 100.16 101.689 94.723 102.075L30.467 105.967C26.387 106.16 24.444 105.577 22.307 102.854L9.3 85.9402C6.967 82.8272 6 80.4972 6 77.7732V17.1132C6 13.6162 7.553 10.7002 12.017 10.3132Z" fill="white"/>
<path fill-rule="evenodd" clip-rule="evenodd" d="M67.35 6.22722L12.017 10.3142C7.553 10.7002 6 13.6172 6 17.1132V77.7732C6 80.4962 6.967 82.8262 9.3 85.9402L22.307 102.853C24.444 105.576 26.387 106.16 30.467 105.966L94.724 102.076C100.157 101.689 101.714 99.1592 101.714 94.8832V26.6402C101.714 24.4302 100.841 23.7932 98.271 21.9072L80.167 9.14322C75.894 6.03622 74.147 5.64322 67.35 6.22622V6.22722ZM31.92 25.5232C26.673 25.8762 25.483 25.9562 22.503 23.5332L14.927 17.5072C14.157 16.7272 14.544 15.7542 16.484 15.5602L69.677 11.6732C74.144 11.2832 76.47 12.8402 78.217 14.2002L87.34 20.8102C87.73 21.0072 88.7 22.1702 87.533 22.1702L32.6 25.4772L31.92 25.5232ZM25.803 94.3002V36.3672C25.803 33.8372 26.58 32.6702 28.906 32.4742L92 28.7802C94.14 28.5872 95.107 29.9472 95.107 32.4732V90.0202C95.107 92.5502 94.717 94.6902 91.224 94.8832L30.847 98.3832C27.354 98.5762 25.804 97.4132 25.804 94.3002H25.803ZM85.403 39.4732C85.79 41.2232 85.403 42.9732 83.653 43.1732L80.743 43.7502V86.5232C78.216 87.8832 75.89 88.6602 73.946 88.6602C70.839 88.6602 70.063 87.6872 67.736 84.7732L48.706 54.8332V83.8002L54.726 85.1632C54.726 85.1632 54.726 88.6632 49.869 88.6632L36.479 89.4402C36.089 88.6602 36.479 86.7172 37.836 86.3302L41.333 85.3602V47.0602L36.48 46.6672C36.09 44.9172 37.06 42.3902 39.78 42.1942L54.147 41.2272L73.947 71.5542V44.7242L68.9 44.1442C68.51 42.0012 70.063 40.4442 72.003 40.2542L85.403 39.4732Z" fill="black"/>
</g>
<defs>
<clipPath id="clip0_66_304">
<rect width="100" height="100" fill="white" transform="translate(6 6)"/>
</clipPath>
</defs>
</svg>
